<?xml version="1.0" encoding="UTF-8"?>
<svg version="1.1" xmlns="http://www.w3.org/2000/svg" width="639" height="450">
<path d="M0 0 C1.67542976 0.28604898 3.34385343 0.61781233 5 1 C5.38218767 2.65614657 5.71395102 4.32457024 6 6 C5.67 6.33 5.34 6.66 5 7 C10.71210883 9.85605442 18.44549767 7.62343183 24.4140625 6.453125 C29.2669259 5.60277431 32.75107906 5.16738604 37 8 C37.34057617 9.87939453 37.34057617 9.87939453 37.29296875 12.1328125 C37.28330078 12.93847656 37.27363281 13.74414062 37.26367188 14.57421875 C37.23853516 15.41597656 37.21339844 16.25773437 37.1875 17.125 C37.17396484 17.97449219 37.16042969 18.82398437 37.14648438 19.69921875 C37.11108219 21.79974837 37.05727401 23.89995293 37 26 C35.99839844 25.97679688 34.99679687 25.95359375 33.96484375 25.9296875 C32.62240336 25.91091211 31.27995482 25.89271382 29.9375 25.875 C28.62652344 25.85179688 27.31554687 25.82859375 25.96484375 25.8046875 C21.98534638 26.00072185 18.80213555 26.87344132 15 28 C11.3040123 28.23362754 7.7098017 28.09160004 4 28 C4 32.29 4 36.58 4 41 C5.96678711 40.98428955 7.93357422 40.9685791 9.95996094 40.95239258 C16.50174428 40.90376541 23.04348446 40.86943222 29.58539963 40.84456348 C33.54678308 40.82899286 37.50796866 40.80791471 41.46923828 40.77368164 C45.30127115 40.74077753 49.13311524 40.72308253 52.96527863 40.71536827 C54.41792009 40.70987986 55.87055273 40.69916463 57.32311249 40.68280983 C69.38290598 40.55258433 80.26177616 42.01390595 91.0625 47.625 C91.73732422 47.97127441 92.41214844 48.31754883 93.10742188 48.67431641 C106.28580662 55.68042723 115.49161378 65.66904996 122.3125 78.8125 C122.80109497 79.73494507 122.80109497 79.73494507 123.29956055 80.67602539 C129.51048971 93.28687688 129.44645542 106.45748235 129.1340332 120.15698242 C128.70339855 129.28323246 128.70339855 129.28323246 131.6652832 137.64648438 C133.67308784 139.6310108 135.74436635 141.3079393 138 143 C151.8635734 159.06580518 162.39131359 178.24895392 170 198 C170.721875 197.896875 171.44375 197.79375 172.1875 197.6875 C175 198 175 198 177.8125 200.25 C180 203 180 203 180 207 C178.02 207.66 176.04 208.32 174 209 C174.21934204 210.09501831 174.21934204 210.09501831 174.44311523 211.2121582 C175.11379529 214.5777962 175.7756897 217.94510711 176.4375 221.3125 C176.78264648 223.03436523 176.78264648 223.03436523 177.13476562 224.79101562 C185.62368841 268.21985247 177.67932421 313.40958132 154.8671875 351.24462891 C154.3294873 352.13743561 153.79178711 353.03024231 153.23779297 353.95010376 C152.82932129 354.62656952 152.42084961 355.30303528 152 356 C153.56854485 356.01213028 153.56854485 356.01213028 155.16877747 356.02450562 C165.01305303 356.10191736 174.85718953 356.18964398 184.70128345 356.28752708 C189.76249756 356.33751933 194.82369049 356.3838491 199.88500977 356.421875 C204.76747505 356.45869082 209.64976445 356.50504064 214.5320797 356.55806351 C216.39680592 356.57662717 218.26156987 356.59172781 220.12635231 356.60334396 C222.7339144 356.62017272 225.34107192 356.64919932 227.94848633 356.68115234 C228.72316254 356.68331253 229.49783875 356.68547272 230.29598999 356.68769836 C234.06135886 356.74682604 235.78852714 356.85901809 239 359 C238.67 360.65 238.34 362.3 238 364 C75.97 364 -86.06 364 -253 364 C-253.33 362.35 -253.66 360.7 -254 359 C-251.62602199 356.62602199 -251.15053892 356.74553751 -247.92514038 356.7215271 C-246.64627205 356.70478188 -246.64627205 356.70478188 -245.34156799 356.68769836 C-244.40433395 356.68553818 -243.46709991 356.68337799 -242.50146484 356.68115234 C-241.51606216 356.67110672 -240.53065948 356.6610611 -239.51539612 356.65071106 C-236.24724937 356.61973645 -232.97918505 356.60280431 -229.7109375 356.5859375 C-227.4493437 356.56723734 -225.18775697 356.54766481 -222.92617798 356.5272522 C-216.96513013 356.47580335 -211.00405962 356.43624599 -205.04290771 356.39910889 C-198.96344338 356.35914902 -192.88407431 356.30802021 -186.8046875 356.2578125 C-174.86985846 356.16090228 -162.93497579 356.07654597 -151 356 C-151.60690674 354.93056152 -152.21381348 353.86112305 -152.83911133 352.75927734 C-153.64934665 351.32655131 -154.45948124 349.89376831 -155.26953125 348.4609375 C-155.66789185 347.75960693 -156.06625244 347.05827637 -156.47668457 346.33569336 C-179.66065904 305.27506203 -185.22879659 256.58467636 -172.80200195 211.11206055 C-171.64447184 207.03442882 -170.34431948 203.02026753 -169 199 C-169.76341705 199.01110306 -170.52683411 199.02220612 -171.31338501 199.03364563 C-178.52236963 199.13400218 -185.73101363 199.21004227 -192.94051552 199.25906086 C-196.64668298 199.28510971 -200.35227129 199.32041894 -204.05810547 199.37719727 C-207.63727856 199.43168922 -211.2158961 199.46145597 -214.79545212 199.47438622 C-216.15821449 199.48359566 -217.52094784 199.50158028 -218.88347244 199.52865028 C-230.88423638 199.75750427 -230.88423638 199.75750427 -234.75927734 196.90698242 C-237 194 -237 194 -239 187 C-223.16 186.67 -207.32 186.34 -191 186 C-191.33 168.84 -191.66 151.68 -192 134 C-193.98 133.01 -195.96 132.02 -198 131 C-201.81949181 127.35026338 -203.86030115 124.32341818 -204.19140625 119.0859375 C-203.76839816 114.4760126 -201.90100628 110.67100799 -198.41796875 107.609375 C-194.28005496 104.95662666 -190.80416837 104.38856039 -186 105 C-181.33882885 106.73651474 -178.69124092 108.81362524 -176 113 C-175.25 115.8125 -175.25 115.8125 -175 118 C-171.7 118 -168.4 118 -165 118 C-165.02320313 117.28457031 -165.04640625 116.56914062 -165.0703125 115.83203125 C-165.46969746 93.78027578 -158.76791049 75.56932015 -143.59375 59.50390625 C-133.77263985 50.02298515 -121.56544276 44.35629459 -108.265625 41.640625 C-107.51796875 41.42921875 -106.7703125 41.2178125 -106 41 C-105.67 40.34 -105.34 39.68 -105 39 C-71.34 39 -37.68 39 -3 39 C-3 29.1 -3 19.2 -3 9 C-2.67 8.01 -2.34 7.02 -2 6 C-1.835 5.13375 -1.67 4.2675 -1.5 3.375 C-1 1 -1 1 0 0 Z M173 201 C172.67 202.65 172.34 204.3 172 206 C173.65 205.67 175.3 205.34 177 205 C175.68 203.68 174.36 202.36 173 201 Z " fill="#5A8DFE" transform="translate(340,59)"/>
<path d="M0 0 C1.10809086 0.92988732 2.21332356 1.86318105 3.31738281 2.79785156 C3.933172 3.31720276 4.54896118 3.83655396 5.18341064 4.37164307 C8.02284826 6.91686217 10.39012405 9.76391916 12.75 12.75 C13.26022705 13.39485352 13.7704541 14.03970703 14.29614258 14.70410156 C25.57859397 29.28792736 34.37753884 45.8090516 41 63 C41.721875 62.896875 42.44375 62.79375 43.1875 62.6875 C46 63 46 63 48.8125 65.25 C51 68 51 68 51 72 C48.03 72.99 48.03 72.99 45 74 C45.14622803 74.73001221 45.29245605 75.46002441 45.44311523 76.2121582 C46.11379529 79.5777962 46.7756897 82.94510711 47.4375 86.3125 C47.66759766 87.46041016 47.89769531 88.60832031 48.13476562 89.79101562 C56.92332333 134.75276738 47.84473229 180.25588812 24.2265625 219.1796875 C23 221 23 221 21 223 C18.58308983 223.24609566 18.58308983 223.24609566 15.48251343 223.24050903 C14.31264074 223.24326403 13.14276806 223.24601902 11.93744469 223.2488575 C10.64243853 223.24166128 9.34743237 223.23446507 8.01318359 223.22705078 C6.62122929 223.22643836 5.22927435 223.22670467 3.83732033 223.2277813 C0.10180622 223.22823375 -3.63358037 223.21662247 -7.36906433 223.20256042 C-10.87129123 223.19119026 -14.37348673 223.19063527 -17.87573242 223.18920898 C-28.12550524 223.17870455 -38.37525422 223.15078237 -48.625 223.125 C-71.51875 223.08375 -94.4125 223.0425 -118 223 C-118 170.53 -118 118.06 -118 64 C-64.875 63.6875 -64.875 63.6875 -48.11279297 63.61206055 C-43.14587363 63.57548772 -43.14587363 63.57548772 -38.1789856 63.5349884 C-35.97011556 63.51885947 -33.76119824 63.50855716 -31.55227661 63.50288391 C-28.20240062 63.49314153 -24.85314104 63.46479882 -21.50341797 63.43237305 C-20.03217877 63.43451199 -20.03217877 63.43451199 -18.53121758 63.43669415 C-13.27320182 63.36403699 -9.541475 62.95389087 -5 60 C-1.54663502 56.18939037 -0.87842393 52.83092474 -0.79467773 47.79418945 C-0.77473251 46.73331619 -0.75478729 45.67244293 -0.73423767 44.579422 C-0.71752518 43.43559555 -0.70081268 42.2917691 -0.68359375 41.11328125 C-0.6524221 39.35506294 -0.6524221 39.35506294 -0.62062073 37.56132507 C-0.55516182 33.81177714 -0.49625704 30.06215837 -0.4375 26.3125 C-0.39431132 23.77277909 -0.35069692 21.23306538 -0.30664062 18.69335938 C-0.19948414 12.46231478 -0.0977108 6.23119949 0 0 Z M44 66 C43.67 67.65 43.34 69.3 43 71 C44.65 70.67 46.3 70.34 48 70 C46.68 68.68 45.36 67.36 44 66 Z " fill="#DCE8FD" transform="translate(469,194)"/>
<path d="M0 0 C52.47 0 104.94 0 159 0 C159 52.47 159 104.94 159 159 C136.209375 159.20625 113.41875 159.4125 89.9375 159.625 C82.74445068 159.71604004 75.55140137 159.80708008 68.14038086 159.90087891 C59.34875488 159.94604492 59.34875488 159.94604492 55.23146057 159.95443726 C52.35848087 159.96374653 49.4873532 160.0011756 46.61488342 160.05575562 C42.94653368 160.12453122 39.28086273 160.14488438 35.61192811 160.13072276 C33.63582727 160.13507468 31.66002076 160.188631 29.68469906 160.24428749 C21.24048511 160.14544087 21.24048511 160.14544087 17.7110157 156.8863945 C15.87706183 154.32678872 14.40678087 151.81435313 13 149 C12.49426421 148.06159586 11.98852842 147.12319172 11.46746731 146.15635109 C10.03975127 143.47206594 8.72805259 140.75273997 7.4375 138 C6.72871704 136.49614746 6.72871704 136.49614746 6.00561523 134.96191406 C-13.73749922 92.25024084 -14.79840945 44.39522834 0 0 Z " fill="#DCE8FC" transform="translate(171,258)"/>
<path d="M0 0 C3.56930687 2.79315566 6.81456734 5.77962658 10 9 C10.82564453 9.77537109 10.82564453 9.77537109 11.66796875 10.56640625 C15.37974382 14.37769271 17.75436262 18.94201347 20.1875 23.625 C20.52088379 24.25156494 20.85426758 24.87812988 21.19775391 25.52368164 C27.41185015 38.03162222 27.41448141 51.03118009 27.29296875 64.64453125 C27.28736078 66.50924841 27.28309638 68.37397004 27.28010559 70.23869324 C27.26875122 75.10320636 27.2393671 79.96744292 27.20599365 84.83184814 C27.16963653 90.69158464 27.15608674 96.55141456 27.13863373 102.41123199 C27.10972252 111.27434593 27.05217024 120.13685524 27 129 C9.51 129 -7.98 129 -26 129 C-25.98839844 124.24722656 -25.97679687 119.49445313 -25.96484375 114.59765625 C-25.95973682 111.59439968 -25.95492304 108.59114844 -25.95117188 105.58789062 C-25.9451841 100.81647638 -25.93808554 96.04508125 -25.92456055 91.27368164 C-25.91372939 87.42874886 -25.90772268 83.58383655 -25.90512276 79.73888969 C-25.90326892 78.26881017 -25.89964909 76.79873182 -25.89426994 75.32866096 C-25.88705645 73.27645533 -25.88600919 71.22433533 -25.88647461 69.17211914 C-25.884254 68.00185684 -25.88203339 66.83159454 -25.87974548 65.62586975 C-25.70099687 63.07433058 -25.70099687 63.07433058 -27 62 C-29.20794411 61.87593185 -31.41984486 61.82197722 -33.63110352 61.79467773 C-34.32375305 61.78477814 -35.01640259 61.77487854 -35.7300415 61.76467896 C-38.02962779 61.7329797 -40.32923477 61.70827349 -42.62890625 61.68359375 C-44.21932018 61.66303148 -45.80972855 61.64203521 -47.40013123 61.62062073 C-51.59389763 61.56532491 -55.78771395 61.5159489 -59.98156738 61.46777344 C-64.25793928 61.41761309 -68.53423834 61.36189856 -72.81054688 61.30664062 C-81.20696973 61.19896726 -89.60345338 61.09754284 -98 61 C-98.04950309 57.8151604 -98.07916049 54.63042149 -98.10546875 51.4453125 C-98.12667786 50.10400269 -98.12667786 50.10400269 -98.14831543 48.7355957 C-98.19533953 41.13162462 -96.98202061 35.04930117 -94 28 C-93.45666016 26.68322266 -93.45666016 26.68322266 -92.90234375 25.33984375 C-85.43032807 8.95206698 -72.23112571 -1.26278483 -56 -8 C-37.14698657 -15.01998881 -16.4997159 -10.90695506 0 0 Z " fill="#2C56B2" transform="translate(280,117)"/>
<path d="M0 0 C1.67542976 0.28604898 3.34385343 0.61781233 5 1 C5.38218767 2.65614657 5.71395102 4.32457024 6 6 C5.67 6.33 5.34 6.66 5 7 C10.71210883 9.85605442 18.44549767 7.62343183 24.4140625 6.453125 C29.2669259 5.60277431 32.75107906 5.16738604 37 8 C37.34057617 9.87939453 37.34057617 9.87939453 37.29296875 12.1328125 C37.28330078 12.93847656 37.27363281 13.74414062 37.26367188 14.57421875 C37.23853516 15.41597656 37.21339844 16.25773437 37.1875 17.125 C37.17396484 17.97449219 37.16042969 18.82398437 37.14648438 19.69921875 C37.11108219 21.79974837 37.05727401 23.89995293 37 26 C35.99839844 25.97679688 34.99679687 25.95359375 33.96484375 25.9296875 C32.62240336 25.91091211 31.27995482 25.89271382 29.9375 25.875 C28.62652344 25.85179688 27.31554687 25.82859375 25.96484375 25.8046875 C21.98534638 26.00072185 18.80213555 26.87344132 15 28 C11.3040123 28.23362754 7.7098017 28.09160004 4 28 C4 32.29 4 36.58 4 41 C5.96678711 40.98428955 7.93357422 40.9685791 9.95996094 40.95239258 C16.50174428 40.90376541 23.04348446 40.86943222 29.58539963 40.84456348 C33.54678308 40.82899286 37.50796866 40.80791471 41.46923828 40.77368164 C45.30127115 40.74077753 49.13311524 40.72308253 52.96527863 40.71536827 C54.41792009 40.70987986 55.87055273 40.69916463 57.32311249 40.68280983 C69.38290598 40.55258433 80.26177616 42.01390595 91.0625 47.625 C91.73732422 47.97127441 92.41214844 48.31754883 93.10742188 48.67431641 C106.28580662 55.68042723 115.49161378 65.66904996 122.3125 78.8125 C122.63822998 79.42746338 122.96395996 80.04242676 123.29956055 80.67602539 C129.59146796 93.45129748 129.41101047 106.64094238 129.29296875 120.51953125 C129.28736157 122.47392956 129.28309678 124.42833214 129.28010559 126.38273621 C129.26874512 131.48397822 129.23935539 136.58495697 129.20599365 141.68609619 C129.17510131 146.90853313 129.16155961 152.13101332 129.14648438 157.35351562 C129.11447585 167.56912499 129.06338816 177.78454046 129 188 C128.67 188 128.34 188 128 188 C128.00079559 187.37154175 128.00159119 186.7430835 128.00241089 186.09558105 C128.00487407 179.47485638 127.96513788 172.85528325 127.90234375 166.23486328 C127.88432471 163.77365483 127.87658926 161.31234642 127.87988281 158.85107422 C127.89881899 135.55010638 124.04678254 117.99552804 107.6484375 100.421875 C91.93923829 86.05653059 72.69566039 81.59028247 51.8515625 81.48828125 C50.45908081 81.47137798 49.06661384 81.45322049 47.67416382 81.43388367 C44.06091932 81.38698873 40.44773445 81.35679269 36.83428955 81.33044434 C33.12638557 81.30032792 29.41868641 81.25390717 25.7109375 81.20898438 C18.47406137 81.12364272 11.23716914 81.0559959 4 81 C4.01940422 86.76647856 4.07107182 92.53142759 4.15258789 98.29736328 C4.17577695 100.25854151 4.19016574 102.21984443 4.19555664 104.18115234 C4.20483968 107.00176783 4.24581459 109.82041972 4.29296875 112.640625 C4.2890361 113.51680481 4.28510345 114.39298462 4.28105164 115.29571533 C4.34703218 120.47282993 4.34703218 120.47282993 7.50488281 124.45996094 C8.32827148 124.96817383 9.15166016 125.47638672 10 126 C10.86605819 128.75417262 10.60392884 131.19316882 10 134 C8.5 136.5 8.5 136.5 6 138 C3.19082139 138.60443392 0.80242927 138.66040854 -2 138 C-4.99993115 135.45005852 -5.85480459 133.87117244 -6.5 130 C-5.8850867 126.31052021 -4.62288407 124.62288407 -2 122 C-1.34 122 -0.68 122 0 122 C0 108.47 0 94.94 0 81 C-11.22 81.33 -22.44 81.66 -34 82 C-35.98 78.37 -37.96 74.74 -40 71 C-51.84431324 53.52163506 -69.02301053 46.0238012 -89 42 C-89 41.67 -89 41.34 -89 41 C-94.28 40.67 -99.56 40.34 -105 40 C-105 39.67 -105 39.34 -105 39 C-71.34 39 -37.68 39 -3 39 C-3 29.1 -3 19.2 -3 9 C-2.67 8.01 -2.34 7.02 -2 6 C-1.835 5.13375 -1.67 4.2675 -1.5 3.375 C-1 1 -1 1 0 0 Z " fill="#6B99FE" transform="translate(340,59)"/>
<path d="M0 0 C3.88999428 2.5068852 6.37366215 4.88161346 7.41796875 9.4765625 C7.61326172 10.63285156 7.61326172 10.63285156 7.8125 11.8125 C9.45954422 11.82463028 9.45954422 11.82463028 11.13986206 11.83700562 C21.47007755 11.91437256 31.8001598 12.0020876 42.13020134 12.10002708 C47.44142909 12.1500479 52.75263639 12.19637727 58.06396484 12.234375 C63.18632371 12.2711549 68.3085138 12.31749462 73.43072891 12.37056351 C75.38838882 12.38914637 77.34608496 12.40423981 79.30379868 12.41584396 C82.03848436 12.43264007 84.77278017 12.4616584 87.50732422 12.49365234 C88.73083588 12.49689262 88.73083588 12.49689262 89.97906494 12.50019836 C95.58439568 12.58439568 95.58439568 12.58439568 97.8125 14.8125 C98.07319641 17.50720215 98.07319641 17.50720215 98.0871582 20.97460938 C98.09669022 22.26935181 98.10622223 23.56409424 98.11604309 24.89807129 C98.1157817 26.31746447 98.11484482 27.73685766 98.11328125 29.15625 C98.11716644 30.6059176 98.12150074 32.05558405 98.12626648 33.50524902 C98.13373394 36.54504078 98.13343341 39.58471641 98.12817383 42.62451172 C98.12237464 46.52553157 98.13931795 50.42607732 98.1625185 54.32701874 C98.17722838 57.3209716 98.1781314 60.31480952 98.17500877 63.30879211 C98.17552325 64.74734945 98.18078464 66.18591301 98.19082069 67.62443542 C98.20311497 69.63305053 98.19447764 71.64176114 98.18481445 73.65039062 C98.18544388 74.79463501 98.1860733 75.93887939 98.1867218 77.11779785 C98.06322861 78.00704956 97.93973541 78.89630127 97.8125 79.8125 C94.75920688 81.84802875 94.15361492 82.06398918 90.7202301 82.07992554 C89.8888855 82.08845551 89.05754089 82.09698547 88.20100403 82.10577393 C87.29235092 82.10486755 86.38369781 82.10396118 85.44750977 82.10302734 C84.48789337 82.10974457 83.52827698 82.11646179 82.5395813 82.12338257 C79.36097058 82.14241227 76.18257042 82.14628916 73.00390625 82.1484375 C70.7981711 82.15486152 68.59243682 82.16158957 66.38670349 82.16860962 C61.76063053 82.18059452 57.13463232 82.18428915 52.50854492 82.18310547 C46.5753596 82.18290211 40.64265236 82.21021665 34.70958042 82.24464989 C30.15343516 82.26686559 25.59740597 82.27094466 21.04121208 82.26988602 C18.85349821 82.27224954 16.6657815 82.28111508 14.4781208 82.29655075 C11.42069942 82.31610448 8.36432227 82.31041445 5.30688477 82.29833984 C4.40025589 82.30957886 3.49362701 82.32081787 2.55952454 82.33239746 C-3.5026878 82.27143135 -3.5026878 82.27143135 -6.7467804 80.09738159 C-8.43330094 77.42267672 -8.70160507 75.91609802 -8.73339844 72.76855469 C-8.75311707 71.76781921 -8.77283569 70.76708374 -8.79315186 69.73602295 C-8.79438049 68.66297913 -8.79560913 67.5899353 -8.796875 66.484375 C-8.81341125 65.38023254 -8.82994751 64.27609009 -8.84698486 63.13848877 C-8.89555626 59.61310311 -8.9168569 56.08814911 -8.9375 52.5625 C-8.9656519 50.17185318 -8.99557822 47.78122654 -9.02734375 45.390625 C-9.10131769 39.5313286 -9.15290665 33.67215406 -9.1875 27.8125 C-10.11949219 27.37292969 -11.05148438 26.93335938 -12.01171875 26.48046875 C-16.28595692 24.23557367 -19.20196647 21.58001566 -20.859375 16.92578125 C-21.7846302 12.21623227 -20.92188416 8.71736995 -18.55078125 4.578125 C-13.82655882 -1.54035219 -7.06378467 -2.63160605 0 0 Z " fill="#EBB755" transform="translate(157.1875,165.1875)"/>
<path d="M0 0 C6.6 0 13.2 0 20 0 C20 52.47 20 104.94 20 159 C41.32625 158.835 62.6525 158.67 84.625 158.5 C97.45962303 158.40728004 110.294229 158.31489306 123.12890625 158.23046875 C123.89527381 158.22541313 124.66164137 158.22035751 125.45123219 158.21514869 C152.33345068 158.03816898 179.21574501 157.86559166 206.09857178 157.82275391 C209.73405695 157.81689216 213.36948289 157.80645541 217.00494385 157.79199219 C221.18471835 157.77573226 225.36438648 157.7690572 229.54419136 157.77080345 C231.03524912 157.76996862 232.52630941 157.76584801 234.01734734 157.75811195 C236.00706552 157.74844371 237.99683624 157.75234121 239.98657227 157.75708008 C241.63484764 157.75494255 241.63484764 157.75494255 243.31642151 157.75276184 C246 158 246 158 249 160 C248.67 161.65 248.34 163.3 248 165 C85.97 165 -76.06 165 -243 165 C-243.33 163.35 -243.66 161.7 -244 160 C-241.52848531 157.52848531 -240.1320928 157.76122561 -236.75967503 157.74004364 C-235.6528583 157.74847668 -235.6528583 157.74847668 -234.52368164 157.75708008 C-233.34694209 157.75426655 -233.34694209 157.75426655 -232.14643002 157.75139618 C-229.48424508 157.74769094 -226.82231874 157.75861348 -224.16015625 157.76953125 C-222.23291035 157.77039194 -220.30566396 157.77046661 -218.37841797 157.76982117 C-213.05953045 157.77099414 -207.74075099 157.78557625 -202.42189407 157.80276489 C-197.93650167 157.815763 -193.45111136 157.82133459 -188.96570492 157.82720375 C-159.71628344 157.8681279 -130.46750127 158.03822824 -101.21875 158.23046875 C-100.12193688 158.23765187 -100.12193688 158.23765187 -99.00296593 158.2449801 C-66.0017114 158.46180123 -33.00093054 158.73834743 0 159 C0 106.53 0 54.06 0 0 Z " fill="#2C57B3" transform="translate(330,258)"/>
<path d="M0 0 C0.33 0 0.66 0 1 0 C1.12387657 6.01392146 1.21447072 12.02709548 1.2746582 18.04199219 C1.29975583 20.08672019 1.33384164 22.13135889 1.37719727 24.17578125 C1.43805815 27.12001611 1.4662573 30.06306196 1.48828125 33.0078125 C1.51408768 33.9174173 1.5398941 34.82702209 1.56648254 35.76419067 C1.56834711 40.01237269 1.43445428 43.06164863 -1.21801758 46.49951172 C-6.86326049 51.57354225 -12.13814404 51.28006162 -19.38989258 51.22705078 C-20.98170239 51.22741239 -20.98170239 51.22741239 -22.60566998 51.2277813 C-26.03537615 51.22629041 -29.46486404 51.21106769 -32.89453125 51.1953125 C-35.0141184 51.19237138 -37.133707 51.19033136 -39.2532959 51.18920898 C-47.10638611 51.1787297 -54.9594452 51.15080725 -62.8125 51.125 C-80.364375 51.08375 -97.91625 51.0425 -116 51 C-116 103.47 -116 155.94 -116 210 C-116.33 210 -116.66 210 -117 210 C-117 157.53 -117 105.06 -117 51 C-129.21 51 -141.42 51 -154 51 C-154 39.45 -154 27.9 -154 16 C-103.18 16 -52.36 16 0 16 C0 10.72 0 5.44 0 0 Z " fill="#5D8EFD" transform="translate(467,207)"/>
<path d="M0 0 C13.86317544 10.90499785 23.86696899 26.20963135 26.78125 43.74609375 C27.05678333 47.17932633 27.0919426 50.59610382 27.10009766 54.03930664 C27.11516609 55.51894394 27.11516609 55.51894394 27.13053894 57.0284729 C27.1611987 60.25855984 27.17835802 63.48856457 27.1953125 66.71875 C27.214038 68.97033894 27.23361243 71.22192096 27.2539978 73.47349548 C27.30517896 79.37690135 27.34487956 85.28032994 27.38214111 91.18383789 C27.42226884 97.21701614 27.47332109 103.25010104 27.5234375 109.28320312 C27.62003076 121.10410095 27.70448843 132.92505166 27.78125 144.74609375 C1.28663285 144.86285526 -25.20794578 144.95104685 -51.70276833 145.00515461 C-64.00456972 145.03094469 -76.30621132 145.06611083 -88.60791016 145.12329102 C-99.32910657 145.17310106 -110.05018727 145.20537891 -120.77149618 145.21653622 C-126.44927694 145.22305898 -132.12672665 145.23840646 -137.8044014 145.27474403 C-143.14779414 145.30866532 -148.49071925 145.31915438 -153.83420944 145.31163216 C-155.79580984 145.31300842 -157.75742577 145.32296377 -159.71893311 145.34212112 C-162.39739497 145.36699894 -165.07409129 145.36101855 -167.75259399 145.34736633 C-168.9170086 145.36921264 -168.9170086 145.36921264 -170.10494673 145.39150029 C-175.93192131 145.31121765 -178.29320673 143.75497108 -182.21875 139.74609375 C-183.43277608 137.3504774 -183.69437679 135.42039714 -184.21875 132.74609375 C-177.29548941 132.57793388 -170.37207371 132.41803118 -163.44848633 132.26391602 C-161.09232242 132.21048863 -158.73620087 132.15515871 -156.38012695 132.09790039 C-152.99700046 132.01601036 -149.61378154 131.94092409 -146.23046875 131.8671875 C-144.64597176 131.8266349 -144.64597176 131.8266349 -143.02946472 131.78526306 C-142.04867447 131.76516678 -141.06788422 131.7450705 -140.05737305 131.72436523 C-138.76164619 131.69438698 -138.76164619 131.69438698 -137.43974304 131.6638031 C-135.21875 131.74609375 -135.21875 131.74609375 -132.21875 132.74609375 C-130.15132798 132.83779229 -128.08100484 132.86803212 -126.0115509 132.86634827 C-124.06169533 132.86841026 -124.06169533 132.86841026 -122.07244873 132.87051392 C-120.62878395 132.86697475 -119.1851194 132.86333994 -117.74145508 132.85961914 C-116.22379051 132.85933712 -114.7061258 132.8594953 -113.1884613 132.86006165 C-109.06479161 132.86034903 -104.9411509 132.85446171 -100.81748796 132.84748769 C-96.50932349 132.84124446 -92.2011584 132.84064958 -87.89299011 132.83946228 C-79.73324473 132.83635183 -71.57351272 132.82814228 -63.41377324 132.81811279 C-54.12488586 132.80694278 -44.83599785 132.80143896 -35.54710543 132.79641736 C-16.43764604 132.78595945 2.67180091 132.76836553 21.78125 132.74609375 C21.74297299 122.06998 21.68329579 111.39421094 21.59734726 100.71836853 C21.55807463 95.75949914 21.52578809 90.80080196 21.51025391 85.84179688 C21.49495279 81.04344163 21.4602738 76.24556052 21.41294098 71.44741821 C21.39826441 69.6297318 21.39021701 67.81197764 21.38936615 65.99423218 C21.37012943 45.47752116 17.83790402 27.30503682 3.0859375 11.95703125 C-9.6048574 -0.21752792 -25.42271817 -6.82727828 -43.07861328 -6.67358398 C-59.3073594 -6.07373373 -73.99813868 0.69156857 -85.64453125 11.87890625 C-95.09119367 22.400682 -101.88860408 35.2928627 -102.53515625 49.609375 C-102.57705078 50.49560547 -102.61894531 51.38183594 -102.66210938 52.29492188 C-102.70142578 53.20693359 -102.74074219 54.11894531 -102.78125 55.05859375 C-102.84602539 56.45561523 -102.84602539 56.45561523 -102.91210938 57.88085938 C-103.01772225 60.16913829 -103.11982752 62.45751747 -103.21875 64.74609375 C-105.21829746 64.78863731 -107.21916636 64.78690158 -109.21875 64.74609375 C-110.93271955 63.0321242 -110.39093732 60.83587197 -110.40625 58.49609375 C-110.15929292 37.60352446 -103.13118535 20.40969247 -88.8125 5.25 C-64.32396202 -18.39029043 -27.17475559 -19.02892473 0 0 Z " fill="#7FA6FD" transform="translate(285.21875,113.25390625)"/>
<path d="M0 0 C1.67542976 0.28604898 3.34385343 0.61781233 5 1 C5.38218767 2.65614657 5.71395102 4.32457024 6 6 C5.67 6.33 5.34 6.66 5 7 C10.71210883 9.85605442 18.44549767 7.62343183 24.4140625 6.453125 C29.2669259 5.60277431 32.75107906 5.16738604 37 8 C37.34057617 9.87939453 37.34057617 9.87939453 37.29296875 12.1328125 C37.28330078 12.93847656 37.27363281 13.74414062 37.26367188 14.57421875 C37.23853516 15.41597656 37.21339844 16.25773437 37.1875 17.125 C37.17396484 17.97449219 37.16042969 18.82398437 37.14648438 19.69921875 C37.11108219 21.79974837 37.05727401 23.89995293 37 26 C35.99839844 25.97679688 34.99679687 25.95359375 33.96484375 25.9296875 C32.62240336 25.91091211 31.27995482 25.89271382 29.9375 25.875 C28.62652344 25.85179688 27.31554687 25.82859375 25.96484375 25.8046875 C22.05714959 25.83557832 22.05714959 25.83557832 18.69140625 27.0078125 C15.26332203 27.9292235 12.77837312 28.10330847 9.26928711 28.06201172 C8.28165878 28.05305878 7.29403046 28.04410583 6.276474 28.03488159 C5.52523758 28.02337067 4.77400116 28.01185974 4 28 C4.01485937 40.18720488 4.05638326 52.37399779 4.13209057 64.56098557 C4.16640271 70.21974758 4.19147715 75.8782384 4.19555664 81.53710938 C4.19983048 86.9968014 4.22821755 92.45588123 4.27343178 97.91538239 C4.28643602 99.99977301 4.29070416 102.0842368 4.28615379 104.16866302 C4.28126866 107.08544782 4.3072475 110.0004289 4.34057617 112.91699219 C4.32763771 114.21387466 4.32763771 114.21387466 4.31443787 115.53695679 C4.36882829 120.57773904 4.36882829 120.57773904 7.50190735 124.44268799 C8.32627792 124.95660095 9.1506485 125.47051392 10 126 C10.86605819 128.75417262 10.60392884 131.19316882 10 134 C8.5 136.5 8.5 136.5 6 138 C3.19082139 138.60443392 0.80242927 138.66040854 -2 138 C-4.99993115 135.45005852 -5.85480459 133.87117244 -6.5 130 C-5.8850867 126.31052021 -4.62288407 124.62288407 -2 122 C-1.34 122 -0.68 122 0 122 C0 108.47 0 94.94 0 81 C-11.22 81.33 -22.44 81.66 -34 82 C-35.98 78.37 -37.96 74.74 -40 71 C-51.84431324 53.52163506 -69.02301053 46.0238012 -89 42 C-89 41.67 -89 41.34 -89 41 C-94.28 40.67 -99.56 40.34 -105 40 C-105 39.67 -105 39.34 -105 39 C-71.34 39 -37.68 39 -3 39 C-3 29.1 -3 19.2 -3 9 C-2.67 8.01 -2.34 7.02 -2 6 C-1.835 5.13375 -1.67 4.2675 -1.5 3.375 C-1 1 -1 1 0 0 Z " fill="#6B99FE" transform="translate(340,59)"/>
<path d="M0 0 C1.57080364 0.00882023 3.14158045 0.02341352 4.71229553 0.0422821 C5.99516701 0.05187454 5.99516701 0.05187454 7.30395508 0.06166077 C10.14595576 0.08454063 12.98780877 0.11511863 15.82972717 0.14653015 C17.79648689 0.16574809 19.76324819 0.18480433 21.73001099 0.20370483 C25.85859283 0.24475902 29.98710568 0.2899944 34.11561584 0.33769226 C39.41654997 0.39828715 44.71750754 0.44518825 50.01860714 0.48852253 C54.08233893 0.52381948 58.14593682 0.56806695 62.20955086 0.61487389 C64.16441761 0.63597536 66.11932174 0.65386079 68.07424736 0.6685276 C70.80405814 0.69001375 73.53344 0.7239195 76.26307678 0.7610321 C77.07718018 0.76476334 77.89128357 0.76849457 78.73005676 0.77233887 C84.32406318 0.86742866 84.32406318 0.86742866 86.55238342 3.0957489 C86.79289246 5.8039093 86.79289246 5.8039093 86.7794342 9.28959656 C86.77928314 10.59079437 86.77913208 11.89199219 86.77897644 13.23262024 C86.76876235 14.65835217 86.75833035 16.08408255 86.74769592 17.5098114 C86.74396637 18.96426703 86.74111913 20.41872517 86.73912048 21.8731842 C86.73147942 25.70372946 86.711827 29.53412336 86.68971252 33.36460876 C86.6692642 37.27236381 86.66012095 41.18014329 86.65003967 45.0879364 C86.62858145 52.75727628 86.59443993 60.42649139 86.55238342 68.0957489 C82.37548385 68.0957489 80.7138039 65.77899274 77.86488342 63.0332489 C76.78088808 62.01303713 75.69625261 60.99350509 74.61097717 59.97465515 C74.08487854 59.47723816 73.55877991 58.97982117 73.01673889 58.46733093 C71.19106936 56.75732569 69.3191288 55.10716668 67.42738342 53.4707489 C63.54694117 50.1087791 59.74503945 46.66354429 55.94691467 43.20903015 C53.54249733 41.08702398 51.07227245 39.07853903 48.55238342 37.0957489 C49.84841754 34.26706033 51.2442794 32.1256468 53.37269592 29.8613739 C53.90765686 29.28774109 54.4426178 28.71410828 54.99378967 28.12309265 C55.82716858 27.2433075 55.82716858 27.2433075 56.67738342 26.3457489 C57.24070374 25.74375671 57.80402405 25.14176453 58.38441467 24.52153015 C59.76962488 23.04240739 61.16045633 21.56855249 62.55238342 20.0957489 C58.92402786 23.19496928 55.31157415 26.30642005 51.73988342 29.4707489 C50.73634827 30.33506531 50.73634827 30.33506531 49.71253967 31.21684265 C48.17390985 32.55514454 46.66353 33.92622115 45.17347717 35.31840515 C41.26302083 38.7882467 37.94854636 41.63418059 32.61488342 42.1582489 C25.76694835 41.55717623 21.28534945 36.66288839 16.55238342 32.0957489 C15.72093811 31.29524109 14.8894928 30.49473328 14.03285217 29.66996765 C11.84098405 27.50717904 9.69012875 25.31186371 7.55238342 23.0957489 C6.70675842 22.2501239 5.86113342 21.4044989 4.98988342 20.5332489 C4.18550842 19.7288739 3.38113342 18.9244989 2.55238342 18.0957489 C1.85500061 17.51438171 1.1576178 16.93301453 0.43910217 16.33403015 C-5.29059737 11.29704039 -5.29059737 11.29704039 -5.77183533 7.61528015 C-4.97538734 0.1381789 -4.97538734 0.1381789 0 0 Z " fill="#FBD78F" transform="translate(168.44761657714844,176.9042510986328)"/>
<path d="M0 0 C1.74192627 0.31517578 1.74192627 0.31517578 3.51904297 0.63671875 C4.19247742 0.76675293 4.86591187 0.89678711 5.55975342 1.03076172 C8.15109549 1.52683937 10.74698024 1.9929324 13.34423828 2.45703125 C18.60572581 3.40159361 23.86178673 4.37324829 29.11645508 5.35498047 C32.43270496 5.97295187 35.75048853 6.58220579 39.06835938 7.19140625 C41.18369333 7.58540326 43.29893134 7.97991577 45.4140625 8.375 C46.40257706 8.55526733 47.39109161 8.73553467 48.40956116 8.92126465 C49.32829514 9.09484497 50.24702911 9.26842529 51.19360352 9.44726562 C51.99822525 9.59667603 52.80284698 9.74608643 53.6318512 9.90002441 C55.91404564 10.48579001 57.78631967 11.33967 59.84765625 12.46875 C59.97648669 17.49435266 59.52724702 22.0732652 58.60546875 27.01171875 C58.47703583 27.70260086 58.34860291 28.39348297 58.21627808 29.1053009 C57.94530398 30.55377632 57.67118365 32.00166641 57.39404297 33.44897461 C56.9721302 35.65900553 56.56356115 37.87122122 56.15625 40.08398438 C55.89011589 41.49754536 55.62321535 42.91096231 55.35546875 44.32421875 C54.99412842 46.23690552 54.99412842 46.23690552 54.62548828 48.18823242 C53.97159927 50.94601855 53.26391374 53.0397348 51.84765625 55.46875 C45.29743331 55.78440936 39.19856931 54.58616767 32.78125 53.3515625 C31.05286644 53.02573685 31.05286644 53.02573685 29.28956604 52.69332886 C26.86083911 52.23399589 24.43270134 51.77153808 22.00512695 51.30615234 C18.29590849 50.59580913 14.58469079 49.89676497 10.87304688 49.19921875 C8.50898746 48.75066949 6.14505082 48.30147255 3.78125 47.8515625 C2.67486679 47.64314728 1.56848358 47.43473206 0.42857361 47.22000122 C-10.8215067 45.05185413 -10.8215067 45.05185413 -14.15234375 43.46875 C-15.70101605 39.26679158 -14.63975615 35.35894646 -13.82421875 31.08984375 C-13.59971039 29.87712547 -13.59971039 29.87712547 -13.3706665 28.63990784 C-13.05201946 26.93369234 -12.72897861 25.22829236 -12.40185547 23.52368164 C-11.90397993 20.91482354 -11.427799 18.30261958 -10.953125 15.68945312 C-10.64063186 14.03100283 -10.32687224 12.37279056 -10.01171875 10.71484375 C-9.8709491 9.93354599 -9.73017944 9.15224823 -9.58514404 8.34727478 C-9.01385253 5.44333018 -8.4497112 2.93945559 -6.8581543 0.42016602 C-4.33264645 -0.98843626 -2.8306053 -0.535734 0 0 Z " fill="#FBD78F" transform="translate(75.15234375,92.53125)"/>
<path d="M0 0 C0.33 0 0.66 0 1 0 C1 14.85 1 29.7 1 45 C51.82 45 102.64 45 155 45 C155 50.28 155 55.56 155 61 C104.18 61 53.36 61 1 61 C1 72.22 1 83.44 1 95 C0.67 95 0.34 95 0 95 C0 63.65 0 32.3 0 0 Z " fill="#6A98FE" transform="translate(312,162)"/>
<path d="M0 0 C-2.6362209 1.7574806 -4.5633397 2.60479658 -7.5 3.625 C-22.1369957 9.38591667 -32.98522668 21.21931449 -40 35 C-41.61615939 39.27560322 -42.89637185 43.56678184 -44 48 C-44.17273438 48.63252686 -44.34546875 49.26505371 -44.5234375 49.91674805 C-45.00328081 52.01434176 -45.20256034 53.96256649 -45.31640625 56.109375 C-45.37356812 57.1298291 -45.37356812 57.1298291 -45.43188477 58.17089844 C-45.49653931 59.44755371 -45.49653931 59.44755371 -45.5625 60.75 C-45.706875 63.4725 -45.85125 66.195 -46 69 C-55.9 69 -65.8 69 -76 69 C-76.33385864 57.39841235 -76.53523172 47.85481689 -72 37 C-71.63777344 36.12085938 -71.27554688 35.24171875 -70.90234375 34.3359375 C-63.4202901 17.95150815 -50.23423678 7.73850651 -34 1 C-23.54420929 -2.89325208 -10.52404827 -4.0890652 0 0 Z " fill="#1A4091" transform="translate(258,108)"/>
<path d="M0 0 C1.49391862 3.82774448 2.96741156 7.66304688 4.4375 11.5 C4.85837891 12.57765625 5.27925781 13.6553125 5.71289062 14.765625 C7.92726808 20.57615145 9.58511871 25.78432397 10 32 C4.5344896 34.83950194 -0.89816954 37.21196864 -6.69921875 39.26953125 C-7.49729446 39.55479172 -8.29537018 39.84005219 -9.11763 40.13395691 C-10.78974408 40.72907592 -12.46287112 41.32135592 -14.13696289 41.91088867 C-16.6956065 42.81536564 -19.24707297 43.73840486 -21.79882812 44.66210938 C-23.4318854 45.24073123 -25.06533593 45.81824466 -26.69921875 46.39453125 C-27.83685921 46.80998955 -27.83685921 46.80998955 -28.9974823 47.23384094 C-36.22652629 49.73705069 -36.22652629 49.73705069 -40 48 C-41.37792969 45.79443359 -41.37792969 45.79443359 -42.421875 42.8984375 C-42.80730469 41.85042969 -43.19273437 40.80242187 -43.58984375 39.72265625 C-43.97269531 38.61792969 -44.35554687 37.51320312 -44.75 36.375 C-45.14832031 35.29347656 -45.54664063 34.21195313 -45.95703125 33.09765625 C-47.89018483 27.73069767 -49.51061116 22.69322348 -50 17 C-45.63436195 14.11053261 -41.08426119 12.40418904 -36.19140625 10.64453125 C-35.34706528 10.33803146 -34.5027243 10.03153168 -33.63279724 9.71574402 C-31.85279524 9.07180723 -30.07176997 8.43069281 -28.28979492 7.79223633 C-25.57130568 6.8156633 -22.85890505 5.8233624 -20.14648438 4.83007812 C-18.41180747 4.20475979 -16.67679219 3.58037916 -14.94140625 2.95703125 C-13.73176964 2.51179863 -13.73176964 2.51179863 -12.49769592 2.05757141 C-8.17585628 0.52721947 -4.65762025 -0.35261711 0 0 Z " fill="#FBD78E" transform="translate(192,27)"/>
<path d="M0 0 C3.99675457 2.57568628 6.26474181 4.9585492 7.625 9.5625 C7.8125 12.8125 7.8125 12.8125 7.359375 14.9140625 C6.83334517 17.38300898 6.53136635 19.29507592 6.8125 21.8125 C9.06545786 24.99017937 11.84186373 27.32185882 14.8125 29.8125 C17.56227818 32.35191263 19.21268205 34.45928158 20.8125 37.8125 C21.9887248 39.41982981 23.1988747 41.00274962 24.4375 42.5625 C25.06914062 43.36171875 25.70078125 44.1609375 26.3515625 44.984375 C26.83367187 45.58765625 27.31578125 46.1909375 27.8125 46.8125 C22.63608407 52.99894831 17.26114572 58.75315076 11.125 64 C6.78204847 67.72009208 2.81087813 71.78324785 -1.15112305 75.90112305 C-2.46045212 77.24119456 -3.82029284 78.53153206 -5.1875 79.8125 C-5.8475 79.8125 -6.5075 79.8125 -7.1875 79.8125 C-8.40833085 77.3708383 -8.34480743 75.72559194 -8.39282227 72.99560547 C-8.41276749 71.99471893 -8.43271271 70.9938324 -8.45326233 69.96261597 C-8.46997482 68.87924957 -8.48668732 67.79588318 -8.50390625 66.6796875 C-8.52468735 65.57271515 -8.54546844 64.4657428 -8.56687927 63.32522583 C-8.63240991 59.77938201 -8.69127614 56.23346246 -8.75 52.6875 C-8.79318187 50.2877525 -8.83679605 47.88801273 -8.88085938 45.48828125 C-8.98809488 39.59643487 -9.08985472 33.70451269 -9.1875 27.8125 C-10.11949219 27.37292969 -11.05148438 26.93335938 -12.01171875 26.48046875 C-16.28595692 24.23557367 -19.20196647 21.58001566 -20.859375 16.92578125 C-21.7846302 12.21623227 -20.92188416 8.71736995 -18.55078125 4.578125 C-13.82655882 -1.54035219 -7.06378467 -2.63160605 0 0 Z " fill="#F6CA73" transform="translate(157.1875,165.1875)"/>
<path d="M0 0 C3.3 0 6.6 0 10 0 C10 52.47 10 104.94 10 159 C6.7 159 3.4 159 0 159 C0 106.53 0 54.06 0 0 Z " fill="#183A89" transform="translate(340,258)"/>
<path d="M0 0 C1.67542976 0.28604898 3.34385343 0.61781233 5 1 C5.38218767 2.65614657 5.71395102 4.32457024 6 6 C5.67 6.33 5.34 6.66 5 7 C10.71210883 9.85605442 18.44549767 7.62343183 24.4140625 6.453125 C29.2669259 5.60277431 32.75107906 5.16738604 37 8 C37.34057617 9.87939453 37.34057617 9.87939453 37.29296875 12.1328125 C37.28330078 12.93847656 37.27363281 13.74414062 37.26367188 14.57421875 C37.23853516 15.41597656 37.21339844 16.25773437 37.1875 17.125 C37.17396484 17.97449219 37.16042969 18.82398437 37.14648438 19.69921875 C37.11108219 21.79974837 37.05727401 23.89995293 37 26 C35.99839844 25.97679688 34.99679687 25.95359375 33.96484375 25.9296875 C32.62240336 25.91091211 31.27995482 25.89271382 29.9375 25.875 C28.62652344 25.85179688 27.31554687 25.82859375 25.96484375 25.8046875 C22.05714959 25.83557832 22.05714959 25.83557832 18.69140625 27.0078125 C15.26332203 27.9292235 12.77837312 28.10330847 9.26928711 28.06201172 C8.28165878 28.05305878 7.29403046 28.04410583 6.276474 28.03488159 C5.52523758 28.02337067 4.77400116 28.01185974 4 28 C4.01485937 40.18720488 4.05638326 52.37399779 4.13209057 64.56098557 C4.16640271 70.21974758 4.19147715 75.8782384 4.19555664 81.53710938 C4.19983048 86.9968014 4.22821755 92.45588123 4.27343178 97.91538239 C4.28643602 99.99977301 4.29070416 102.0842368 4.28615379 104.16866302 C4.28126866 107.08544782 4.3072475 110.0004289 4.34057617 112.91699219 C4.32763771 114.21387466 4.32763771 114.21387466 4.31443787 115.53695679 C4.36882829 120.57773904 4.36882829 120.57773904 7.50190735 124.44268799 C8.32627792 124.95660095 9.1506485 125.47051392 10 126 C10.86605819 128.75417262 10.60392884 131.19316882 10 134 C8.5 136.5 8.5 136.5 6 138 C3.19082139 138.60443392 0.80242927 138.66040854 -2 138 C-4.99993115 135.45005852 -5.85480459 133.87117244 -6.5 130 C-5.8850867 126.31052021 -4.62288407 124.62288407 -2 122 C-1.34 122 -0.68 122 0 122 C0 94.94 0 67.88 0 40 C-34.65 40 -69.3 40 -105 40 C-105 39.67 -105 39.34 -105 39 C-71.34 39 -37.68 39 -3 39 C-3 29.1 -3 19.2 -3 9 C-2.67 8.01 -2.34 7.02 -2 6 C-1.835 5.13375 -1.67 4.2675 -1.5 3.375 C-1 1 -1 1 0 0 Z " fill="#3963C1" transform="translate(340,59)"/>
<path d="M0 0 C1.87109375 0.7421875 1.87109375 0.7421875 2.87109375 1.7421875 C2.96518854 3.76712981 2.98852497 5.7953862 2.98461914 7.82250977 C2.98454361 9.12378311 2.98446808 10.42505646 2.98439026 11.76576233 C2.97928284 13.19670652 2.97406683 14.62765032 2.96875 16.05859375 C2.96688578 17.5144801 2.9654619 18.97036707 2.96446228 20.42625427 C2.9606374 24.26498129 2.95080739 28.10367069 2.9397583 31.94238281 C2.92954353 35.85676566 2.92496452 39.77115456 2.91992188 43.68554688 C2.90918509 51.37111093 2.89210904 59.05664395 2.87109375 66.7421875 C-1.30580583 66.7421875 -2.96748578 64.42543133 -5.81640625 61.6796875 C-6.90040159 60.65947573 -7.98503707 59.63994368 -9.0703125 58.62109375 C-9.59641113 58.12367676 -10.12250977 57.62625977 -10.66455078 57.11376953 C-12.49022031 55.40376429 -14.36216087 53.75360528 -16.25390625 52.1171875 C-20.1343485 48.7552177 -23.93625022 45.30998289 -27.734375 41.85546875 C-30.13879234 39.73346258 -32.60901722 37.72497762 -35.12890625 35.7421875 C-33.17392074 30.73791642 -29.03938545 27.23057761 -25.38476562 23.43164062 C-24.85560547 22.87283203 -24.32644531 22.31402344 -23.78125 21.73828125 C-23.0540979 20.98309204 -23.0540979 20.98309204 -22.31225586 20.21264648 C-20.89795429 18.63002247 -20.89795429 18.63002247 -20.12890625 15.7421875 C-18.47333596 14.26420433 -16.75444039 12.85636397 -15.00390625 11.4921875 C-10.84448229 8.20133327 -7.14087977 4.8608271 -3.6640625 0.859375 C-2.12890625 -0.2578125 -2.12890625 -0.2578125 0 0 Z " fill="#F6CA73" transform="translate(252.12890625,178.2578125)"/>
<path d="M0 0 C3.51973101 3.25901019 6.52760275 6.8860931 9 11 C9 11.66 9 12.32 9 13 C14.15452299 14.42193738 16.68995831 14.62241158 21.609375 12.28515625 C24.10838617 10.85788996 26.53298243 9.32917015 28.9609375 7.78515625 C32 6 32 6 35 6 C32.03 8.31 29.06 10.62 26 13 C27.53626789 16.07253578 28.86419311 18.28412648 30.93359375 20.93359375 C31.50013672 21.66513672 32.06667969 22.39667969 32.65039062 23.15039062 C33.24013672 23.90513672 33.82988281 24.65988281 34.4375 25.4375 C41.49264706 34.47957516 41.49264706 34.47957516 44 39 C36.43968938 38.44025591 29.08138149 37.42070791 21.63671875 36.00390625 C20.08329521 35.71349709 20.08329521 35.71349709 18.49848938 35.41722107 C16.32917178 35.01037617 14.16032578 34.60100909 11.99194336 34.18920898 C8.68016394 33.56110867 5.3666111 32.94310008 2.05273438 32.32617188 C-0.06521668 31.92768085 -2.1830592 31.52861249 -4.30078125 31.12890625 C-5.28524734 30.94550186 -6.26971344 30.76209747 -7.28401184 30.57313538 C-11.99382082 29.67292187 -16.49003562 28.67712677 -21 27 C-18.28145829 24.12860855 -15.56038468 21.89768249 -12.234375 19.765625 C-11.34492187 19.19199219 -10.45546875 18.61835937 -9.5390625 18.02734375 C-8.61867188 17.44082031 -7.69828125 16.85429688 -6.75 16.25 C-5.81414062 15.64800781 -4.87828125 15.04601562 -3.9140625 14.42578125 C-1.61221002 12.94601894 0.69250804 11.47094667 3 10 C2.33758211 6.44920141 1.42518229 3.32542534 0 0 Z " fill="#EDB854" transform="translate(82,109)"/>
<path d="M0 0 C4.01472836 2.58726939 6.20148897 5.02020098 7.75 9.5625 C7.84845714 14.6822714 6.69721439 19.33661743 3.5546875 23.46484375 C-0.42645066 27.21755595 -3.93739992 27.8125 -9.1875 27.8125 C-14.34058061 26.09480646 -17.21191909 23.31837967 -20.1875 18.8125 C-21.75716632 14.40465794 -21.52679253 10.84622025 -19.6875 6.5625 C-15.39360905 -0.93336462 -8.0423832 -2.99618198 0 0 Z " fill="#DB4646" transform="translate(157.1875,165.1875)"/>
<path d="M0 0 C0.99 0.33 1.98 0.66 3 1 C3.12883044 6.02560266 2.67959077 10.6045152 1.7578125 15.54296875 C1.56516312 16.57929192 1.56516312 16.57929192 1.36862183 17.6365509 C1.09764773 19.08502632 0.8235274 20.53291641 0.54638672 21.98022461 C0.12447395 24.19025553 -0.2840951 26.40247122 -0.69140625 28.61523438 C-0.95754036 30.02879536 -1.2244409 31.44221231 -1.4921875 32.85546875 C-1.73308105 34.13059326 -1.97397461 35.40571777 -2.22216797 36.71948242 C-2.87605698 39.47726855 -3.58374251 41.5709848 -5 44 C-8.90869035 40.25446732 -12.26156562 36.28526293 -15.5625 32 C-16.50112856 30.79153187 -17.43992768 29.5831962 -18.37890625 28.375 C-18.82121582 27.80394531 -19.26352539 27.23289063 -19.71923828 26.64453125 C-21.45777938 24.4121994 -23.22586803 22.20409808 -25 20 C-23.67734741 16.03204224 -21.09813251 14.44909377 -17.75390625 12.24609375 C-15.97315611 11.06199921 -15.97315611 11.06199921 -14.58984375 9.5390625 C-12.58288737 7.59621038 -10.41214071 6.34099259 -8 4.9375 C-5.2787232 3.34603901 -2.62443649 1.74962433 0 0 Z " fill="#F7CB74" transform="translate(132,104)"/>
<path d="M0 0 C0.34057617 1.87939453 0.34057617 1.87939453 0.29296875 4.1328125 C0.2784668 5.34130859 0.2784668 5.34130859 0.26367188 6.57421875 C0.23853516 7.41597656 0.21339844 8.25773437 0.1875 9.125 C0.16719727 10.39923828 0.16719727 10.39923828 0.14648438 11.69921875 C0.11108219 13.79974837 0.05727401 15.89995293 0 18 C-1.00160156 17.97679688 -2.00320313 17.95359375 -3.03515625 17.9296875 C-4.37759664 17.91091211 -5.72004518 17.89271382 -7.0625 17.875 C-8.37347656 17.85179688 -9.68445313 17.82859375 -11.03515625 17.8046875 C-15.01465362 18.00072185 -18.19786445 18.87344132 -22 20 C-25.6959877 20.23362754 -29.2901983 20.09160004 -33 20 C-33 13.4 -33 6.8 -33 0 C-30.3703125 0.061875 -30.3703125 0.061875 -27.6875 0.125 C-22.42347122 0.13741516 -17.62537204 -0.5075006 -12.48046875 -1.546875 C-7.67230445 -2.42521683 -4.20971361 -2.80647574 0 0 Z " fill="#DB4545" transform="translate(377,67)"/>
<path d="M0 0 C1 3 1 3 0.0625 5.1875 C-0.288125 5.785625 -0.63875 6.38375 -1 7 C-0.41734375 7.14695312 0.1653125 7.29390625 0.765625 7.4453125 C7.99705549 9.42372273 14.39156215 12.4913964 21 16 C18.90676988 18.09323012 17.71217048 18.62770696 14.98095703 19.61987305 C14.15314728 19.92326096 13.32533752 20.22664886 12.47244263 20.53923035 C11.57661469 20.86015152 10.68078674 21.18107269 9.7578125 21.51171875 C8.8378952 21.8442012 7.91797791 22.17668365 6.97018433 22.51924133 C5.02270302 23.2206569 3.07411135 23.91899601 1.12451172 24.61450195 C-1.86025547 25.68222552 -4.83831682 26.76732805 -7.81640625 27.85351562 C-9.70794793 28.53232492 -11.59986322 29.21009421 -13.4921875 29.88671875 C-14.38396698 30.21371262 -15.27574646 30.54070648 -16.19454956 30.87760925 C-17.02866364 31.17154068 -17.86277771 31.46547211 -18.72216797 31.76831055 C-19.4533786 32.03097214 -20.18458923 32.29363373 -20.93795776 32.56425476 C-23.29535137 33.06241286 -24.7357887 32.75399931 -27 32 C-26.72212646 31.48091064 -26.44425293 30.96182129 -26.15795898 30.42700195 C-24.90304729 28.06300041 -23.67020191 25.68815287 -22.4375 23.3125 C-21.99986328 22.49587891 -21.56222656 21.67925781 -21.11132812 20.83789062 C-20.70205078 20.04189453 -20.29277344 19.24589844 -19.87109375 18.42578125 C-19.48880615 17.69786377 -19.10651855 16.96994629 -18.71264648 16.2199707 C-17.83075065 13.47277002 -18.23829699 11.74508483 -19 9 C-18.154375 9.350625 -17.30875 9.70125 -16.4375 10.0625 C-12.21039567 11.21534664 -10.16113061 11.48611807 -6 10 C-3.58187516 6.86972411 -1.75317364 3.53845669 0 0 Z " fill="#EDB954" transform="translate(180,43)"/>
<path d="M0 0 C0.99 0.33 1.98 0.66 3 1 C3.68795233 2.65799391 4.35099547 4.32637658 5 6 C6.98035923 8.5918812 9.09042046 11.03231301 11.22265625 13.5 C13.10100518 16.14207322 13.49757158 17.85075792 14 21 C14.66 21.99 15.32 22.98 16 24 C15.90942383 25.97167969 15.90942383 25.97167969 15 28 C13.0222168 29.73925781 13.0222168 29.73925781 10.44921875 31.453125 C9.05993164 32.38125 9.05993164 32.38125 7.64257812 33.328125 C6.66740234 33.96234375 5.69222656 34.5965625 4.6875 35.25 C3.24213867 36.22453125 3.24213867 36.22453125 1.76757812 37.21875 C-5.4796317 42 -5.4796317 42 -10 42 C-9.20862962 37.56244711 -8.41684884 33.12496754 -7.625 28.6875 C-7.40328125 27.44419922 -7.1815625 26.20089844 -6.953125 24.91992188 C-6.51283535 22.45300489 -6.06918711 19.98668483 -5.62207031 17.52099609 C-5.22301809 15.26231039 -4.84541294 12.99966922 -4.49511719 10.73291016 C-4.26163574 9.2660376 -4.26163574 9.2660376 -4.0234375 7.76953125 C-3.83273682 6.48912964 -3.83273682 6.48912964 -3.63818359 5.18286133 C-2.91078994 2.69486336 -1.96546581 1.64501669 0 0 Z " fill="#F7CB73" transform="translate(70,92)"/>
<path d="M0 0 C0.3125 3.1875 0.3125 3.1875 0 7 C-1.6459651 8.68711423 -3.31237149 10.3545622 -5 12 C-5.55014903 15.3696628 -5.3181446 17.24440659 -4 20.375 C-1.2897489 22.57707902 0.70878117 22.51582761 4.125 22.30859375 C6.08446197 22.08111205 6.08446197 22.08111205 8 21 C9.62802196 17.74395607 9.79907028 14.49593248 9 11 C7.35360035 9.64172029 5.68704193 8.30745749 4 7 C3.6875 3.25 3.6875 3.25 4 0 C7.24216051 0 9.36692054 0.49559523 11.921875 2.53125 C15.88773004 6.66098334 18.00423892 10.11085246 18.203125 15.8984375 C17.64447806 21.67828467 14.21384942 25.31288176 10 29 C5.33773547 30.55408818 0.85851637 30.72505056 -4 30 C-8.27574629 27.67671838 -11.19231099 24.52342646 -13 20 C-13.69671833 15.09056616 -13.53659091 11.11445804 -11.375 6.625 C-8.06518526 2.96678371 -5.09669864 0 0 0 Z " fill="#4A7CEB" transform="translate(340,174)"/>
<path d="M0 0 C0.99 0 1.98 0 3 0 C4.49391862 3.82774448 5.96741156 7.66304688 7.4375 11.5 C8.06881836 13.11648437 8.06881836 13.11648437 8.71289062 14.765625 C10.92726808 20.57615145 12.58511871 25.78432397 13 32 C9.9969336 31.32700205 7.28313957 30.35701211 4.453125 29.15234375 C3.60878906 28.79462891 2.76445312 28.43691406 1.89453125 28.06835938 C1.02183594 27.69517578 0.14914063 27.32199219 -0.75 26.9375 C-1.63816406 26.56044922 -2.52632812 26.18339844 -3.44140625 25.79492188 C-5.62873255 24.86589619 -7.81486803 23.93417248 -10 23 C-8.14727216 14.5614699 -5.32160037 6.93017503 0 0 Z " fill="#F7CB73" transform="translate(189,27)"/>
<path d="M0 0 C0.33 0 0.66 0 1 0 C1 26.73 1 53.46 1 81 C1.66 81 2.32 81 3 81 C3 54.27 3 27.54 3 0 C3.33 0 3.66 0 4 0 C4.00142502 1.00589172 4.00285004 2.01178345 4.00431824 3.04815674 C4.02098237 12.52432931 4.06373785 22.00007213 4.13209057 31.476017 C4.16639249 36.34784358 4.19147551 41.21935552 4.19555664 46.09130859 C4.19983275 50.79243244 4.22823798 55.49284612 4.27343178 60.19374847 C4.28642885 61.98786026 4.29070665 63.78205694 4.28615379 65.57621002 C4.28126327 68.08837208 4.30726818 70.59844608 4.34057617 73.11035156 C4.33195053 73.85338028 4.32332489 74.596409 4.31443787 75.36195374 C4.31275345 77.70433794 4.31275345 77.70433794 5 81 C7.38240863 83.39595978 7.38240863 83.39595978 10 85 C10.86605819 87.75417262 10.60392884 90.19316882 10 93 C8.5 95.5 8.5 95.5 6 97 C3.19082139 97.60443392 0.80242927 97.66040854 -2 97 C-4.99993115 94.45005852 -5.85480459 92.87117244 -6.5 89 C-5.8850867 85.31052021 -4.62288407 83.62288407 -2 81 C-1.34 81 -0.68 81 0 81 C0 54.27 0 27.54 0 0 Z " fill="#325DBA" transform="translate(340,100)"/>
<path d="M0 0 C0.89102417 -0.00945648 1.78204834 -0.01891296 2.70007324 -0.02865601 C3.65949829 -0.02258331 4.61892334 -0.01651062 5.60742188 -0.01025391 C6.59488403 -0.01312408 7.58234619 -0.01599426 8.59973145 -0.01895142 C10.68774997 -0.02099316 12.77578758 -0.01545565 14.86376953 -0.00292969 C18.06391071 0.01312209 21.26278884 -0.002775 24.46289062 -0.02197266 C26.49023717 -0.01999024 28.51758293 -0.01614661 30.54492188 -0.01025391 C31.98405945 -0.01936295 31.98405945 -0.01936295 33.45227051 -0.02865601 C34.78880676 -0.01447128 34.78880676 -0.01447128 36.15234375 0 C37.32790833 0.00358017 37.32790833 0.00358017 38.52722168 0.00723267 C40.57617188 0.38818359 40.57617188 0.38818359 42.41516113 1.66244507 C42.79829468 2.23193878 43.18142822 2.8014325 43.57617188 3.38818359 C43.24617188 4.70818359 42.91617188 6.02818359 42.57617188 7.38818359 C26.40617187 7.38818359 10.23617187 7.38818359 -6.42382812 7.38818359 C-6.75382812 6.06818359 -7.08382813 4.74818359 -7.42382812 3.38818359 C-5.37464447 0.34225554 -3.5457703 0.01079861 0 0 Z " fill="#2B56B4" transform="translate(26.423828125,415.61181640625)"/>
<path d="M0 0 C0.69867188 0.28101563 1.39734375 0.56203125 2.1171875 0.8515625 C4.07507469 1.63153382 6.03892037 2.39667869 8.0078125 3.1484375 C9.03648437 3.55320313 10.06515625 3.95796875 11.125 4.375 C12.15882813 4.77460937 13.19265625 5.17421875 14.2578125 5.5859375 C17.19584712 7.10099239 18.52875294 8.04676685 20 11 C19.87365555 15.80951189 17.10610898 20.12135415 14.9375 24.3125 C14.37192383 25.42334961 14.37192383 25.42334961 13.79492188 26.55664062 C12.86871843 28.37387522 11.93509371 30.18732404 11 32 C10.34 32 9.68 32 9 32 C7.5089237 28.1503366 6.03430528 24.29456787 4.5625 20.4375 C4.14162109 19.35146484 3.72074219 18.26542969 3.28710938 17.14648438 C-0.68927817 6.68063234 -0.68927817 6.68063234 -1 1 C-0.67 0.67 -0.34 0.34 0 0 Z " fill="#F7CB73" transform="translate(143,43)"/>
<path d="M0 0 C0.66 0.33 1.32 0.66 2 1 C2.4140625 3.28515625 2.4140625 3.28515625 2.625 6.0625 C2.69976562 6.98160156 2.77453125 7.90070313 2.8515625 8.84765625 C2.90054688 9.55792969 2.94953125 10.26820312 3 11 C1.99839844 10.97679688 0.99679687 10.95359375 -0.03515625 10.9296875 C-1.37759664 10.91091211 -2.72004518 10.89271382 -4.0625 10.875 C-5.37347656 10.85179688 -6.68445313 10.82859375 -8.03515625 10.8046875 C-12.01465362 11.00072185 -15.19786445 11.87344132 -19 13 C-22.08984375 13.1953125 -22.08984375 13.1953125 -24.9375 13.125 C-25.89527344 13.10695313 -26.85304688 13.08890625 -27.83984375 13.0703125 C-28.55269531 13.04710938 -29.26554687 13.02390625 -30 13 C-30 9.7 -30 6.4 -30 3 C-27.6178125 3.37125 -27.6178125 3.37125 -25.1875 3.75 C-19.53162201 4.29523245 -15.76049743 3.0795763 -10.5859375 0.9296875 C-6.84126783 -0.41658347 -3.94240801 -0.35840073 0 0 Z " fill="#BF3131" transform="translate(374,74)"/>
<path d="M0 0 C3.97666901 1.13619114 6.505195 2.92881313 9.046875 6.2265625 C10.78932147 9.46865552 10.76305795 12.45319358 10 16 C8.27876957 19.44246086 7.00205044 21.40418623 3.6875 23.375 C-0.29142949 24.30033244 -3.98928714 25.15225782 -7.7109375 23.01953125 C-12.05557435 19.57561179 -13.690621 17.04963586 -14.5 11.6875 C-13.90619626 7.30819741 -12.53299271 5.53664567 -9.703125 2.28515625 C-8 1 -8 1 -4 1 C-4 1.99 -4 2.98 -4 4 C-4.825 4.763125 -5.65 5.52625 -6.5 6.3125 C-9.25367694 8.7749103 -9.25367694 8.7749103 -9.5 12.0625 C-8.92904589 15.41685537 -8.65656032 16.84154474 -6 19 C-2.44238446 19.65964122 0.73916234 19.63041883 4 18 C5.62932453 14.74135094 5.79471282 11.49815552 5 8 C2.58119071 5.73122465 2.58119071 5.73122465 0 4 C0 2.68 0 1.36 0 0 Z " fill="#ECF1FA" transform="translate(344,177)"/>
<path d="M0 0 C1.19496094 -0.00386719 1.19496094 -0.00386719 2.4140625 -0.0078125 C3.24679687 -0.00007813 4.07953125 0.00765625 4.9375 0.015625 C5.77023437 0.00789063 6.60296875 0.00015625 7.4609375 -0.0078125 C8.25757813 -0.00523437 9.05421875 -0.00265625 9.875 0 C10.60589844 0.00225586 11.33679688 0.00451172 12.08984375 0.00683594 C13.9375 0.265625 13.9375 0.265625 15.9375 2.265625 C15.6075 3.915625 15.2775 5.565625 14.9375 7.265625 C8.3375 7.265625 1.7375 7.265625 -5.0625 7.265625 C-5.3925 5.615625 -5.7225 3.965625 -6.0625 2.265625 C-3.69681778 -0.10005722 -3.21017774 0.00990796 0 0 Z " fill="#2B56B4" transform="translate(604.0625,415.734375)"/>
<path d="M0 0 C14.19 0 28.38 0 43 0 C43.495 1.485 43.495 1.485 44 3 C29.48 3 14.96 3 0 3 C0 2.01 0 1.02 0 0 Z " fill="#A3BFFE" transform="translate(344,106)"/>
<path d="M0 0 C12.54 0 25.08 0 38 0 C38 0.99 38 1.98 38 3 C25.13 3 12.26 3 -1 3 C-0.67 2.01 -0.34 1.02 0 0 Z " fill="#A2BEFE" transform="translate(302,106)"/>
<path d="M0 0 C32.67 0 65.34 0 99 0 C99 0.33 99 0.66 99 1 C66.33 1 33.66 1 0 1 C0 0.67 0 0.34 0 0 Z " fill="#2B56B3" transform="translate(89,414)"/>
<path d="M0 0 C0.33 0.66 0.66 1.32 1 2 C27.73 2 54.46 2 82 2 C82 2.33 82 2.66 82 3 C54.61 3 27.22 3 -1 3 C-0.67 2.01 -0.34 1.02 0 0 Z " fill="#305AB5" transform="translate(494,412)"/>
<path d="M0 0 C3.3 0 6.6 0 10 0 C10 0.33 10 0.66 10 1 C7.03 1 4.06 1 1 1 C1 3.97 1 6.94 1 10 C22.12 10 43.24 10 65 10 C65 10.33 65 10.66 65 11 C43.55 11 22.1 11 0 11 C0 7.37 0 3.74 0 0 Z " fill="#6B84DE" transform="translate(345,88)"/>
<path d="M0 0 C2.97 0 5.94 0 9 0 C9.66 1.32 10.32 2.64 11 4 C10.06434658 6.64564072 8.54985485 8.62963376 7 11 C4.6875 10.875 4.6875 10.875 2 10 C0.125 7.1875 0.125 7.1875 -1 4 C-0.67 2.68 -0.34 1.36 0 0 Z M2 3 C2.66 4.65 3.32 6.3 4 8 C5.35432675 6.68799596 6.68733482 5.35368596 8 4 C8 3.67 8 3.34 8 3 C6.02 3 4.04 3 2 3 Z " fill="#DE4747" transform="translate(248,65)"/>
<path d="M0 0 C3.04358554 1.5608131 5.97948613 3.19373073 8 6 C7.67 7.32 7.34 8.64 7 10 C4.03 10.66 1.06 11.32 -2 12 C-4 9 -4 9 -3.828125 6.9921875 C-3.63734375 6.29351562 -3.4465625 5.59484375 -3.25 4.875 C-3.06953125 4.17117188 -2.8890625 3.46734375 -2.703125 2.7421875 C-2 1 -2 1 0 0 Z M0 4 C-0.33 5.65 -0.66 7.3 -1 9 C0.98 8.67 2.96 8.34 5 8 C3.63676257 5.9600281 3.63676257 5.9600281 2 4 C1.34 4 0.68 4 0 4 Z " fill="#DE4646" transform="translate(95,344)"/>
<path d="M0 0 C2.375 0.875 2.375 0.875 4.375 3.875 C4.1875 6.4375 4.1875 6.4375 3.375 8.875 C0.375 10.875 0.375 10.875 -2.1875 10.625 C-4.625 9.875 -4.625 9.875 -6.625 7.875 C-7 5.4375 -7 5.4375 -6.625 2.875 C-4.39928105 0.40197895 -3.34204055 -0.15914479 0 0 Z M-2.625 2.875 C-2.955 4.195 -3.285 5.515 -3.625 6.875 C-2.305 7.205 -0.985 7.535 0.375 7.875 C0.705 6.555 1.035 5.235 1.375 3.875 C0.055 3.545 -1.265 3.215 -2.625 2.875 Z " fill="#193C8B" transform="translate(92.625,187.125)"/>
<path d="M0 0 C2.4375 0.8125 2.4375 0.8125 4.4375 3.8125 C4.1133631 7.13490324 3.82973697 8.42026303 1.4375 10.8125 C-1.39636167 11.1758156 -2.96772151 11.1693671 -5.4375 9.6875 C-6.5625 7.8125 -6.5625 7.8125 -6.4375 4.75 C-5.31063606 0.96695678 -4.03725591 -0.29540897 0 0 Z M-2.5625 2.8125 C-2.8925 4.4625 -3.2225 6.1125 -3.5625 7.8125 C-1.9125 7.4825 -0.2625 7.1525 1.4375 6.8125 C1.1075 5.4925 0.7775 4.1725 0.4375 2.8125 C-0.5525 2.8125 -1.5425 2.8125 -2.5625 2.8125 Z " fill="#193C8C" transform="translate(560.5625,346.1875)"/>
<path d="M0 0 C3.14330223 0.3492558 4.79491452 0.83925733 7.3125 2.8125 C9 5 9 5 9 9 C7.5225254 9.36116046 6.04295325 9.71375048 4.5625 10.0625 C3.73878906 10.25972656 2.91507813 10.45695312 2.06640625 10.66015625 C1.38449219 10.77230469 0.70257813 10.88445312 0 11 C-1 10 -1 10 -1.125 6.625 C-1 3 -1 3 0 0 Z M2 3 C1.67 4.65 1.34 6.3 1 8 C2.65 7.67 4.3 7.34 6 7 C4.68 5.68 3.36 4.36 2 3 Z " fill="#DF4E4F" transform="translate(511,257)"/>
<path d="M0 0 C2.3125 1.5625 2.3125 1.5625 3.3125 4.5 C3.3125 7.5625 3.3125 7.5625 2.1875 9.4375 C-0.34522193 10.95713316 -1.7835365 11.07069361 -4.6875 10.5625 C-6.5625 8.8125 -6.5625 8.8125 -7.6875 6.5625 C-7.60143807 3.72245638 -6.87611183 2.7645841 -4.9375 0.6875 C-2.6875 -0.4375 -2.6875 -0.4375 0 0 Z M-4.6875 3.5625 C-4.3575 4.8825 -4.0275 6.2025 -3.6875 7.5625 C-2.3675 7.5625 -1.0475 7.5625 0.3125 7.5625 C-0.0175 5.9125 -0.3475 4.2625 -0.6875 2.5625 C-2.7620356 2.4134288 -2.7620356 2.4134288 -4.6875 3.5625 Z " fill="#193C8C" transform="translate(421.6875,54.4375)"/>
<path d="M0 0 C0.7425 0.185625 1.485 0.37125 2.25 0.5625 C4.94990963 0.99203108 6.44631077 0.85122974 9 0 C8.814375 0.7425 8.62875 1.485 8.4375 2.25 C8.00796892 4.94990963 8.14877026 6.44631077 9 9 C8.2575 8.814375 7.515 8.62875 6.75 8.4375 C4.05009037 8.00796892 2.55368923 8.14877026 0 9 C0.185625 8.2575 0.37125 7.515 0.5625 6.75 C0.99203108 4.05009037 0.85122974 2.55368923 0 0 Z " fill="#FEBB6C" transform="translate(542,184)"/>
<path d="M0 0 C0.99 0 1.98 0 3 0 C3 16.17 3 32.34 3 49 C2.67 49 2.34 49 2 49 C2 33.16 2 17.32 2 1 C1.34 0.67 0.68 0.34 0 0 Z " fill="#F5C471" transform="translate(145,193)"/>
<path d="M0 0 C14.85 0 29.7 0 45 0 C45 0.33 45 0.66 45 1 C30.15 1 15.3 1 0 1 C0 0.67 0 0.34 0 0 Z " fill="#2B56B2" transform="translate(22,414)"/>
<path d="M0 0 C2.31 0.33 4.62 0.66 7 1 C7 3.31 7 5.62 7 8 C6.401875 7.814375 5.80375 7.62875 5.1875 7.4375 C2.83591238 6.77906313 2.83591238 6.77906313 0 8 C0 5.36 0 2.72 0 0 Z " fill="#FABA74" transform="translate(164,307)"/>
<path d="M0 0 C4.29 0 8.58 0 13 0 C13 0.99 13 1.98 13 3 C8.71 3 4.42 3 0 3 C0 2.01 0 1.02 0 0 Z " fill="#9FBCFF" transform="translate(393,106)"/>
<path d="M0 0 C0.33 0 0.66 0 1 0 C1 11.22 1 22.44 1 34 C0.67 34 0.34 34 0 34 C0 22.78 0 11.56 0 0 Z " fill="#6C9AFF" transform="translate(470,159)"/>
<path d="M0 0 C0.598125 0.309375 1.19625 0.61875 1.8125 0.9375 C4.08956772 2.10209704 4.08956772 2.10209704 7 3 C7 4.32 7 5.64 7 7 C4.69 7.66 2.38 8.32 0 9 C-0.33 8.34 -0.66 7.68 -1 7 C0.32 6.34 1.64 5.68 3 5 C2.01 3.35 1.02 1.7 0 0 Z " fill="#DC4545" transform="translate(513,259)"/>
<path d="M0 0 C0.33 0 0.66 0 1 0 C1 7.92 1 15.84 1 24 C0.67 24 0.34 24 0 24 C0 16.08 0 8.16 0 0 Z " fill="#D5E3FE" transform="translate(521,306)"/>
<path d="M0 0 C0.33 0 0.66 0 1 0 C1 6.6 1 13.2 1 20 C0.67 20 0.34 20 0 20 C0 13.4 0 6.8 0 0 Z " fill="#D5E3FE" transform="translate(159,308)"/>
<path d="M0 0 C0.33 0 0.66 0 1 0 C1 3.3 1 6.6 1 10 C-1.64 10 -4.28 10 -7 10 C-6.67 9.34 -6.34 8.68 -6 8 C-3.03 8.495 -3.03 8.495 0 9 C0 6.03 0 3.06 0 0 Z " fill="#B8B0BF" transform="translate(173,166)"/>
<path d="M0 0 C5.28 0 10.56 0 16 0 C16 0.33 16 0.66 16 1 C10.72 1 5.44 1 0 1 C0 0.67 0 0.34 0 0 Z " fill="#2B56B2" transform="translate(601,414)"/>
<path d="M0 0 C0.33 0 0.66 0 1 0 C1 3.3 1 6.6 1 10 C0.67 10 0.34 10 0 10 C0 6.7 0 3.4 0 0 Z " fill="#D5E3FF" transform="translate(160,330)"/>
<path d="M0 0 C0.33 0 0.66 0 1 0 C1 2.97 1 5.94 1 9 C0.67 9 0.34 9 0 9 C0 6.03 0 3.06 0 0 Z " fill="#D5E3FE" transform="translate(160,297)"/>
<path d="M0 0 C0.33 0 0.66 0 1 0 C1 2.64 1 5.28 1 8 C0.67 8 0.34 8 0 8 C0 5.36 0 2.72 0 0 Z " fill="#D5E3FE" transform="translate(520,333)"/>
<path d="M0 0 C0.99 0 1.98 0 3 0 C3 0.99 3 1.98 3 3 C2.01 3 1.02 3 0 3 C0 2.01 0 1.02 0 0 Z " fill="#183B89" transform="translate(90,191)"/>
<path d="M0 0 C2.64 0 5.28 0 8 0 C8 0.33 8 0.66 8 1 C5.36 1 2.72 1 0 1 C0 0.67 0 0.34 0 0 Z " fill="#DB4545" transform="translate(347,66)"/>
<path d="M0 0 C2.64 0 5.28 0 8 0 C8 0.33 8 0.66 8 1 C5.36 1 2.72 1 0 1 C0 0.67 0 0.34 0 0 Z " fill="#DA4545" transform="translate(249,63)"/>
<path d="M0 0 C0.99 0.33 1.98 0.66 3 1 C3 1.66 3 2.32 3 3 C2.01 3 1.02 3 0 3 C0 2.01 0 1.02 0 0 Z " fill="#193B8A" transform="translate(558,350)"/>
<path d="M0 0 C0.33 0 0.66 0 1 0 C1 2.31 1 4.62 1 7 C0.67 7 0.34 7 0 7 C0 4.69 0 2.38 0 0 Z " fill="#D5E3FE" transform="translate(520,296)"/>
<path d="M0 0 C0.33 0 0.66 0 1 0 C1 2.31 1 4.62 1 7 C0.67 7 0.34 7 0 7 C0 4.69 0 2.38 0 0 Z " fill="#7FA6FF" transform="translate(174,157)"/>
<path d="M0 0 C0.66 0 1.32 0 2 0 C2 0.99 2 1.98 2 3 C1.01 3 0.02 3 -1 3 C-0.67 2.01 -0.34 1.02 0 0 Z " fill="#183B8A" transform="translate(419,58)"/>
<path d="M0 0 C0.33 0 0.66 0 1 0 C1 1.98 1 3.96 1 6 C0.67 6 0.34 6 0 6 C0 4.02 0 2.04 0 0 Z " fill="#D5E3FE" transform="translate(161,341)"/>
<path d="M0 0 C0.33 0 0.66 0 1 0 C1 1.98 1 3.96 1 6 C0.67 6 0.34 6 0 6 C0 4.02 0 2.04 0 0 Z " fill="#D5E3FF" transform="translate(161,290)"/>
<path d="M0 0 C1.65 0 3.3 0 5 0 C3.02 0.99 3.02 0.99 1 2 C0.67 1.34 0.34 0.68 0 0 Z " fill="#D8787C" transform="translate(510,255)"/>
<path d="M0 0 C1.98 0 3.96 0 6 0 C6 0.33 6 0.66 6 1 C4.02 1 2.04 1 0 1 C0 0.67 0 0.34 0 0 Z " fill="#DA4646" transform="translate(148,162)"/>
<path d="M0 0 C1.98 0 3.96 0 6 0 C6 0.33 6 0.66 6 1 C4.02 1 2.04 1 0 1 C0 0.67 0 0.34 0 0 Z " fill="#EEBB59" transform="translate(120,149)"/>
<path d="M0 0 C0.33 0 0.66 0 1 0 C1 1.98 1 3.96 1 6 C0.67 6 0.34 6 0 6 C0 4.02 0 2.04 0 0 Z " fill="#F7CA73" transform="translate(136,105)"/>
<path d="M0 0 C1.98 0 3.96 0 6 0 C6 0.33 6 0.66 6 1 C4.02 1 2.04 1 0 1 C0 0.67 0 0.34 0 0 Z " fill="#DA4545" transform="translate(368,63)"/>
<path d="M0 0 C1.65 0 3.3 0 5 0 C5 0.33 5 0.66 5 1 C3.35 1 1.7 1 0 1 C0 0.67 0 0.34 0 0 Z " fill="#183B8A" transform="translate(557,358)"/>
<path d="M0 0 C0.33 0 0.66 0 1 0 C1 1.65 1 3.3 1 5 C0.67 5 0.34 5 0 5 C0 3.35 0 1.7 0 0 Z " fill="#D6E3FE" transform="translate(518,349)"/>
<path d="M0 0 C0.33 0 0.66 0 1 0 C1 1.65 1 3.3 1 5 C0.67 5 0.34 5 0 5 C0 3.35 0 1.7 0 0 Z " fill="#D5E4FE" transform="translate(519,343)"/>
<path d="M0 0 C0.33 0 0.66 0 1 0 C1 1.65 1 3.3 1 5 C0.67 5 0.34 5 0 5 C0 3.35 0 1.7 0 0 Z " fill="#D5E3FE" transform="translate(519,289)"/>
<path d="M0 0 C0.33 0 0.66 0 1 0 C1 1.65 1 3.3 1 5 C0.67 5 0.34 5 0 5 C0 3.35 0 1.7 0 0 Z " fill="#D5E3FF" transform="translate(518,283)"/>
<path d="M0 0 C1.32 0.33 2.64 0.66 4 1 C2.68 1.33 1.36 1.66 0 2 C0 1.34 0 0.68 0 0 Z " fill="#D87D87" transform="translate(514,268)"/>
<path d="M0 0 C0.33 0 0.66 0 1 0 C1 1.65 1 3.3 1 5 C0.67 5 0.34 5 0 5 C0 3.35 0 1.7 0 0 Z " fill="#6B99FF" transform="translate(469,154)"/>
<path d="M0 0 C1.65 0 3.3 0 5 0 C5 0.33 5 0.66 5 1 C3.35 1 1.7 1 0 1 C0 0.67 0 0.34 0 0 Z " fill="#EDBA56" transform="translate(115,148)"/>
<path d="M0 0 C1.65 0 3.3 0 5 0 C5 0.33 5 0.66 5 1 C3.35 1 1.7 1 0 1 C0 0.67 0 0.34 0 0 Z " fill="#ECB753" transform="translate(110,147)"/>
<path d="M0 0 C1.65 0 3.3 0 5 0 C5 0.33 5 0.66 5 1 C3.35 1 1.7 1 0 1 C0 0.67 0 0.34 0 0 Z " fill="#EDB956" transform="translate(93,144)"/>
<path d="M0 0 C1.65 0 3.3 0 5 0 C5 0.33 5 0.66 5 1 C3.35 1 1.7 1 0 1 C0 0.67 0 0.34 0 0 Z " fill="#EDB855" transform="translate(88,143)"/>
<path d="M0 0 C1.65 0 3.3 0 5 0 C5 0.33 5 0.66 5 1 C3.35 1 1.7 1 0 1 C0 0.67 0 0.34 0 0 Z " fill="#ECB752" transform="translate(83,142)"/>
<path d="M0 0 C1.65 0 3.3 0 5 0 C5 0.33 5 0.66 5 1 C3.35 1 1.7 1 0 1 C0 0.67 0 0.34 0 0 Z " fill="#ECB853" transform="translate(67,139)"/>
<path d="M0 0 C0.33 0 0.66 0 1 0 C1 1.65 1 3.3 1 5 C0.67 5 0.34 5 0 5 C0 3.35 0 1.7 0 0 Z " fill="#F6CA73" transform="translate(59,127)"/>
<path d="M0 0 C0.33 0 0.66 0 1 0 C1 1.65 1 3.3 1 5 C0.67 5 0.34 5 0 5 C0 3.35 0 1.7 0 0 Z " fill="#F6CA73" transform="translate(133,122)"/>
<path d="M0 0 C0.33 0 0.66 0 1 0 C1 1.65 1 3.3 1 5 C0.67 5 0.34 5 0 5 C0 3.35 0 1.7 0 0 Z " fill="#F6CA73" transform="translate(60,122)"/>
<path d="M0 0 C0.33 0 0.66 0 1 0 C1 1.65 1 3.3 1 5 C0.67 5 0.34 5 0 5 C0 3.35 0 1.7 0 0 Z " fill="#F6CB73" transform="translate(134,117)"/>
<path d="M0 0 C0.33 0 0.66 0 1 0 C1 1.65 1 3.3 1 5 C0.67 5 0.34 5 0 5 C0 3.35 0 1.7 0 0 Z " fill="#F6CB73" transform="translate(135,112)"/>
<path d="M0 0 C0.33 0 0.66 0 1 0 C1 1.65 1 3.3 1 5 C0.67 5 0.34 5 0 5 C0 3.35 0 1.7 0 0 Z " fill="#F6CA73" transform="translate(63,106)"/>
<path d="M0 0 C1.65 0 3.3 0 5 0 C5 0.33 5 0.66 5 1 C3.35 1 1.7 1 0 1 C0 0.67 0 0.34 0 0 Z " fill="#FBD78F" transform="translate(126,101)"/>
<path d="M0 0 C1.65 0 3.3 0 5 0 C5 0.33 5 0.66 5 1 C3.35 1 1.7 1 0 1 C0 0.67 0 0.34 0 0 Z " fill="#6896FF" transform="translate(411,99)"/>
<path d="M0 0 C1.65 0 3.3 0 5 0 C5 0.33 5 0.66 5 1 C3.35 1 1.7 1 0 1 C0 0.67 0 0.34 0 0 Z " fill="#80A7FE" transform="translate(229,99)"/>
<path d="M0 0 C1.65 0 3.3 0 5 0 C5 0.33 5 0.66 5 1 C3.35 1 1.7 1 0 1 C0 0.67 0 0.34 0 0 Z " fill="#FBD993" transform="translate(110,98)"/>
<path d="M0 0 C1.65 0 3.3 0 5 0 C5 0.33 5 0.66 5 1 C3.35 1 1.7 1 0 1 C0 0.67 0 0.34 0 0 Z " fill="#FBD68E" transform="translate(105,97)"/>
<path d="M0 0 C1.65 0 3.3 0 5 0 C5 0.33 5 0.66 5 1 C3.35 1 1.7 1 0 1 C0 0.67 0 0.34 0 0 Z " fill="#FBD68C" transform="translate(100,96)"/>
<path d="M0 0 C1.65 0 3.3 0 5 0 C5 0.33 5 0.66 5 1 C3.35 1 1.7 1 0 1 C0 0.67 0 0.34 0 0 Z " fill="#FBD78E" transform="translate(83,93)"/>
<path d="M0 0 C1.65 0 3.3 0 5 0 C5 0.33 5 0.66 5 1 C3.35 1 1.7 1 0 1 C0 0.67 0 0.34 0 0 Z " fill="#FBD58C" transform="translate(78,92)"/>
<path d="M0 0 C1.65 0 3.3 0 5 0 C5 0.33 5 0.66 5 1 C3.35 1 1.7 1 0 1 C0 0.67 0 0.34 0 0 Z " fill="#FAD58B" transform="translate(73,91)"/>
<path d="M0 0 C1.65 0 3.3 0 5 0 C5 0.33 5 0.66 5 1 C3.35 1 1.7 1 0 1 C0 0.67 0 0.34 0 0 Z " fill="#183B8A" transform="translate(417,66)"/>
<path d="M0 0 C1.65 0 3.3 0 5 0 C5 0.33 5 0.66 5 1 C3.35 1 1.7 1 0 1 C0 0.67 0 0.34 0 0 Z " fill="#DA4545" transform="translate(362,64)"/>
<path d="M0 0 C0.33 0 0.66 0 1 0 C1 1.65 1 3.3 1 5 C0.67 5 0.34 5 0 5 C0 3.35 0 1.7 0 0 Z " fill="#F5C971" transform="translate(203,54)"/>
<path d="M0 0 C1.65 0 3.3 0 5 0 C5 0.33 5 0.66 5 1 C3.35 1 1.7 1 0 1 C0 0.67 0 0.34 0 0 Z " fill="#F8CE7C" transform="translate(187,25)"/>
<path d="M0 0 C1 4 1 4 1 4 Z " fill="#2B56B2" transform="translate(621,418)"/>
<path d="M0 0 C1 4 1 4 1 4 Z " fill="#2A55B2" transform="translate(596,418)"/>
<path d="M0 0 C1 4 1 4 1 4 Z " fill="#2A55B2" transform="translate(84,418)"/>
<path d="M0 0 C1 4 1 4 1 4 Z " fill="#D5E3FE" transform="translate(165,362)"/>
<path d="M0 0 C1 4 1 4 1 4 Z " fill="#D6E3FF" transform="translate(164,358)"/>
<path d="M0 0 C1 4 1 4 1 4 Z " fill="#D6E3FF" transform="translate(517,354)"/>
<path d="M0 0 C1 4 1 4 1 4 Z " fill="#193C8A" transform="translate(552,350)"/>
<path d="M0 0 C1 4 1 4 1 4 Z " fill="#D5E3FF" transform="translate(162,348)"/>
<path d="M0 0 C1 4 1 4 1 4 Z " fill="#D5E3FE" transform="translate(162,284)"/>
<path d="M0 0 C1 4 1 4 1 4 Z " fill="#D5E4FE" transform="translate(163,279)"/>
<path d="M0 0 C1 4 1 4 1 4 Z " fill="#D6E3FE" transform="translate(517,278)"/>
<path d="M0 0 C1 4 1 4 1 4 Z " fill="#D6E4FF" transform="translate(516,274)"/>
<path d="M0 0 C4 1 4 1 4 1 Z " fill="#7FA6FE" transform="translate(109,259)"/>
<path d="M0 0 C1 4 1 4 1 4 Z " fill="#183B8A" transform="translate(84,191)"/>
<path d="M0 0 C1 4 1 4 1 4 Z " fill="#80A6FE" transform="translate(175,152)"/>
<path d="M0 0 C4 1 4 1 4 1 Z " fill="#EBB54F" transform="translate(105,146)"/>
<path d="M0 0 C4 1 4 1 4 1 Z " fill="#EDB955" transform="translate(99,145)"/>
<path d="M0 0 C4 1 4 1 4 1 Z " fill="#EDB956" transform="translate(78,141)"/>
<path d="M0 0 C1 4 1 4 1 4 Z " fill="#F7CA73" transform="translate(130,139)"/>
<path d="M0 0 C4 1 4 1 4 1 Z " fill="#EDB854" transform="translate(73,140)"/>
<path d="M0 0 C1 4 1 4 1 4 Z " fill="#F6CA74" transform="translate(131,133)"/>
<path d="M0 0 C1 4 1 4 1 4 Z " fill="#F6CB73" transform="translate(132,128)"/>
<path d="M0 0 C1 4 1 4 1 4 Z " fill="#F6CB73" transform="translate(61,117)"/>
<path d="M0 0 C1 4 1 4 1 4 Z " fill="#F6CA73" transform="translate(62,112)"/>
<path d="M0 0 C1 4 1 4 1 4 Z " fill="#F6CA73" transform="translate(64,101)"/>
<path d="M0 0 C4 1 4 1 4 1 Z " fill="#80A6FF" transform="translate(225,100)"/>
<path d="M0 0 C4 1 4 1 4 1 Z " fill="#FBD68D" transform="translate(121,100)"/>
<path d="M0 0 C4 1 4 1 4 1 Z " fill="#FBD68C" transform="translate(116,99)"/>
<path d="M0 0 C1 4 1 4 1 4 Z " fill="#F6CA73" transform="translate(65,96)"/>
<path d="M0 0 C4 1 4 1 4 1 Z " fill="#FBD68D" transform="translate(95,95)"/>
<path d="M0 0 C4 1 4 1 4 1 Z " fill="#FCD993" transform="translate(89,94)"/>
<path d="M0 0 C4 1 4 1 4 1 Z " fill="#BB2F2F" transform="translate(370,85)"/>
<path d="M0 0 C4 1 4 1 4 1 Z " fill="#BF3232" transform="translate(363,85)"/>
<path d="M0 0 C4 1 4 1 4 1 Z " fill="#EFBC5B" transform="translate(153,77)"/>
<path d="M0 0 C4 1 4 1 4 1 Z " fill="#DA4545" transform="translate(357,65)"/>
<path d="M0 0 C1 4 1 4 1 4 Z " fill="#2B56B2" transform="translate(347,61)"/>
<path d="M0 0 C1 4 1 4 1 4 Z " fill="#2B56B3" transform="translate(336,61)"/>
<path d="M0 0 C1 4 1 4 1 4 Z " fill="#183B89" transform="translate(426,58)"/>
<path d="M0 0 C4 1 4 1 4 1 Z " fill="#2B56B3" transform="translate(340,57)"/>
<path d="M0 0 C1 4 1 4 1 4 Z " fill="#F7CB74" transform="translate(140,44)"/>
<path d="M0 0 C3 1 3 1 3 1 Z " fill="#2A55B2" transform="translate(87,424)"/>
<path d="" fill="#D6E3FF" transform="translate(0,0)"/>
<path d="" fill="#D5E3FF" transform="translate(0,0)"/>
<path d="" fill="#D5E4FF" transform="translate(0,0)"/>
<path d="" fill="#D6E3FF" transform="translate(0,0)"/>
<path d="" fill="#D6E3FF" transform="translate(0,0)"/>
<path d="" fill="#D6E3FF" transform="translate(0,0)"/>
<path d="" fill="#D5E4FF" transform="translate(0,0)"/>
<path d="" fill="#D5E3FE" transform="translate(0,0)"/>
<path d="M0 0 C3 1 3 1 3 1 Z " fill="#DB4646" transform="translate(93,357)"/>
<path d="M0 0 C3 1 3 1 3 1 Z " fill="#DB4646" transform="translate(96,356)"/>
<path d="" fill="#D5E4FF" transform="translate(0,0)"/>
<path d="" fill="#193C8A" transform="translate(0,0)"/>
<path d="" fill="#DA4646" transform="translate(0,0)"/>
<path d="M0 0 C0.66 0.66 1.32 1.32 2 2 C1.34 2 0.68 2 0 2 C0 1.34 0 0.68 0 0 Z " fill="#DA4646" transform="translate(96,349)"/>
<path d="" fill="#DA4646" transform="translate(0,0)"/>
<path d="" fill="#D5E4FF" transform="translate(0,0)"/>
<path d="" fill="#D6E3FF" transform="translate(0,0)"/>
<path d="" fill="#D5E4FF" transform="translate(0,0)"/>
<path d="" fill="#D6E4FE" transform="translate(0,0)"/>
<path d="" fill="#D5E3FE" transform="translate(0,0)"/>
<path d="" fill="#D5E3FF" transform="translate(0,0)"/>
<path d="" fill="#D5E4FF" transform="translate(0,0)"/>
<path d="" fill="#7FA6FF" transform="translate(0,0)"/>
<path d="M0 0 C3 1 3 1 3 1 Z " fill="#193C89" transform="translate(90,199)"/>
<path d="" fill="#193C89" transform="translate(0,0)"/>
<path d="" fill="#FFB86B" transform="translate(0,0)"/>
<path d="" fill="#FEB76A" transform="translate(0,0)"/>
<path d="M0 0 C3 1 3 1 3 1 Z " fill="#193C8A" transform="translate(90,185)"/>
<path d="M0 0 C3 1 3 1 3 1 Z " fill="#FFB76A" transform="translate(548,182)"/>
<path d="" fill="#DB4646" transform="translate(0,0)"/>
<path d="" fill="#DB4646" transform="translate(0,0)"/>
<path d="" fill="#DB4545" transform="translate(0,0)"/>
<path d="" fill="#6C99FF" transform="translate(0,0)"/>
<path d="" fill="#80A6FF" transform="translate(0,0)"/>
<path d="M0 0 C3 1 3 1 3 1 Z " fill="#EBB54F" transform="translate(63,138)"/>
<path d="M0 0 C3 1 3 1 3 1 Z " fill="#80A7FF" transform="translate(222,101)"/>
<path d="M0 0 C3 1 3 1 3 1 Z " fill="#6998FF" transform="translate(416,100)"/>
<path d="M0 0 C3 1 3 1 3 1 Z " fill="#F8CF7D" transform="translate(70,90)"/>
<path d="M0 0 C3 1 3 1 3 1 Z " fill="#BD3131" transform="translate(355,87)"/>
<path d="M0 0 C3 1 3 1 3 1 Z " fill="#BF3232" transform="translate(359,86)"/>
<path d="M0 0 C3 1 3 1 3 1 Z " fill="#DA4646" transform="translate(251,77)"/>
<path d="M0 0 C3 1 3 1 3 1 Z " fill="#ECB752" transform="translate(157,76)"/>
<path d="M0 0 C3 1 3 1 3 1 Z " fill="#EDBA56" transform="translate(160,75)"/>
<path d="M0 0 C3 1 3 1 3 1 Z " fill="#EAB34B" transform="translate(168,72)"/>
<path d="M0 0 C3 1 3 1 3 1 Z " fill="#EDB954" transform="translate(171,71)"/>
<path d="M0 0 C0.99 0.495 0.99 0.495 2 1 C1.01 1.495 1.01 1.495 0 2 C0 1.34 0 0.68 0 0 Z " fill="#DB4646" transform="translate(252,69)"/>
<path d="" fill="#DB4646" transform="translate(0,0)"/>
<path d="M0 0 C3 1 3 1 3 1 Z " fill="#EDB853" transform="translate(185,66)"/>
<path d="M0 0 C3 1 3 1 3 1 Z " fill="#EEBA58" transform="translate(188,65)"/>
<path d="" fill="#F6CA73" transform="translate(0,0)"/>
<path d="" fill="#F6CA74" transform="translate(0,0)"/>
<path d="" fill="#F6CB73" transform="translate(0,0)"/>
<path d="M0 0 C3 1 3 1 3 1 Z " fill="#FBD68D" transform="translate(147,39)"/>
<path d="" fill="#F6CB73" transform="translate(0,0)"/>
<path d="M0 0 C3 1 3 1 3 1 Z " fill="#FCD993" transform="translate(150,38)"/>
<path d="M0 0 C3 1 3 1 3 1 Z " fill="#FBD78F" transform="translate(164,33)"/>
<path d="M0 0 C3 1 3 1 3 1 Z " fill="#FBD68D" transform="translate(175,29)"/>
<path d="M0 0 C3 1 3 1 3 1 Z " fill="#FCD892" transform="translate(178,28)"/>
<path d="M0 0 C2 1 2 1 2 1 Z " fill="#2A55B3" transform="translate(617,424)"/>
<path d="M0 0 C2 1 2 1 2 1 Z " fill="#2A55B2" transform="translate(599,424)"/>
<path d="M0 0 C2 1 2 1 2 1 Z " fill="#2B56B2" transform="translate(575,424)"/>
<path d="M0 0 C2 1 2 1 2 1 Z " fill="#2B56B3" transform="translate(66,424)"/>
<path d="M0 0 C2 1 2 1 2 1 Z " fill="#2B56B3" transform="translate(21,424)"/>
<path d="" fill="#2A55B2" transform="translate(0,0)"/>
<path d="" fill="#2A55B3" transform="translate(0,0)"/>
<path d="" fill="#2B56B2" transform="translate(0,0)"/>
<path d="" fill="#2B56B3" transform="translate(0,0)"/>
<path d="" fill="#2B56B3" transform="translate(0,0)"/>
<path d="" fill="#2B56B3" transform="translate(0,0)"/>
<path d="M0 0 C2 1 2 1 2 1 Z " fill="#2A55B3" transform="translate(576,415)"/>
<path d="M0 0 C2 1 2 1 2 1 Z " fill="#2B56B3" transform="translate(67,415)"/>
<path d="M0 0 C2 1 2 1 2 1 Z " fill="#2A55B2" transform="translate(20,415)"/>
<path d="" fill="#D5E3FE" transform="translate(0,0)"/>
<path d="" fill="#D6E4FF" transform="translate(0,0)"/>
<path d="" fill="#D5E3FF" transform="translate(0,0)"/>
<path d="" fill="#D5E4FF" transform="translate(0,0)"/>
<path d="" fill="#D5E3FE" transform="translate(0,0)"/>
<path d="" fill="#D5E3FE" transform="translate(0,0)"/>
<path d="" fill="#D5E4FF" transform="translate(0,0)"/>
<path d="" fill="#D6E4FE" transform="translate(0,0)"/>
<path d="" fill="#D6E3FF" transform="translate(0,0)"/>
<path d="" fill="#D5E3FF" transform="translate(0,0)"/>
<path d="" fill="#D5E4FE" transform="translate(0,0)"/>
<path d="" fill="#D6E4FF" transform="translate(0,0)"/>
<path d="" fill="#D5E3FE" transform="translate(0,0)"/>
<path d="" fill="#D6E4FF" transform="translate(0,0)"/>
<path d="" fill="#D6E4FF" transform="translate(0,0)"/>
<path d="" fill="#D5E3FF" transform="translate(0,0)"/>
<path d="" fill="#D6E3FF" transform="translate(0,0)"/>
<path d="" fill="#D5E3FF" transform="translate(0,0)"/>
<path d="" fill="#D5E4FF" transform="translate(0,0)"/>
<path d="" fill="#D6E4FF" transform="translate(0,0)"/>
<path d="" fill="#D6E3FF" transform="translate(0,0)"/>
<path d="" fill="#D6E3FF" transform="translate(0,0)"/>
<path d="" fill="#D6E3FF" transform="translate(0,0)"/>
<path d="" fill="#D6E4FF" transform="translate(0,0)"/>
<path d="" fill="#D6E3FF" transform="translate(0,0)"/>
<path d="M0 0 C2 1 2 1 2 1 Z " fill="#DB4646" transform="translate(100,355)"/>
<path d="" fill="#193C8A" transform="translate(0,0)"/>
<path d="" fill="#183B8A" transform="translate(0,0)"/>
<path d="" fill="#DA4545" transform="translate(0,0)"/>
<path d="M0 0 C2 1 2 1 2 1 Z " fill="#193C8A" transform="translate(561,345)"/>
<path d="M0 0 C2 1 2 1 2 1 Z " fill="#193C8A" transform="translate(556,345)"/>
<path d="M0 0 C2 1 2 1 2 1 Z " fill="#DA4646" transform="translate(518,267)"/>
<path d="" fill="#DA4646" transform="translate(0,0)"/>
<path d="" fill="#C9DBFF" transform="translate(0,0)"/>
<path d="M0 0 C2 1 2 1 2 1 Z " fill="#7FA7FF" transform="translate(107,258)"/>
<path d="" fill="#80A6FE" transform="translate(0,0)"/>
<path d="" fill="#D5E4FF" transform="translate(0,0)"/>
<path d="" fill="#D6E4FF" transform="translate(0,0)"/>
<path d="" fill="#D6E3FF" transform="translate(0,0)"/>
<path d="" fill="#D6E4FF" transform="translate(0,0)"/>
<path d="" fill="#ECC780" transform="translate(0,0)"/>
<path d="" fill="#D6E3FF" transform="translate(0,0)"/>
<path d="" fill="#D6E4FF" transform="translate(0,0)"/>
<path d="" fill="#D6E4FF" transform="translate(0,0)"/>
<path d="" fill="#D5E3FE" transform="translate(0,0)"/>
<path d="" fill="#D5E4FF" transform="translate(0,0)"/>
<path d="" fill="#D6E4FF" transform="translate(0,0)"/>
<path d="" fill="#D5E3FF" transform="translate(0,0)"/>
<path d="" fill="#D6E4FF" transform="translate(0,0)"/>
<path d="" fill="#D6E3FF" transform="translate(0,0)"/>
<path d="" fill="#D5E3FF" transform="translate(0,0)"/>
<path d="" fill="#D6E4FF" transform="translate(0,0)"/>
<path d="" fill="#D6E3FF" transform="translate(0,0)"/>
<path d="" fill="#D6E4FF" transform="translate(0,0)"/>
<path d="" fill="#D6E4FF" transform="translate(0,0)"/>
<path d="" fill="#D6E4FF" transform="translate(0,0)"/>
<path d="" fill="#183B89" transform="translate(0,0)"/>
<path d="M0 0 C2 1 2 1 2 1 Z " fill="#FFB86B" transform="translate(548,194)"/>
<path d="M0 0 C2 1 2 1 2 1 Z " fill="#FFB76B" transform="translate(543,194)"/>
<path d="M0 0 C2 1 2 1 2 1 Z " fill="#DA4646" transform="translate(143,192)"/>
<path d="" fill="#FFB76B" transform="translate(0,0)"/>
<path d="" fill="#FFB76A" transform="translate(0,0)"/>
<path d="" fill="#183B89" transform="translate(0,0)"/>
<path d="M0 0 C2 1 2 1 2 1 Z " fill="#193C8A" transform="translate(93,186)"/>
<path d="" fill="#DA4646" transform="translate(0,0)"/>
<path d="M0 0 C2 1 2 1 2 1 Z " fill="#FFB86B" transform="translate(546,183)"/>
<path d="M0 0 C2 1 2 1 2 1 Z " fill="#FEB76A" transform="translate(543,182)"/>
<path d="" fill="#DA4646" transform="translate(0,0)"/>
<path d="" fill="#DA4545" transform="translate(0,0)"/>
<path d="" fill="#DB4646" transform="translate(0,0)"/>
<path d="M0 0 C2 1 2 1 2 1 Z " fill="#DB4646" transform="translate(141,165)"/>
<path d="M0 0 C2 1 2 1 2 1 Z " fill="#DB4646" transform="translate(157,164)"/>
<path d="M0 0 C2 1 2 1 2 1 Z " fill="#DA4545" transform="translate(155,163)"/>
<path d="M0 0 C2 1 2 1 2 1 Z " fill="#DB4545" transform="translate(145,163)"/>
<path d="" fill="#6998FF" transform="translate(0,0)"/>
<path d="" fill="#80A7FE" transform="translate(0,0)"/>
<path d="" fill="#6997FE" transform="translate(0,0)"/>
<path d="" fill="#F6CA73" transform="translate(0,0)"/>
<path d="" fill="#80A7FE" transform="translate(0,0)"/>
<path d="" fill="#6796FE" transform="translate(0,0)"/>
<path d="" fill="#6897FF" transform="translate(0,0)"/>
<path d="" fill="#80A7FF" transform="translate(0,0)"/>
<path d="" fill="#6A98FF" transform="translate(0,0)"/>
<path d="" fill="#80A6FF" transform="translate(0,0)"/>
<path d="" fill="#6997FF" transform="translate(0,0)"/>
<path d="" fill="#F1BF60" transform="translate(0,0)"/>
<path d="" fill="#80A6FF" transform="translate(0,0)"/>
<path d="" fill="#6997FF" transform="translate(0,0)"/>
<path d="" fill="#80A7FF" transform="translate(0,0)"/>
<path d="" fill="#6896FF" transform="translate(0,0)"/>
<path d="" fill="#80A7FF" transform="translate(0,0)"/>
<path d="" fill="#6998FF" transform="translate(0,0)"/>
<path d="M0 0 C2 1 2 1 2 1 Z " fill="#6B99FF" transform="translate(445,115)"/>
<path d="M0 0 C2 1 2 1 2 1 Z " fill="#6897FF" transform="translate(440,111)"/>
<path d="M0 0 C2 1 2 1 2 1 Z " fill="#6998FF" transform="translate(437,109)"/>
<path d="M0 0 C2 1 2 1 2 1 Z " fill="#80A7FF" transform="translate(209,107)"/>
<path d="M0 0 C2 1 2 1 2 1 Z " fill="#6997FF" transform="translate(432,106)"/>
<path d="M0 0 C2 1 2 1 2 1 Z " fill="#7FA7FF" transform="translate(211,106)"/>
<path d="M0 0 C2 1 2 1 2 1 Z " fill="#6998FE" transform="translate(430,105)"/>
<path d="M0 0 C2 1 2 1 2 1 Z " fill="#7FA6FE" transform="translate(213,105)"/>
<path d="M0 0 C2 1 2 1 2 1 Z " fill="#6897FE" transform="translate(428,104)"/>
<path d="M0 0 C2 1 2 1 2 1 Z " fill="#80A7FF" transform="translate(215,104)"/>
<path d="M0 0 C2 1 2 1 2 1 Z " fill="#6796FF" transform="translate(426,103)"/>
<path d="M0 0 C2 1 2 1 2 1 Z " fill="#7FA7FF" transform="translate(217,103)"/>
<path d="M0 0 C2 1 2 1 2 1 Z " fill="#6A98FF" transform="translate(423,102)"/>
<path d="M0 0 C2 1 2 1 2 1 Z " fill="#7FA6FE" transform="translate(220,102)"/>
<path d="M0 0 C2 1 2 1 2 1 Z " fill="#F6CA71" transform="translate(132,102)"/>
<path d="M0 0 C2 1 2 1 2 1 Z " fill="#6A98FE" transform="translate(420,101)"/>
<path d="M0 0 C2 1 2 1 2 1 Z " fill="#C23434" transform="translate(374,86)"/>
<path d="" fill="#DB4646" transform="translate(0,0)"/>
<path d="M0 0 C2 1 2 1 2 1 Z " fill="#EDB955" transform="translate(163,74)"/>
<path d="" fill="#F6CB73" transform="translate(0,0)"/>
<path d="" fill="#DA4545" transform="translate(0,0)"/>
<path d="M0 0 C2 1 2 1 2 1 Z " fill="#EEBA57" transform="translate(166,73)"/>
<path d="" fill="#DA4646" transform="translate(0,0)"/>
<path d="" fill="#F7CA74" transform="translate(0,0)"/>
<path d="M0 0 C2 1 2 1 2 1 Z " fill="#ECB752" transform="translate(174,70)"/>
<path d="M0 0 C2 1 2 1 2 1 Z " fill="#EDB955" transform="translate(177,69)"/>
<path d="" fill="#F6CB74" transform="translate(0,0)"/>
<path d="" fill="#DA4545" transform="translate(0,0)"/>
<path d="M0 0 C2 1 2 1 2 1 Z " fill="#EEBA56" transform="translate(180,68)"/>
<path d="M0 0 C2 1 2 1 2 1 Z " fill="#EEBB58" transform="translate(183,67)"/>
<path d="" fill="#2A55B3" transform="translate(0,0)"/>
<path d="" fill="#F7CB74" transform="translate(0,0)"/>
<path d="M0 0 C2 1 2 1 2 1 Z " fill="#183B8A" transform="translate(422,65)"/>
<path d="M0 0 C2 1 2 1 2 1 Z " fill="#EDB955" transform="translate(191,64)"/>
<path d="M0 0 C2 1 2 1 2 1 Z " fill="#EEBA56" transform="translate(194,63)"/>
<path d="" fill="#F7CB74" transform="translate(0,0)"/>
<path d="M0 0 C2 1 2 1 2 1 Z " fill="#EEBA58" transform="translate(197,62)"/>
<path d="M0 0 C2 1 2 1 2 1 Z " fill="#EBB44D" transform="translate(199,61)"/>
<path d="" fill="#193C8A" transform="translate(0,0)"/>
<path d="" fill="#F7CB74" transform="translate(0,0)"/>
<path d="" fill="#F6CA73" transform="translate(0,0)"/>
<path d="M0 0 C2 1 2 1 2 1 Z " fill="#193C8A" transform="translate(421,53)"/>
<path d="M0 0 C2 1 2 1 2 1 Z " fill="#183B89" transform="translate(417,53)"/>
<path d="" fill="#F6CA73" transform="translate(0,0)"/>
<path d="" fill="#F7CB74" transform="translate(0,0)"/>
<path d="" fill="#F7CA74" transform="translate(0,0)"/>
<path d="" fill="#F6CB74" transform="translate(0,0)"/>
<path d="" fill="#F7CB74" transform="translate(0,0)"/>
<path d="M0 0 C2 1 2 1 2 1 Z " fill="#FBD68D" transform="translate(145,40)"/>
<path d="M0 0 C2 1 2 1 2 1 Z " fill="#FAD58B" transform="translate(153,37)"/>
<path d="" fill="#F7CB74" transform="translate(0,0)"/>
<path d="M0 0 C2 1 2 1 2 1 Z " fill="#FBD68B" transform="translate(156,36)"/>
<path d="M0 0 C2 1 2 1 2 1 Z " fill="#FBD78E" transform="translate(159,35)"/>
<path d="M0 0 C2 1 2 1 2 1 Z " fill="#FBD78F" transform="translate(162,34)"/>
<path d="" fill="#F7CB73" transform="translate(0,0)"/>
<path d="M0 0 C2 1 2 1 2 1 Z " fill="#FAD58A" transform="translate(167,32)"/>
<path d="M0 0 C2 1 2 1 2 1 Z " fill="#FBD68C" transform="translate(170,31)"/>
<path d="" fill="#F7CB74" transform="translate(0,0)"/>
<path d="M0 0 C2 1 2 1 2 1 Z " fill="#FBD68D" transform="translate(173,30)"/>
<path d="" fill="#F6CA73" transform="translate(0,0)"/>
<path d="M0 0 C2 1 2 1 2 1 Z " fill="#FAD48A" transform="translate(181,27)"/>
<path d="M0 0 C2 1 2 1 2 1 Z " fill="#FBD68C" transform="translate(184,26)"/>
<path d="" fill="#2B56B3" transform="translate(0,0)"/>
<path d="" fill="#2B56B3" transform="translate(0,0)"/>
<path d="" fill="#2B56B3" transform="translate(0,0)"/>
<path d="" fill="#2B56B3" transform="translate(0,0)"/>
<path d="" fill="#2B56B3" transform="translate(0,0)"/>
<path d="" fill="#2B56B2" transform="translate(0,0)"/>
<path d="" fill="#2B56B3" transform="translate(0,0)"/>
<path d="" fill="#2A55B2" transform="translate(0,0)"/>
<path d="" fill="#2B56B3" transform="translate(0,0)"/>
<path d="" fill="#2B56B2" transform="translate(0,0)"/>
<path d="" fill="#2B56B3" transform="translate(0,0)"/>
<path d="" fill="#2A55B2" transform="translate(0,0)"/>
<path d="" fill="#2B56B3" transform="translate(0,0)"/>
<path d="" fill="#2A55B3" transform="translate(0,0)"/>
<path d="" fill="#2A55B2" transform="translate(0,0)"/>
<path d="" fill="#2B56B3" transform="translate(0,0)"/>
<path d="" fill="#2B56B3" transform="translate(0,0)"/>
<path d="" fill="#2B56B3" transform="translate(0,0)"/>
<path d="" fill="#2A55B3" transform="translate(0,0)"/>
<path d="" fill="#2B56B3" transform="translate(0,0)"/>
<path d="" fill="#2A55B3" transform="translate(0,0)"/>
<path d="" fill="#D6E4FF" transform="translate(0,0)"/>
<path d="" fill="#D6E4FF" transform="translate(0,0)"/>
<path d="" fill="#D6E3FF" transform="translate(0,0)"/>
<path d="" fill="#D6E4FF" transform="translate(0,0)"/>
<path d="" fill="#D5E4FF" transform="translate(0,0)"/>
<path d="" fill="#D5E4FF" transform="translate(0,0)"/>
<path d="" fill="#D5E3FF" transform="translate(0,0)"/>
<path d="" fill="#D6E4FF" transform="translate(0,0)"/>
<path d="" fill="#D6E4FF" transform="translate(0,0)"/>
<path d="" fill="#D6E4FF" transform="translate(0,0)"/>
<path d="" fill="#193C8A" transform="translate(0,0)"/>
<path d="" fill="#193B8A" transform="translate(0,0)"/>
<path d="" fill="#183C89" transform="translate(0,0)"/>
<path d="" fill="#193C8A" transform="translate(0,0)"/>
<path d="" fill="#183C8A" transform="translate(0,0)"/>
<path d="" fill="#183B8A" transform="translate(0,0)"/>
<path d="" fill="#DA4545" transform="translate(0,0)"/>
<path d="" fill="#DB4545" transform="translate(0,0)"/>
<path d="" fill="#DB4646" transform="translate(0,0)"/>
<path d="" fill="#DB4646" transform="translate(0,0)"/>
<path d="" fill="#DB4545" transform="translate(0,0)"/>
<path d="" fill="#DA4545" transform="translate(0,0)"/>
<path d="" fill="#183B8A" transform="translate(0,0)"/>
<path d="" fill="#193C8A" transform="translate(0,0)"/>
<path d="" fill="#DA4545" transform="translate(0,0)"/>
<path d="" fill="#193C8A" transform="translate(0,0)"/>
<path d="" fill="#193C8A" transform="translate(0,0)"/>
<path d="" fill="#DB4646" transform="translate(0,0)"/>
<path d="" fill="#DB4646" transform="translate(0,0)"/>
<path d="" fill="#193B89" transform="translate(0,0)"/>
<path d="" fill="#DA4646" transform="translate(0,0)"/>
<path d="" fill="#DA4646" transform="translate(0,0)"/>
<path d="" fill="#DA4545" transform="translate(0,0)"/>
<path d="" fill="#DA4646" transform="translate(0,0)"/>
<path d="" fill="#DB4545" transform="translate(0,0)"/>
<path d="" fill="#DB4646" transform="translate(0,0)"/>
<path d="" fill="#DB4646" transform="translate(0,0)"/>
<path d="" fill="#DA4646" transform="translate(0,0)"/>
<path d="" fill="#DA4646" transform="translate(0,0)"/>
<path d="" fill="#DA4545" transform="translate(0,0)"/>
<path d="" fill="#DB4646" transform="translate(0,0)"/>
<path d="" fill="#DA4646" transform="translate(0,0)"/>
<path d="" fill="#7FA6FF" transform="translate(0,0)"/>
<path d="" fill="#DB4646" transform="translate(0,0)"/>
<path d="" fill="#7FA6FF" transform="translate(0,0)"/>
<path d="" fill="#7FA6FF" transform="translate(0,0)"/>
<path d="" fill="#7FA7FE" transform="translate(0,0)"/>
<path d="" fill="#80A7FF" transform="translate(0,0)"/>
<path d="" fill="#80A6FE" transform="translate(0,0)"/>
<path d="" fill="#D6E4FF" transform="translate(0,0)"/>
<path d="" fill="#D6E4FF" transform="translate(0,0)"/>
<path d="" fill="#D6E4FF" transform="translate(0,0)"/>
<path d="" fill="#D6E4FF" transform="translate(0,0)"/>
<path d="" fill="#D6E4FF" transform="translate(0,0)"/>
<path d="" fill="#D6E4FF" transform="translate(0,0)"/>
<path d="" fill="#D6E4FF" transform="translate(0,0)"/>
<path d="" fill="#D6E4FF" transform="translate(0,0)"/>
<path d="" fill="#D6E4FF" transform="translate(0,0)"/>
<path d="" fill="#D6E4FF" transform="translate(0,0)"/>
<path d="" fill="#D6E3FF" transform="translate(0,0)"/>
<path d="" fill="#D6E4FF" transform="translate(0,0)"/>
<path d="" fill="#D6E4FF" transform="translate(0,0)"/>
<path d="" fill="#D5E3FF" transform="translate(0,0)"/>
<path d="" fill="#D5E4FE" transform="translate(0,0)"/>
<path d="" fill="#D5E3FF" transform="translate(0,0)"/>
<path d="" fill="#193B8A" transform="translate(0,0)"/>
<path d="" fill="#193C8A" transform="translate(0,0)"/>
<path d="" fill="#193C8A" transform="translate(0,0)"/>
<path d="" fill="#183B89" transform="translate(0,0)"/>
<path d="" fill="#193C8A" transform="translate(0,0)"/>
<path d="" fill="#193C8A" transform="translate(0,0)"/>
<path d="" fill="#D6E4FF" transform="translate(0,0)"/>
<path d="" fill="#193C8A" transform="translate(0,0)"/>
<path d="" fill="#D6E4FF" transform="translate(0,0)"/>
<path d="" fill="#FFB86B" transform="translate(0,0)"/>
<path d="" fill="#FEB76A" transform="translate(0,0)"/>
<path d="" fill="#D4E3FF" transform="translate(0,0)"/>
<path d="" fill="#FFB76A" transform="translate(0,0)"/>
<path d="" fill="#DB4646" transform="translate(0,0)"/>
<path d="" fill="#DB4545" transform="translate(0,0)"/>
<path d="" fill="#FFB86B" transform="translate(0,0)"/>
<path d="" fill="#DB4646" transform="translate(0,0)"/>
<path d="" fill="#193C8A" transform="translate(0,0)"/>
<path d="" fill="#FFB86A" transform="translate(0,0)"/>
<path d="" fill="#FFB76A" transform="translate(0,0)"/>
<path d="" fill="#193C8A" transform="translate(0,0)"/>
<path d="" fill="#183B8A" transform="translate(0,0)"/>
<path d="" fill="#FFB76B" transform="translate(0,0)"/>
<path d="" fill="#FFB86A" transform="translate(0,0)"/>
<path d="" fill="#DA4545" transform="translate(0,0)"/>
<path d="" fill="#183C8A" transform="translate(0,0)"/>
<path d="" fill="#183C8A" transform="translate(0,0)"/>
<path d="" fill="#DB4646" transform="translate(0,0)"/>
<path d="" fill="#193C8A" transform="translate(0,0)"/>
<path d="" fill="#FFB86B" transform="translate(0,0)"/>
<path d="" fill="#DB4646" transform="translate(0,0)"/>
<path d="" fill="#DB4646" transform="translate(0,0)"/>
<path d="" fill="#DA4646" transform="translate(0,0)"/>
<path d="" fill="#DB4646" transform="translate(0,0)"/>
<path d="" fill="#DB4646" transform="translate(0,0)"/>
<path d="" fill="#DB4646" transform="translate(0,0)"/>
<path d="" fill="#DB4646" transform="translate(0,0)"/>
<path d="" fill="#DB4646" transform="translate(0,0)"/>
<path d="" fill="#DB4545" transform="translate(0,0)"/>
<path d="" fill="#DB4646" transform="translate(0,0)"/>
<path d="" fill="#F8CE7A" transform="translate(0,0)"/>
<path d="" fill="#F7CB73" transform="translate(0,0)"/>
<path d="" fill="#80A7FF" transform="translate(0,0)"/>
<path d="" fill="#F0BD5D" transform="translate(0,0)"/>
<path d="" fill="#EFBB59" transform="translate(0,0)"/>
<path d="" fill="#80A7FF" transform="translate(0,0)"/>
<path d="" fill="#6A98FF" transform="translate(0,0)"/>
<path d="" fill="#80A7FF" transform="translate(0,0)"/>
<path d="" fill="#6897FF" transform="translate(0,0)"/>
<path d="" fill="#80A7FF" transform="translate(0,0)"/>
<path d="" fill="#6897FF" transform="translate(0,0)"/>
<path d="" fill="#80A7FF" transform="translate(0,0)"/>
<path d="" fill="#6796FE" transform="translate(0,0)"/>
<path d="" fill="#80A7FE" transform="translate(0,0)"/>
<path d="" fill="#6997FF" transform="translate(0,0)"/>
<path d="" fill="#6B98FE" transform="translate(0,0)"/>
<path d="" fill="#80A7FF" transform="translate(0,0)"/>
<path d="" fill="#80A7FF" transform="translate(0,0)"/>
<path d="" fill="#6595FE" transform="translate(0,0)"/>
<path d="" fill="#80A6FF" transform="translate(0,0)"/>
<path d="" fill="#6695FF" transform="translate(0,0)"/>
<path d="" fill="#80A7FF" transform="translate(0,0)"/>
<path d="" fill="#6696FE" transform="translate(0,0)"/>
<path d="" fill="#80A7FF" transform="translate(0,0)"/>
<path d="" fill="#6695FF" transform="translate(0,0)"/>
<path d="" fill="#80A7FF" transform="translate(0,0)"/>
<path d="" fill="#6695FF" transform="translate(0,0)"/>
<path d="" fill="#7FA6FF" transform="translate(0,0)"/>
<path d="" fill="#6595FF" transform="translate(0,0)"/>
<path d="" fill="#80A7FF" transform="translate(0,0)"/>
<path d="" fill="#80A7FF" transform="translate(0,0)"/>
<path d="" fill="#6C99FF" transform="translate(0,0)"/>
<path d="" fill="#80A7FF" transform="translate(0,0)"/>
<path d="" fill="#6997FF" transform="translate(0,0)"/>
<path d="" fill="#7FA6FF" transform="translate(0,0)"/>
<path d="" fill="#6796FF" transform="translate(0,0)"/>
<path d="" fill="#80A7FF" transform="translate(0,0)"/>
<path d="" fill="#80A7FF" transform="translate(0,0)"/>
<path d="" fill="#6997FF" transform="translate(0,0)"/>
<path d="" fill="#80A7FF" transform="translate(0,0)"/>
<path d="" fill="#80A7FF" transform="translate(0,0)"/>
<path d="" fill="#6897FF" transform="translate(0,0)"/>
<path d="" fill="#80A6FF" transform="translate(0,0)"/>
<path d="" fill="#6A98FF" transform="translate(0,0)"/>
<path d="" fill="#F7CB74" transform="translate(0,0)"/>
<path d="" fill="#F7CB75" transform="translate(0,0)"/>
<path d="" fill="#F6CA73" transform="translate(0,0)"/>
<path d="" fill="#F6CA73" transform="translate(0,0)"/>
<path d="" fill="#DB4646" transform="translate(0,0)"/>
<path d="" fill="#F2C366" transform="translate(0,0)"/>
<path d="" fill="#DA4545" transform="translate(0,0)"/>
<path d="" fill="#F1C061" transform="translate(0,0)"/>
<path d="" fill="#DA4545" transform="translate(0,0)"/>
<path d="" fill="#DB4646" transform="translate(0,0)"/>
<path d="" fill="#DB4646" transform="translate(0,0)"/>
<path d="" fill="#DB4646" transform="translate(0,0)"/>
<path d="" fill="#DA4646" transform="translate(0,0)"/>
<path d="" fill="#193C8A" transform="translate(0,0)"/>
<path d="" fill="#5A5195" transform="translate(0,0)"/>
<path d="" fill="#DB4646" transform="translate(0,0)"/>
<path d="" fill="#193C8A" transform="translate(0,0)"/>
<path d="" fill="#183B89" transform="translate(0,0)"/>
<path d="" fill="#DB4646" transform="translate(0,0)"/>
<path d="" fill="#DB4646" transform="translate(0,0)"/>
<path d="" fill="#DB4646" transform="translate(0,0)"/>
<path d="" fill="#193C8A" transform="translate(0,0)"/>
<path d="" fill="#183B89" transform="translate(0,0)"/>
<path d="" fill="#193C8A" transform="translate(0,0)"/>
<path d="" fill="#2B56B3" transform="translate(0,0)"/>
<path d="" fill="#2B56B3" transform="translate(0,0)"/>
<path d="" fill="#F6C971" transform="translate(0,0)"/>
<path d="" fill="#2B56B3" transform="translate(0,0)"/>
<path d="" fill="#2B56B3" transform="translate(0,0)"/>
<path d="" fill="#F2C264" transform="translate(0,0)"/>
<path d="" fill="#2A55B2" transform="translate(0,0)"/>
<path d="" fill="#2B56B3" transform="translate(0,0)"/>
<path d="" fill="#193C8A" transform="translate(0,0)"/>
<path d="" fill="#193C8A" transform="translate(0,0)"/>
<path d="" fill="#193C8A" transform="translate(0,0)"/>
<path d="" fill="#183C8A" transform="translate(0,0)"/>
<path d="" fill="#193B8A" transform="translate(0,0)"/>
<path d="" fill="#193C8A" transform="translate(0,0)"/>
<path d="" fill="#193C8A" transform="translate(0,0)"/>
<path d="" fill="#F8CE7B" transform="translate(0,0)"/>
<path d="" fill="#F6CC76" transform="translate(0,0)"/>
<path d="" fill="#F6CA73" transform="translate(0,0)"/>
<path d="" fill="#F6CB73" transform="translate(0,0)"/>
</svg>
