<?xml version="1.0" encoding="UTF-8"?>
<svg version="1.1" xmlns="http://www.w3.org/2000/svg" width="2926" height="602">
<path d="M0 0 C965.58 0 1931.16 0 2926 0 C2926 198.66 2926 397.32 2926 602 C1960.42 602 994.84 602 0 602 C0 403.34 0 204.68 0 0 Z " fill="#FEFEFE" transform="translate(0,0)"/>
<path d="M0 0 C1.21026855 0.1851416 2.42053711 0.3702832 3.66748047 0.56103516 C6.5078125 1.0859375 6.5078125 1.0859375 8.5078125 2.0859375 C7.77058369 10.47541474 6.11635321 18.65589722 4.4453125 26.8984375 C4.21680099 28.03517914 4.21680099 28.03517914 3.9836731 29.19488525 C1.30998433 42.48462506 -1.57475907 55.72303257 -4.56933594 68.94384766 C-6.20934239 76.20093098 -7.79335571 83.46067596 -9.2265625 90.76171875 C-9.36223129 91.44649292 -9.49790009 92.13126709 -9.63768005 92.83679199 C-10.27582524 96.0613805 -10.90040623 99.28744407 -11.50219727 102.51904297 C-11.72190186 103.63811035 -11.94160645 104.75717773 -12.16796875 105.91015625 C-12.35270752 106.89072998 -12.53744629 107.87130371 -12.7277832 108.8815918 C-12.98003662 109.60902588 -13.23229004 110.33645996 -13.4921875 111.0859375 C-17.01645418 112.26069306 -18.38557619 111.83961304 -21.953125 110.9765625 C-23.05462891 110.71770264 -24.15613281 110.45884277 -25.29101562 110.19213867 C-26.47115234 109.90959229 -27.65128906 109.6270459 -28.8671875 109.3359375 C-37.54130225 107.33106044 -46.17059587 105.49325351 -54.9921875 104.2734375 C-55.79575684 104.16225586 -56.59932617 104.05107422 -57.42724609 103.93652344 C-92.76298509 99.30353372 -129.61058809 100.77817759 -159.1796875 122.7734375 C-180.43224519 139.33979356 -186.57462962 161.353574 -191.26953125 186.640625 C-192.25608109 191.92125064 -193.35146865 197.16342191 -194.5546875 202.3984375 C-195.97116737 208.58377972 -197.21317872 214.78391649 -198.3671875 221.0234375 C-199.8412586 228.96158876 -201.52078686 236.83688846 -203.3046875 244.7109375 C-205.91815187 256.25681381 -208.27779922 267.84186207 -210.57287598 279.45404053 C-212.27897546 288.08301113 -214.0217336 296.69397769 -216 305.26538086 C-218.03009891 314.21972207 -219.68097356 323.25764337 -221.38696289 332.27832031 C-221.63051514 333.55803711 -221.87406738 334.83775391 -222.125 336.15625 C-222.34043457 337.29852051 -222.55586914 338.44079102 -222.77783203 339.61767578 C-223.42993173 342.78367999 -224.18802188 345.89636697 -224.9854126 349.02734375 C-225.84141787 352.50456234 -226.54888059 356.01064916 -227.26171875 359.51953125 C-227.42305801 360.30690674 -227.58439728 361.09428223 -227.75062561 361.90551758 C-228.27035125 364.44447906 -228.78754753 366.98394824 -229.3046875 369.5234375 C-229.66346152 371.27809922 -230.02234896 373.03273775 -230.38134766 374.78735352 C-232.60634927 385.67493993 -234.80932526 396.56681257 -236.94458008 407.47241211 C-237.1227124 408.37483643 -237.30084473 409.27726074 -237.484375 410.20703125 C-237.63245605 410.9642749 -237.78053711 411.72151855 -237.93310547 412.50170898 C-238.38482554 414.58968145 -238.89246778 416.66550751 -239.41723633 418.73632812 C-240.65737195 423.6472981 -241.67836827 428.59815392 -242.69921875 433.55859375 C-243.01012703 435.05790688 -243.01012703 435.05790688 -243.32731628 436.58750916 C-243.98798049 439.7741686 -244.64653166 442.96125913 -245.3046875 446.1484375 C-246.80740567 453.41959964 -248.31811601 460.68898274 -249.84136963 467.95587158 C-250.50184177 471.13236909 -251.14658675 474.31181384 -251.79052734 477.49169922 C-252.21534566 479.5427416 -252.64062102 481.59368938 -253.06640625 483.64453125 C-253.25129105 484.57805923 -253.43617584 485.51158722 -253.62666321 486.47340393 C-255.47259079 495.24159743 -257.98303706 501.87550658 -265.4921875 507.0859375 C-270.33528505 509.70252852 -275.23953926 509.39563871 -280.60327148 509.40820312 C-281.61848877 509.41813293 -282.63370605 509.42806274 -283.6796875 509.43829346 C-287.03257979 509.46746514 -290.385283 509.48112654 -293.73828125 509.4921875 C-296.07088729 509.50369391 -298.40349329 509.51520934 -300.73609924 509.5267334 C-305.6242867 509.54773131 -310.51240856 509.55943185 -315.40063477 509.56640625 C-321.66332295 509.57738807 -327.92514415 509.62547702 -334.18756008 509.68235016 C-339.00456787 509.71959598 -343.82136631 509.73001356 -348.63850594 509.733078 C-350.94740618 509.73913103 -353.25630273 509.75518833 -355.56506157 509.78144836 C-358.79461677 509.81556785 -362.0220466 509.81181304 -365.25170898 509.79882812 C-366.20410965 509.81725769 -367.15651031 509.83568726 -368.13777161 509.85467529 C-372.7845672 509.79615981 -375.63229226 509.5223607 -379.06971741 506.22888184 C-383.43941237 500.55958252 -382.92367377 494.88105534 -382.1484375 488.0625 C-381.21679675 481.64970616 -379.91058883 475.38809331 -378.40234375 469.08984375 C-377.18017393 463.8442964 -376.16274966 458.55640503 -375.1171875 453.2734375 C-373.44251105 444.82872527 -371.74594346 436.3896117 -369.9921875 427.9609375 C-369.78972412 426.98181396 -369.58726074 426.00269043 -369.37866211 424.99389648 C-368.32752304 419.94618275 -367.2316232 414.91330252 -366.06640625 409.890625 C-362.47941244 394.34201872 -359.70935608 382.10803856 -368.4921875 367.8359375 C-373.43526001 362.49741919 -381.30825044 359.07502598 -388.4296875 358.0859375 C-401.70731956 357.57770278 -413.98466114 361.69663827 -424.4296875 369.8984375 C-433.51534485 378.52406157 -437.16140325 388.96293656 -440.1171875 400.7734375 C-440.365896 401.76601563 -440.61460449 402.75859375 -440.87084961 403.78125 C-444.76283032 419.812142 -447.76183346 436.05181713 -450.94352722 452.23475647 C-452.36141606 459.44274006 -453.80736322 466.64396061 -455.3046875 473.8359375 C-455.49522705 474.75117187 -455.6857666 475.66640625 -455.88208008 476.609375 C-457.35159001 483.58287941 -458.98012903 490.51271808 -460.6953125 497.4296875 C-461.53248407 501.27082763 -462.00456826 505.18498361 -462.4921875 509.0859375 C-504.0721875 509.0859375 -545.6521875 509.0859375 -588.4921875 509.0859375 C-585.62876021 494.19611562 -582.77462454 479.35598591 -579.55459595 464.54769897 C-578.57332505 460.03440662 -577.60210899 455.51894381 -576.62890625 451.00390625 C-576.34577827 449.69245384 -576.34577827 449.69245384 -576.05693054 448.35450745 C-574.61373943 441.66612894 -573.19643617 434.97272206 -571.8046875 428.2734375 C-571.61430908 427.36577637 -571.42393066 426.45811523 -571.2277832 425.52294922 C-570.15231306 420.37116698 -569.12901365 415.21219968 -568.140625 410.04296875 C-563.91068569 388.23732299 -558.30115691 367.59128706 -547.4921875 348.0859375 C-546.85988254 346.90016293 -546.22836645 345.71396734 -545.59765625 344.52734375 C-538.35818273 331.30166605 -529.11907648 319.63820428 -519.4921875 308.0859375 C-518.78964844 307.16039062 -518.08710937 306.23484375 -517.36328125 305.28125 C-516.74582031 304.55679687 -516.12835937 303.83234375 -515.4921875 303.0859375 C-514.8321875 303.0859375 -514.1721875 303.0859375 -513.4921875 303.0859375 C-513.4921875 302.4259375 -513.4921875 301.7659375 -513.4921875 301.0859375 C-512.1640625 299.74609375 -512.1640625 299.74609375 -510.2421875 298.1484375 C-506.72453947 295.17716063 -503.38538544 292.07753125 -500.0546875 288.8984375 C-461.96905201 253.43345792 -408.32007298 235.2077587 -356.87890625 236.89990234 C-347.35321928 237.42315591 -337.73863398 238.69305828 -328.4921875 241.0859375 C-328.36166992 240.39258301 -328.23115234 239.69922852 -328.09667969 238.98486328 C-325.59738946 225.74650373 -323.0123407 212.54855247 -320.01904297 199.41308594 C-319.00964953 194.95454179 -318.03116861 190.48928635 -317.0546875 186.0234375 C-316.73624878 184.57759277 -316.73624878 184.57759277 -316.41137695 183.10253906 C-315.30972033 178.04949626 -314.27414092 172.9937749 -313.34375 167.90625 C-309.51233289 147.12105592 -303.67710689 127.66220558 -293.4921875 109.0859375 C-292.99074219 108.10882813 -292.48929687 107.13171875 -291.97265625 106.125 C-286.12237993 94.87570835 -278.51829449 84.85752795 -270.4921875 75.0859375 C-269.81800781 74.22613281 -269.14382813 73.36632812 -268.44921875 72.48046875 C-259.39022802 61.04534931 -249.0764114 50.95173019 -237.4921875 42.0859375 C-236.93305664 41.65571289 -236.37392578 41.22548828 -235.79785156 40.78222656 C-202.39083813 15.2143385 -163.10615009 0.54395449 -121.4921875 -4.9140625 C-120.74727051 -5.01702637 -120.00235352 -5.11999023 -119.23486328 -5.22607422 C-79.57011015 -10.48204841 -39.27980128 -6.00902328 0 0 Z " fill="#3BD0EE" transform="translate(617.4921875,45.9140625)"/>
<path d="M0 0 C21.12 0 42.24 0 64 0 C64.33 51.81 64.66 103.62 65 157 C73.90329727 145.31442234 82.74875132 133.65699195 91.43359375 121.8203125 C102.89538434 106.26708173 102.89538434 106.26708173 108.68234253 99.18904114 C110.50623852 96.67940396 111.76008876 94.53995174 113.10171509 91.79411316 C116.47775168 85.53975401 120.1076772 80.16495525 127.18478966 78.04680634 C136.2704697 76.66833365 145.44071659 76.99148221 154.59783959 77.27630305 C158.62651853 77.38338999 162.655466 77.39262288 166.68534851 77.41273499 C174.29782319 77.46534479 181.90609235 77.60450437 189.51672381 77.77567631 C198.1885724 77.96643481 206.86063401 78.05934259 215.53406203 78.14449871 C233.35841614 78.3216678 251.17886877 78.62020576 269 79 C269.2902002 79.86029312 269.58040039 80.72058624 269.87939453 81.60694885 C277.98376274 105.63107687 286.09464998 129.65299746 294.21327972 153.67230988 C294.95733597 155.87376881 295.70125702 158.07527337 296.44512939 160.27679443 C298.80923705 167.27299348 301.17611751 174.2682402 303.54907227 181.26144409 C304.22360637 183.2506169 304.89711248 185.24013861 305.56958008 187.23001099 C306.48239343 189.93034069 307.39883295 192.62940973 308.31640625 195.328125 C308.57869522 196.10661301 308.84098419 196.88510101 309.11122131 197.68717957 C310.08131476 201.1109244 310.08131476 201.1109244 312 204 C315.1421906 194.87427623 318.12355166 185.7435803 320.6875 176.4375 C323.50184215 166.27739557 326.85479092 156.32072373 330.23135376 146.33770752 C333.42670924 136.8792192 336.41977107 127.41022071 339.07202148 117.78222656 C340.69969517 111.91091114 342.64533069 106.21656213 344.76953125 100.50390625 C346.51472203 95.53426774 347.96133622 90.48775367 349.38891602 85.41894531 C350.9012713 80.0987287 350.9012713 80.0987287 352 79 C354.05556661 78.90586313 356.11440181 78.88257002 358.17211914 78.88647461 C359.13794167 78.88625557 359.13794167 78.88625557 360.12327576 78.8860321 C362.26060303 78.88673115 364.39784413 78.89452309 366.53515625 78.90234375 C368.01346285 78.90420796 369.49177007 78.90563185 370.97007751 78.90663147 C374.86798802 78.91045641 378.76586149 78.92028648 382.66375732 78.93133545 C386.63846333 78.94155008 390.61317529 78.9461292 394.58789062 78.95117188 C402.391944 78.96190878 410.19596682 78.97898491 418 79 C412.67935192 94.56275183 406.93569485 109.95913288 401.12960815 125.34545898 C398.44641616 132.45677371 395.77257966 139.57160458 393.1015625 146.6875 C392.836229 147.39432419 392.5708955 148.10114838 392.29752159 148.82939148 C387.59692668 161.35724135 382.98441875 173.91550502 378.4375 186.5 C373.32700525 200.63896533 368.13076782 214.74109974 362.83276367 228.81088257 C357.31710546 243.45952845 351.8662783 258.13144334 346.4375 272.8125 C335.68130615 301.89616896 324.84227608 330.94826023 314 360 C291.23 360 268.46 360 245 360 C245.65930829 356.70345854 246.18980214 354.21011681 247.37597656 351.19238281 C247.79406334 350.11968391 247.79406334 350.11968391 248.22059631 349.02531433 C248.52420578 348.25899185 248.82781525 347.49266937 249.140625 346.703125 C249.45966293 345.88898636 249.77870087 345.07484772 250.10740662 344.23603821 C250.79449679 342.48415655 251.48339568 340.73298341 252.17391968 338.98245239 C253.25774036 336.23034517 254.3326032 333.47488141 255.40551758 330.71850586 C258.55222819 322.65196853 261.7192198 314.59917456 265.08169556 306.61972046 C266.33761933 303.63843652 267.57362168 300.64906222 268.8092041 297.65930176 C269.3892819 296.27445167 269.98033783 294.89414307 270.58288574 293.5189209 C274.51622108 285.07363123 274.51622108 285.07363123 274.18359375 276.046875 C273.48625333 274.3517029 272.75477221 272.67039247 272 271 C271.1436811 268.65335189 270.29836285 266.3026754 269.4609375 263.94921875 C268.44148733 261.19186658 267.4072306 258.44008923 266.375 255.6875 C265.80354435 254.15680046 265.23226028 252.62603686 264.66113281 251.09521484 C258.25430462 233.94250782 251.77169314 216.81811864 245.28994751 199.69361877 C241.70764155 190.22923219 238.1314711 180.76253299 234.55599976 171.29556274 C233.50291191 168.50770874 232.44939817 165.72001606 231.39575195 162.93237305 C228.11982198 154.26450311 224.84648802 145.5956803 221.58248901 136.92330933 C220.06627735 132.89526168 218.54857037 128.86777815 217.03076172 124.84033203 C216.31826972 122.94852098 215.60648351 121.05644392 214.89550781 119.1640625 C210.09080227 106.37622518 205.11958353 93.66512738 200 81 C196.45168884 84.51688727 193.08753159 88.1132535 189.875 91.9375 C189.39909424 92.50178711 188.92318848 93.06607422 188.43286133 93.64746094 C184.63487259 98.17979833 180.97413113 102.81016441 177.34399414 107.47729492 C172.99143064 113.05610579 168.49265891 118.50926862 163.98339844 123.96166992 C160.32087179 128.39151103 156.69773144 132.84801528 153.12109375 137.34765625 C150.83598825 140.20509021 148.53110877 143.04571179 146.22143555 145.88330078 C145.08152256 147.28495241 143.94363401 148.68825307 142.80786133 150.09326172 C140.35893505 153.12046175 137.90381558 156.13332267 135.3515625 159.07421875 C134.61679688 159.93660156 133.88203125 160.79898438 133.125 161.6875 C132.48820312 162.41324219 131.85140625 163.13898438 131.1953125 163.88671875 C129.77069453 165.93248129 129.77069453 165.93248129 130.22680664 168.29931641 C131.11565159 171.40395892 132.4173135 173.61612547 134.17578125 176.32421875 C134.83231689 177.34290039 135.48885254 178.36158203 136.1652832 179.41113281 C137.22815552 181.03293457 137.22815552 181.03293457 138.3125 182.6875 C139.05027894 183.82483507 139.78749668 184.96253437 140.52416992 186.10058594 C145.03360013 193.0525237 149.6020924 199.96559006 154.21923828 206.84643555 C158.92669466 213.86401814 163.55967395 220.92979973 168.1875 228 C168.59174194 228.6174408 168.99598389 229.23488159 169.41247559 229.87103271 C173.82866788 236.61700476 178.23982175 243.36626222 182.6484375 250.1171875 C183.3943543 251.25920523 184.14028511 252.40121382 184.88623047 253.54321289 C186.31782246 255.73492659 187.74914514 257.92681623 189.18017578 260.11889648 C193.51059815 266.74522063 197.86881009 273.35160439 202.31079102 279.90380859 C205 283.89432479 205 283.89432479 205 285 C195.24029039 285.6064645 185.48514011 286.06621626 175.71033478 286.34711647 C171.16838935 286.48208492 166.63943437 286.66427022 162.10498047 286.96142578 C133.60430411 288.78084543 133.60430411 288.78084543 126.32901001 283.87269592 C119.90158642 278.13601156 116.52567334 270.1068695 113.38763428 262.25796509 C111.28678476 257.32547352 108.43332657 252.9689615 105.5 248.5 C104.44875964 246.81260761 103.40138389 245.12279613 102.359375 243.4296875 C101.82376953 242.5644043 101.28816406 241.69912109 100.73632812 240.80761719 C82.67194123 211.59776773 82.67194123 211.59776773 74 197 C69.36565542 201.29105979 65.43660724 205.42845389 64.36076355 211.76499939 C64.32901131 213.13065946 64.32361979 214.4971132 64.34057617 215.86303711 C64.33009247 216.61508423 64.31960876 217.36713135 64.30880737 218.14196777 C64.28022459 220.60418817 64.28632852 223.06498832 64.29296875 225.52734375 C64.27984343 227.2437159 64.26453665 228.96007263 64.24714661 230.67640686 C64.20738089 235.17599678 64.19711163 239.67518186 64.19311523 244.17492676 C64.18212206 249.58333026 64.13426284 254.99151964 64.09262848 260.39975739 C64.033605 268.60001933 64.0212307 276.79916109 64 285 C42.88 285 21.76 285 0 285 C0 190.95 0 96.9 0 0 Z " fill="#3D1D6C" transform="translate(1485,195)"/>
<path d="M0 0 C26.07 0 52.14 0 79 0 C97.41924858 40.02923314 97.41924858 40.02923314 105 57 C106.95707115 61.37556558 108.91574865 65.75041026 110.875 70.125 C111.40359619 71.30578125 111.93219238 72.4865625 112.47680664 73.703125 C115.96301657 81.48456178 119.47023496 89.25634266 122.98828125 97.0234375 C123.41761963 97.97147247 123.84695801 98.91950745 124.28930664 99.89627075 C126.43387571 104.63098861 128.57997685 109.36500514 130.72802734 114.09814453 C131.52053546 115.84666716 132.31301715 117.59520176 133.10546875 119.34375 C133.46949295 120.14461029 133.83351715 120.94547058 134.20857239 121.77059937 C135.89050948 125.48418645 137.53063659 129.19549144 139 133 C145.08946239 121.09299133 150.71067271 109.01177429 156.1875 96.8125 C157.03155938 94.93884757 157.87588265 93.06531399 158.72045898 91.19189453 C161.15148147 85.79661784 163.57658932 80.39869916 166 75 C166.61685345 73.62646101 167.23371467 72.25292552 167.85058594 70.87939453 C170.43398304 65.12565476 173.01281984 59.369878 175.58984375 53.61328125 C179.52037897 44.8352058 183.45791466 36.06028166 187.40060425 27.28765869 C188.20960681 25.48704778 189.01814809 23.68622953 189.82620239 21.88519287 C190.95845854 19.36172419 192.09232405 16.83898444 193.2265625 14.31640625 C193.56349625 13.56457565 193.90042999 12.81274506 194.24757385 12.03813171 C194.56628952 11.3301796 194.88500519 10.62222748 195.21337891 9.89282227 C195.48727448 9.28302017 195.76117004 8.67321808 196.04336548 8.04493713 C197.30965819 5.33806327 198.66353725 2.67292549 200 0 C226.07 0 252.14 0 279 0 C279 90.09 279 180.18 279 273 C256.56 273 234.12 273 211 273 C210.67 214.26 210.34 155.52 210 95 C203.73 109.85 197.46 124.7 191 140 C183.37499294 157.90256614 183.37499294 157.90256614 179.64233398 166.60644531 C178.13627414 170.11948975 176.6335452 173.6339487 175.13085938 177.1484375 C174.1434238 179.4532084 173.15580157 181.75789933 172.16796875 184.0625 C171.73356979 185.07916748 171.29917084 186.09583496 170.85160828 187.14331055 C167.69334507 194.49693075 164.35714113 201.72619421 161 209 C145.49 209 129.98 209 114 209 C109.85949167 200.12748216 105.76438631 191.31066499 101.953125 182.3046875 C101.4975824 181.2340506 101.04203979 180.1634137 100.57269287 179.06033325 C99.12934612 175.66625677 97.68964527 172.27064788 96.25 168.875 C95.33486326 166.72255937 94.41949926 164.57021534 93.50390625 162.41796875 C83.96194836 139.9624744 74.49043912 117.47735581 65 95 C64.67 153.74 64.34 212.48 64 273 C42.88 273 21.76 273 0 273 C0 182.91 0 92.82 0 0 Z " fill="#3D1D6C" transform="translate(766,207)"/>
<path d="M0 0 C1.093125 0.19335938 2.18625 0.38671875 3.3125 0.5859375 C6.28304814 1.2357449 9.10534686 2.06390095 12 3 C13.17900879 3.38067627 13.17900879 3.38067627 14.38183594 3.76904297 C52.08479988 16.08479988 52.08479988 16.08479988 57 21 C57.09405142 22.9943173 57.11743249 24.99199543 57.11352539 26.98852539 C57.11344986 28.26977798 57.11337433 29.55103058 57.11329651 30.87110901 C57.10818909 32.27995848 57.10297309 33.68880756 57.09765625 35.09765625 C57.09579202 36.53112234 57.09436814 37.96458907 57.09336853 39.39805603 C57.08954372 43.17759957 57.07971377 46.9571049 57.06866455 50.7366333 C57.05844963 54.59069298 57.05387074 58.44475882 57.04882812 62.29882812 C57.03809146 69.86590287 57.02101549 77.43294609 57 85 C52.31163942 85.24803714 49.53545727 85.34202316 45.90625 82.25390625 C44.83733521 81.37508789 44.83733521 81.37508789 43.74682617 80.47851562 C43.00537354 79.84623047 42.2639209 79.21394531 41.5 78.5625 C16.54346401 58.24671631 -12.7799134 46.09703824 -45.31787109 49.22265625 C-63.54172182 51.46267945 -81.86340645 59.12741504 -93.984375 73.32421875 C-113.62956331 98.79443383 -116.71160731 129.89637138 -112.9140625 160.98876953 C-110.83356961 176.18677008 -105.56151221 190.92230037 -96 203 C-94.9171875 204.5159375 -94.9171875 204.5159375 -93.8125 206.0625 C-82.57601402 218.97716246 -64.36280851 226.98777964 -47.75 229.625 C-46.97293701 229.74979736 -46.19587402 229.87459473 -45.39526367 230.00317383 C-33.03115046 231.78331318 -20.46069713 231.70749537 -8 232 C-8 213.85 -8 195.7 -8 177 C-25.49 177 -42.98 177 -61 177 C-61 160.17 -61 143.34 -61 126 C-21.73 126 17.54 126 58 126 C58 170.55 58 215.1 58 261 C37.7212932 268.15719064 37.7212932 268.15719064 28 271 C27.35546875 271.1944873 26.7109375 271.38897461 26.046875 271.58935547 C13.52254006 275.35901549 0.90878529 277.92925477 -12 280 C-13.55811401 280.27034058 -13.55811401 280.27034058 -15.14770508 280.54614258 C-24.86101031 282.11637275 -34.37635011 282.35796466 -44.1875 282.3125 C-45.41264313 282.30976578 -45.41264313 282.30976578 -46.66253662 282.30697632 C-58.68486082 282.26179953 -70.26200004 281.79996508 -82 279 C-82.77359863 278.82839355 -83.54719727 278.65678711 -84.34423828 278.47998047 C-95.85237089 275.90394518 -106.40910146 272.16826599 -117 267 C-117.99515625 266.51660156 -118.9903125 266.03320312 -120.015625 265.53515625 C-148.78616723 250.69777662 -169.02294706 224.25722924 -179.00366211 193.89477539 C-181.20746943 186.8033162 -182.5995433 179.66222985 -183.65161133 172.31445312 C-183.91116429 170.59016296 -184.20260344 168.87061422 -184.51049805 167.15429688 C-186.01136018 158.46333575 -186.36017913 149.92078033 -186.3125 141.125 C-186.31034485 140.40655914 -186.3081897 139.68811829 -186.30596924 138.94790649 C-186.10832222 97.64710635 -174.15537659 61.65019676 -144.55151367 32.18505859 C-134.01519654 22.00083342 -122.25473489 15.07992753 -109 9 C-107.98292969 8.51660156 -106.96585938 8.03320312 -105.91796875 7.53515625 C-98.25673443 4.08707678 -90.41390508 2.11735572 -82.21240234 0.45410156 C-80.79809715 0.1638116 -79.38649837 -0.14022047 -77.97900391 -0.46191406 C-53.25839562 -6.07665119 -24.74887157 -4.46130974 0 0 Z " fill="#41D9F3" transform="translate(2100,204)"/>
<path d="M0 0 C1.20914063 0.33644531 2.41828125 0.67289062 3.6640625 1.01953125 C34.40511343 10.33400386 60.06624789 31.90573236 75.80224609 59.72998047 C94.59740785 95.35114109 92.20784879 133.88661115 83.1875 171.9375 C81.92801836 177.25093815 80.84911726 182.5904062 79.80078125 187.94921875 C78.80292417 193.03686618 77.74466015 198.11189964 76.6875 203.1875 C76.47681885 204.19965576 76.2661377 205.21181152 76.04907227 206.25463867 C74.87985144 211.85103158 73.69237539 217.44309553 72.484375 223.03125 C72.22914063 224.21203125 71.97390625 225.3928125 71.7109375 226.609375 C71.19811765 228.98181429 70.68509903 231.35421062 70.171875 233.7265625 C68.37718598 242.08308325 66.71849503 250.45783766 65.20483398 258.86987305 C64.10256435 264.89743565 64.10256435 264.89743565 63 266 C61.35509451 266.09608663 59.70604309 266.12187787 58.05833435 266.12025452 C56.98836212 266.12162918 55.91838989 266.12300385 54.81599426 266.12442017 C53.04007149 266.11902725 53.04007149 266.11902725 51.22827148 266.11352539 C49.36999725 266.11374443 49.36999725 266.11374443 47.47418213 266.1139679 C44.06730167 266.11338892 40.66048116 266.10835959 37.25361133 266.10139394 C33.69683174 266.09515993 30.14005142 266.09455656 26.58326721 266.09336853 C19.84363418 266.09025535 13.10401729 266.08204215 6.36439139 266.07201904 C-1.30658398 266.06085748 -8.97756011 266.05534735 -16.64854157 266.05032361 C-32.43237041 266.03985952 -48.21618313 266.02226035 -64 266 C-63.68024296 264.07409157 -63.36014476 262.14823979 -63.03990173 260.22241211 C-62.86168349 259.14994736 -62.68346525 258.0774826 -62.49984646 256.97251892 C-61.60192251 251.63268732 -60.58244351 246.3176002 -59.5625 241 C-59.35818359 239.91460938 -59.15386719 238.82921875 -58.94335938 237.7109375 C-57.95821508 232.56731807 -56.89939083 227.47362903 -55.58984375 222.40234375 C-53.40069858 213.86039888 -51.74094721 205.20435942 -50 196.5625 C-49.31464134 193.16753152 -48.62714049 189.77300751 -47.9375 186.37890625 C-47.77263092 185.56494888 -47.60776184 184.75099152 -47.43789673 183.91236877 C-46.26305149 178.15872864 -44.96582098 172.44828522 -43.55224609 166.74804688 C-41.07605693 154.42621431 -43.98443984 142.2337314 -50.2890625 131.53125 C-57.35834247 121.07258922 -67.79973114 114.96991374 -80 112.0625 C-99.97775887 108.5383088 -116.40648018 113.92799729 -134 123 C-132.50029903 113.53602057 -130.69926614 104.14247407 -128.8125 94.75 C-128.66104523 93.99288727 -128.50959045 93.23577454 -128.35354614 92.45571899 C-126.02885542 80.84922396 -123.57005928 69.27709142 -121.0005188 57.72250366 C-119.36758737 50.37860008 -117.78317801 43.03047969 -116.33203125 35.6484375 C-116.19756088 34.96548111 -116.06309052 34.28252472 -115.92454529 33.57887268 C-115.28702952 30.33057805 -114.65853464 27.08099234 -114.04077148 23.82885742 C-113.40304298 20.54150522 -112.72297102 17.26957912 -112 14 C-111.80543213 13.09531982 -111.61086426 12.19063965 -111.41040039 11.25854492 C-110.80312288 8.95551724 -110.20908196 7.05085903 -109 5 C-106.33420345 3.45456294 -104.82524476 2.82415443 -101.9375 2.1875 C-101.23431641 2.0021167 -100.53113281 1.8167334 -99.80664062 1.62573242 C-97.54571079 1.04331889 -95.27602939 0.51993212 -93 0 C-91.50094297 -0.37094759 -90.0022421 -0.74333754 -88.50390625 -1.1171875 C-59.36052552 -8.18445733 -28.86782882 -8.37359192 0 0 Z " fill="#422C65" transform="translate(558,289)"/>
<path d="M0 0 C22.11 0 44.22 0 67 0 C73.77027027 27.08108108 73.77027027 27.08108108 76.5 39.5 C78.75648777 49.65926571 81.15552768 59.77050944 83.72827148 69.85449219 C85.81981958 78.12085595 87.70548235 86.4286931 89.5625 94.75 C93.63607337 114.04464427 93.63607337 114.04464427 99 133 C101.77875867 124.96959316 104.17377677 116.90947844 106.3125 108.6875 C108.54616891 100.23630249 110.90401401 91.84700357 113.5 83.5 C116.02336721 75.37885867 118.32555964 67.22136298 120.5 59 C122.95397932 49.72841996 125.59613578 40.53981699 128.43212891 31.37817383 C130.78290996 23.77447052 132.99038704 16.1357233 135.13500977 8.47143555 C135.36631592 7.6494165 135.59762207 6.82739746 135.8359375 5.98046875 C136.03751465 5.25754639 136.2390918 4.53462402 136.44677734 3.78979492 C137 2 137 2 138 0 C156.81 0 175.62 0 195 0 C196.19625 4.681875 197.3925 9.36375 198.625 14.1875 C201.21369184 24.26181261 203.88017762 34.29989039 206.78198242 44.28930664 C211.67505562 61.16736438 216.06179661 78.1862327 220.43408203 95.20507812 C222.50470756 103.21571544 224.70710354 111.18031043 227.04711914 119.11645508 C227.38924438 120.28470825 227.38924438 120.28470825 227.73828125 121.4765625 C227.93462158 122.13736816 228.13096191 122.79817383 228.33325195 123.47900391 C229.34177175 127.29225014 230.16276878 131.1460393 231 135 C233.14896924 125.37569821 235.29436193 115.75060168 237.4375 106.125 C237.59710835 105.4082674 237.75671669 104.69153481 237.92116165 103.95308304 C242.33846312 84.11424531 246.72291114 64.26978024 250.89428711 44.37744141 C254.03323567 29.52153459 257.54631739 14.80149688 261 0 C283.11 0 305.22 0 328 0 C325.75546306 8.97814776 325.75546306 8.97814776 324.484375 13.2578125 C324.20601807 14.20124512 323.92766113 15.14467773 323.64086914 16.11669922 C323.34688232 17.10943848 323.05289551 18.10217773 322.75 19.125 C320.42619149 27.01834176 318.18695916 34.9258115 316.0625 42.875 C313.58169496 52.12095031 310.80587544 61.2603559 307.96118164 70.40014648 C305.63368866 77.89219818 303.41930223 85.40706788 301.2890625 92.95727539 C299.25379028 100.15664052 297.1347367 107.3295513 295 114.5 C292.40287349 123.23158196 289.84420098 131.97180132 287.35717773 140.73535156 C284.93864941 149.24818418 282.45983098 157.74335362 279.98245239 166.23919678 C276.94281997 176.66900274 273.98225393 187.11864266 271.11938477 197.59863281 C270.85311279 198.56381836 270.58684082 199.52900391 270.3125 200.5234375 C270.08175781 201.36825684 269.85101562 202.21307617 269.61328125 203.08349609 C269 205 269 205 268 206 C265.88318683 206.0942174 263.76319242 206.11742761 261.64428711 206.11352539 C260.64920387 206.11374443 260.64920387 206.11374443 259.63401794 206.1139679 C257.43176044 206.11326881 255.22958655 206.10547665 253.02734375 206.09765625 C251.50419664 206.09579206 249.98104893 206.09436816 248.457901 206.09336853 C244.44162349 206.08954346 240.42538192 206.07971328 236.40911865 206.06866455 C232.31376634 206.05845019 228.21840824 206.05387086 224.12304688 206.04882812 C216.08201472 206.038091 208.04101183 206.02101472 200 206 C199.36291566 203.94123824 198.72679107 201.88217947 198.09106445 199.82299805 C197.73671829 198.67639206 197.38237213 197.52978607 197.01728821 196.34843445 C195.65328927 191.85879131 194.40475163 187.3437192 193.1875 182.8125 C192.93742187 181.88961182 192.68734375 180.96672363 192.4296875 180.01586914 C191.03409494 174.85930931 189.65112675 169.69938733 188.26953125 164.5390625 C187.6798523 162.3384975 187.09000764 160.1379769 186.5 157.9375 C186.20649658 156.84203857 185.91299316 155.74657715 185.6105957 154.61791992 C183.76719617 147.76613469 181.85101678 140.93960143 179.875 134.125 C177.68494603 126.56510906 175.70368788 118.97262143 173.828125 111.32910156 C170.90387711 99.45759843 167.58994571 87.68714186 164 76 C161.43856996 82.37326231 159.71933994 88.76316056 158.125 95.4375 C156.41448641 102.44409806 154.66574146 109.41292704 152.5625 116.3125 C150.32837321 123.65515955 148.40241375 131.06505127 146.5 138.5 C144.44683973 146.52010589 142.32473122 154.49340154 139.91845703 162.41430664 C137.54279791 170.34125085 135.5368228 178.36783616 133.49804688 186.38671875 C133.07749023 188.03414063 133.07749023 188.03414063 132.6484375 189.71484375 C132.40270996 190.68542725 132.15698242 191.65601074 131.90380859 192.65600586 C130.69460973 197.12991099 129.33169514 201.56101621 128 206 C105.23 206 82.46 206 59 206 C57.494375 200.699375 55.98875 195.39875 54.4375 189.9375 C51.4869666 179.57474435 48.50490362 169.22889929 45.3125 158.9375 C42.49327441 149.83594635 39.99130729 140.66719132 37.54736328 131.45849609 C35.65181255 124.34251619 33.62969011 117.28262047 31.47802734 110.24047852 C28.90291844 101.77307203 26.48493678 93.26202823 24.0625 84.75 C21.15379782 74.53309061 18.23538653 64.31984947 15.25 54.125 C12.37838299 44.31654501 9.55778324 34.49436712 6.76025391 24.66455078 C5.94146474 21.79484462 5.11765727 18.92660991 4.29296875 16.05859375 C4.01396729 15.08688232 3.73496582 14.1151709 3.44750977 13.11401367 C2.9086237 11.23758968 2.3687826 9.36143964 1.82788086 7.4855957 C1.5881958 6.64988037 1.34851074 5.81416504 1.1015625 4.953125 C0.88838379 4.21223633 0.67520508 3.47134766 0.45556641 2.70800781 C0 1 0 1 0 0 Z " fill="#41D9F3" transform="translate(2578,274)"/>
<path d="M0 0 C1.12003418 -0.00942627 2.24006836 -0.01885254 3.39404297 -0.02856445 C30.76961963 0.07772899 56.70885996 8.59246946 76.78515625 27.57421875 C99.62426149 51.17118269 105.90600039 81.82427837 105.66040039 113.63500977 C105.11008546 143.49120088 95.93237634 170.83171445 75.1015625 192.62890625 C59.89563113 207.15284402 40.79840969 213.95666596 20.375 217.25 C19.34632813 217.435625 18.31765625 217.62125 17.2578125 217.8125 C-11.38623428 221.03999823 -43.78917298 217.57114388 -67.125 199.1875 C-68.63385996 197.88519516 -70.1345561 196.57334169 -71.625 195.25 C-72.30691406 194.70988281 -72.98882813 194.16976562 -73.69140625 193.61328125 C-92.40554531 178.48815516 -102.56484796 152.22052297 -105.15234375 128.875 C-106.85103406 111.30301045 -106.95281161 92.44197604 -102.625 75.25 C-102.45871094 74.57904297 -102.29242187 73.90808594 -102.12109375 73.21679688 C-97.93787564 56.99520667 -90.48293994 42.95954228 -79.625 30.25 C-79.05265625 29.57582031 -78.4803125 28.90164063 -77.890625 28.20703125 C-57.94567589 6.63291551 -28.06234342 0.17770652 0 0 Z " fill="#41D9F3" transform="translate(2459.625,267.75)"/>
<path d="M0 0 C0.83038788 0.00215515 1.66077576 0.0043103 2.5163269 0.00653076 C15.28123432 0.05955378 27.75607761 0.45652637 40.25 3.3125 C41.56025146 3.61051514 41.56025146 3.61051514 42.89697266 3.91455078 C62.06588264 8.46235509 79.46074582 15.63946588 90.6875 32.6875 C98.65998466 46.08127423 100.71374069 59.41881428 100.59057617 74.83325195 C100.58972769 76.3425393 100.59020935 77.85182787 100.59190369 79.3611145 C100.59275644 83.41611198 100.57524896 87.47083748 100.55418181 91.52577233 C100.53529343 95.77914528 100.53365507 100.03252603 100.53010559 104.28593445 C100.52082056 112.32144393 100.49625531 120.35682943 100.46605712 128.39228457 C100.43240212 137.54837978 100.41599933 146.70448123 100.40097082 155.860623 C100.36970213 174.67799969 100.31473497 193.49520663 100.25 212.3125 C79.13 212.3125 58.01 212.3125 36.25 212.3125 C36.25 205.3825 36.25 198.4525 36.25 191.3125 C34.64125 192.653125 33.0325 193.99375 31.375 195.375 C10.26799486 212.53451181 -10.54170924 219.83443825 -37.75 218.3125 C-52.18143132 216.63549999 -63.68873053 209.51597823 -73.75 199.3125 C-74.39710937 198.67570313 -75.04421875 198.03890625 -75.7109375 197.3828125 C-87.54042638 184.93343774 -91.36285255 167.85912234 -91.08422852 151.18505859 C-90.46763391 132.85214537 -85.36707785 116.85916703 -71.7421875 103.9609375 C-57.2448713 91.965119 -38.76747537 85.7840969 -20.421875 82.8046875 C-19.65323624 82.67853561 -18.88459747 82.55238373 -18.09266663 82.42240906 C-9.9759873 81.12966032 -1.82604104 80.21107314 6.34887695 79.37719727 C8.84348362 79.12182825 11.33674399 78.85537195 13.83007812 78.58789062 C15.45045305 78.4186207 17.0708936 78.24997757 18.69140625 78.08203125 C19.41969131 78.0039473 20.14797638 77.92586334 20.89833069 77.84541321 C26.03657679 77.3301328 31.08583283 77.24985971 36.25 77.3125 C35.92277074 68.41186401 34.79768443 61.41905625 28.1875 55.0625 C14.46006939 44.3142139 -7.29537297 45.05744248 -23.75 46.3125 C-37.97967358 48.28621304 -52.36576192 53.60070915 -65.41015625 59.51953125 C-67.75 60.3125 -67.75 60.3125 -73.75 60.3125 C-73.75 43.8125 -73.75 27.3125 -73.75 10.3125 C-56.37190771 5.67834206 -56.37190771 5.67834206 -47.375 4.1875 C-46.488125 4.03152344 -45.60125 3.87554687 -44.6875 3.71484375 C-29.75501137 1.17001118 -15.1350449 -0.07117001 0 0 Z " fill="#3D1D6C" transform="translate(1173.75,267.6875)"/>
<path d="M0 0 C21.12 0 42.24 0 64 0 C64.495 14.355 64.495 14.355 65 29 C67.97 26.36 70.94 23.72 74 21 C94.28498866 4.98795346 111.30978194 0 138 0 C138 20.46 138 40.92 138 62 C130.25720621 62 130.25720621 62 126.26953125 61.02734375 C105.11332726 56.51982265 84.83255663 61.78816123 65 69 C64.67 114.21 64.34 159.42 64 206 C42.88 206 21.76 206 0 206 C0 138.02 0 70.04 0 0 Z " fill="#41D9F3" transform="translate(2206,274)"/>
<path d="M0 0 C21.12 0 42.24 0 64 0 C64.495 14.355 64.495 14.355 65 29 C67.97 26.36 70.94 23.72 74 21 C94.29960027 4.97641972 111.65491488 0 138 0 C138 20.46 138 40.92 138 62 C130.25720621 62 130.25720621 62 126.26953125 61.02734375 C105.11332726 56.51982265 84.83255663 61.78816123 65 69 C64.67 114.21 64.34 159.42 64 206 C42.88 206 21.76 206 0 206 C0 138.02 0 70.04 0 0 Z " fill="#3D1D6C" transform="translate(1322,274)"/>
<path d="M0 0 C12.86506253 10.0683098 17.16878763 23.29458183 19.43359375 39.1640625 C20.07923041 45.35179236 20.09783674 51.56155029 20.11523438 57.77685547 C20.12488528 59.85035188 20.15597498 61.92283081 20.1875 63.99609375 C20.32106875 80.8257563 17.33353019 99.15453693 5.875 112.25 C-2.70662043 119.64738926 -11.53237541 121.8193258 -22.6953125 121.53125 C-32.02948614 120.76580524 -40.37522871 117.40752427 -46.80859375 110.421875 C-50.20269959 105.80236472 -52.32257773 100.68811023 -54.375 95.375 C-54.62145264 94.73965332 -54.86790527 94.10430664 -55.12182617 93.44970703 C-58.9163535 83.01705223 -59.44848928 72.60071845 -59.38574219 61.60791016 C-59.37505033 59.38546256 -59.38567906 57.16382898 -59.3984375 54.94140625 C-59.41837669 36.54622325 -56.99150142 18.11956309 -44.09375 4.03125 C-32.21267625 -7.51514561 -14.13527752 -7.91575541 0 0 Z " fill="#FDFEFE" transform="translate(2479.125,318.75)"/>
<path d="M0 0 C0.24828067 5.97707067 0.42913837 11.95110833 0.54931641 17.93212891 C0.59943192 19.96358545 0.66754905 21.99468435 0.75439453 24.02490234 C1.4540784 40.80908356 1.4540784 40.80908356 -2.02880859 46.05688477 C-4.60069089 48.18422317 -6.9664184 49.62559264 -10 51 C-10.65242676 51.3388623 -11.30485352 51.67772461 -11.97705078 52.02685547 C-13.6796875 52.83984375 -13.6796875 52.83984375 -16.875 53.9375 C-17.94492188 54.31777344 -19.01484375 54.69804687 -20.1171875 55.08984375 C-21.06851562 55.39019531 -22.01984375 55.69054687 -23 56 C-23.63035156 56.20109375 -24.26070312 56.4021875 -24.91015625 56.609375 C-36.23108927 58.72543725 -47.14868867 57.13933393 -57 51.1875 C-62.78001196 44.86561192 -63.43665557 36.32509769 -63.3359375 28.13671875 C-62.60609906 21.32206444 -59.62677088 15.93678164 -54.3125 11.625 C-39.12801585 1.52103874 -17.71119222 0 0 0 Z " fill="#FDFDFD" transform="translate(1210,384)"/>
</svg>
