<svg width="300" height="57" viewBox="0 0 300 57" fill="none" xmlns="http://www.w3.org/2000/svg">
<g clip-path="url(#clip0_4003_19)">
<path d="M63.3109 4.33236C63.435 4.34983 63.5591 4.3673 63.687 4.3853C63.9782 4.43483 63.9782 4.43483 64.1832 4.52919C64.1077 5.32083 63.9381 6.09274 63.7667 6.8705C63.7433 6.97777 63.7433 6.97777 63.7194 7.0872C63.4453 8.34122 63.1495 9.5904 62.8425 10.8379C62.6743 11.5227 62.5119 12.2077 62.365 12.8967C62.351 12.9613 62.3371 13.0259 62.3228 13.0925C62.2574 13.3967 62.1933 13.7011 62.1316 14.0061C62.1091 14.1117 62.0866 14.2173 62.0634 14.3261C62.0444 14.4186 62.0255 14.5111 62.006 14.6064C61.9801 14.6751 61.9543 14.7437 61.9276 14.8145C61.5663 14.9253 61.4259 14.8856 61.0601 14.8041C60.9472 14.7797 60.8342 14.7553 60.7179 14.7301C60.5969 14.7035 60.4759 14.6768 60.3512 14.6493C59.4619 14.4601 58.5771 14.2867 57.6726 14.1716C57.5903 14.1611 57.5079 14.1506 57.423 14.1398C53.8 13.7027 50.0221 13.8418 46.9904 15.9173C44.8114 17.4805 44.1816 19.5577 43.7003 21.9438C43.5991 22.4421 43.4868 22.9367 43.3634 23.4307C43.2182 24.0144 43.0909 24.5994 42.9725 25.1882C42.8214 25.9372 42.6492 26.6803 42.4663 27.4233C42.1983 28.5128 41.9564 29.606 41.7211 30.7017C41.5462 31.5159 41.3675 32.3285 41.1647 33.1373C40.9565 33.9822 40.7873 34.835 40.6123 35.6862C40.5874 35.807 40.5624 35.9277 40.5367 36.0521C40.5146 36.1599 40.4925 36.2677 40.4697 36.3787C40.4029 36.6775 40.3252 36.9712 40.2434 37.2666C40.1556 37.5947 40.0831 37.9256 40.01 38.2567C39.9935 38.331 39.9769 38.4053 39.9599 38.4818C39.9066 38.7214 39.8536 38.961 39.8005 39.2007C39.7638 39.3662 39.727 39.5318 39.6902 39.6974C39.462 40.7247 39.2362 41.7525 39.0172 42.7815C38.999 42.8667 38.9807 42.9518 38.9619 43.0396C38.9467 43.111 38.9315 43.1825 38.9159 43.2561C38.8696 43.4531 38.8175 43.649 38.7637 43.8444C38.6366 44.3078 38.5319 44.7749 38.4272 45.243C38.3953 45.3845 38.3953 45.3845 38.3628 45.5288C38.2951 45.8295 38.2276 46.1303 38.1601 46.431C38.006 47.1171 37.8511 47.803 37.6949 48.4888C37.6272 48.7885 37.5611 49.0885 37.4951 49.3886C37.4515 49.5821 37.4079 49.7756 37.3643 49.9691C37.3453 50.0572 37.3264 50.1453 37.3068 50.2361C37.1176 51.0634 36.8602 51.6894 36.0903 52.1811C35.5937 52.428 35.0909 52.399 34.541 52.4002C34.4369 52.4011 34.3328 52.4021 34.2255 52.403C33.8818 52.4058 33.538 52.4071 33.1942 52.4081C32.9551 52.4092 32.7159 52.4103 32.4768 52.4114C31.9756 52.4134 31.4744 52.4145 30.9732 52.4151C30.3311 52.4162 29.6891 52.4207 29.047 52.4261C28.5531 52.4296 28.0593 52.4306 27.5654 52.4309C27.3286 52.4314 27.0919 52.4329 26.8552 52.4354C26.5241 52.4386 26.1932 52.4383 25.862 52.4371C25.7644 52.4388 25.6667 52.4405 25.5661 52.4423C25.0897 52.4368 24.7977 52.411 24.4453 52.1002C23.9973 51.5652 24.0501 51.0294 24.1296 50.386C24.2251 49.7809 24.3591 49.1901 24.5137 48.5958C24.639 48.1008 24.7433 47.6018 24.8505 47.1033C25.0222 46.3065 25.1962 45.5102 25.376 44.7148C25.3967 44.6224 25.4175 44.53 25.4389 44.4349C25.5467 43.9585 25.659 43.4836 25.7785 43.0097C26.1463 41.5425 26.4303 40.3881 25.5298 39.0414C25.023 38.5377 24.2158 38.2147 23.4856 38.1214C22.1243 38.0734 20.8655 38.4621 19.7946 39.236C18.863 40.05 18.4892 41.035 18.1861 42.1494C18.1606 42.2431 18.1351 42.3367 18.1089 42.4332C17.7098 43.9459 17.4023 45.4783 17.0761 47.0053C16.9308 47.6855 16.7825 48.365 16.629 49.0436C16.6094 49.13 16.5899 49.2163 16.5698 49.3053C16.4191 49.9633 16.2521 50.6172 16.0763 51.2699C15.9904 51.6324 15.942 52.0017 15.8921 52.3698C11.6289 52.3698 7.36573 52.3698 2.97339 52.3698C3.26697 50.9648 3.5596 49.5645 3.88975 48.1672C3.99036 47.7413 4.08994 47.3152 4.18972 46.8892C4.21875 46.7654 4.21875 46.7654 4.24836 46.6392C4.39633 46.008 4.54165 45.3765 4.68434 44.7443C4.70386 44.6587 4.72338 44.573 4.74349 44.4848C4.85376 43.9987 4.95868 43.5118 5.06002 43.0241C5.49371 40.9665 6.06885 39.0183 7.17708 37.1778C7.24191 37.0659 7.30666 36.954 7.37133 36.842C8.11358 35.594 9.06086 34.4935 10.0479 33.4034C10.1199 33.3161 10.192 33.2287 10.2662 33.1387C10.3295 33.0704 10.3928 33.002 10.458 32.9316C10.5257 32.9316 10.5933 32.9316 10.6631 32.9316C10.6631 32.8693 10.6631 32.807 10.6631 32.7429C10.7992 32.6165 10.7992 32.6165 10.9963 32.4657C11.3569 32.1853 11.6993 31.8928 12.0408 31.5929C15.9457 28.2464 21.4463 26.5266 26.7205 26.6863C27.6971 26.7356 28.6829 26.8555 29.6309 27.0813C29.6443 27.0158 29.6577 26.9504 29.6715 26.883C29.9277 25.6338 30.1928 24.3885 30.4997 23.149C30.6032 22.7283 30.7035 22.307 30.8036 21.8856C30.8363 21.7491 30.8363 21.7491 30.8696 21.6099C30.9825 21.1331 31.0887 20.6561 31.1841 20.176C31.5769 18.2147 32.1752 16.3786 33.2195 14.6257C33.2709 14.5335 33.3223 14.4413 33.3753 14.3463C33.9751 13.2849 34.7547 12.3395 35.5776 11.4175C35.6468 11.3364 35.7159 11.2552 35.7871 11.1716C36.7159 10.0926 37.7734 9.14018 38.9611 8.3036C39.0184 8.263 39.0757 8.22241 39.1348 8.18058C42.56 5.76799 46.5878 4.38369 50.8545 3.86867C50.9308 3.85896 51.0072 3.84924 51.0859 3.83923C55.1527 3.34328 59.2836 3.76535 63.3109 4.33236Z" fill="white"/>
<path d="M152.256 18.4004C154.422 18.4004 156.587 18.4004 158.818 18.4004C158.852 23.2892 158.886 28.178 158.92 33.215C159.833 32.1123 160.74 31.0123 161.631 29.8954C162.806 28.4278 162.806 28.4278 163.399 27.7599C163.586 27.5231 163.715 27.3212 163.852 27.0621C164.198 26.472 164.571 25.9648 165.296 25.7649C166.228 25.6349 167.168 25.6653 168.107 25.6922C168.52 25.7023 168.933 25.7032 169.346 25.7051C170.127 25.7101 170.907 25.7232 171.687 25.7393C172.576 25.7573 173.465 25.7661 174.355 25.7741C176.182 25.7909 178.009 25.819 179.836 25.8549C179.866 25.936 179.896 26.0172 179.927 26.1009C180.757 28.3678 181.589 30.6345 182.421 32.901C182.498 33.1087 182.574 33.3165 182.65 33.5242C182.893 34.1844 183.135 34.8444 183.379 35.5043C183.448 35.692 183.517 35.8797 183.586 36.0675C183.679 36.3223 183.773 36.577 183.867 36.8317C183.894 36.9051 183.921 36.9786 183.949 37.0543C184.048 37.3773 184.048 37.3773 184.245 37.6499C184.567 36.7888 184.873 35.9272 185.136 35.0491C185.424 34.0904 185.768 33.1509 186.114 32.2089C186.442 31.3164 186.749 30.4229 187.021 29.5144C187.188 28.9604 187.387 28.423 187.605 27.884C187.784 27.4151 187.932 26.9389 188.079 26.4606C188.234 25.9585 188.234 25.9585 188.346 25.8549C188.557 25.846 188.768 25.8438 188.979 25.8442C189.078 25.8441 189.078 25.8441 189.179 25.8441C189.398 25.8442 189.617 25.8449 189.837 25.8457C189.988 25.8458 190.14 25.846 190.291 25.8461C190.691 25.8464 191.091 25.8473 191.49 25.8484C191.898 25.8494 192.305 25.8498 192.713 25.8503C193.513 25.8513 194.313 25.8529 195.113 25.8549C194.568 27.3234 193.979 28.7762 193.383 30.2281C193.108 30.8991 192.834 31.5704 192.56 32.2419C192.533 32.3086 192.506 32.3753 192.478 32.444C191.996 33.6261 191.523 34.8111 191.057 35.9986C190.533 37.3328 190 38.6635 189.457 39.9911C188.891 41.3734 188.333 42.7578 187.776 44.1431C186.673 46.8875 185.562 49.6288 184.45 52.3702C182.116 52.3702 179.781 52.3702 177.376 52.3702C177.443 52.0591 177.498 51.8238 177.619 51.5391C177.662 51.4379 177.662 51.4379 177.706 51.3346C177.737 51.2623 177.768 51.19 177.8 51.1155C177.833 51.0386 177.866 50.9618 177.899 50.8827C177.97 50.7174 178.04 50.5521 178.111 50.3869C178.222 50.1273 178.333 49.8672 178.443 49.6072C178.765 48.846 179.09 48.0861 179.435 47.3332C179.563 47.0519 179.69 46.7698 179.817 46.4877C179.876 46.357 179.937 46.2267 179.999 46.097C180.402 45.3001 180.402 45.3001 180.368 44.4483C180.296 44.2884 180.221 44.1297 180.144 43.9721C180.056 43.7507 179.969 43.5288 179.884 43.3068C179.779 43.0466 179.673 42.7869 179.567 42.5272C179.509 42.3828 179.45 42.2383 179.392 42.0939C178.735 40.4753 178.07 38.8595 177.405 37.2436C177.038 36.3505 176.671 35.4572 176.305 34.5639C176.197 34.3009 176.089 34.0378 175.981 33.7748C175.645 32.9569 175.309 32.1389 174.975 31.3205C174.819 30.9405 174.664 30.5604 174.508 30.1804C174.435 30.0019 174.362 29.8233 174.289 29.6448C173.796 28.4381 173.287 27.2387 172.762 26.0436C172.398 26.3754 172.053 26.7148 171.724 27.0757C171.675 27.1289 171.626 27.1822 171.576 27.237C171.187 27.6647 170.811 28.1016 170.439 28.542C169.993 29.0684 169.531 29.583 169.069 30.0975C168.694 30.5155 168.322 30.936 167.955 31.3606C167.721 31.6302 167.485 31.8983 167.248 32.166C167.131 32.2983 167.014 32.4307 166.898 32.5633C166.647 32.8489 166.395 33.1332 166.134 33.4107C166.058 33.4921 165.983 33.5735 165.905 33.6573C165.84 33.7258 165.775 33.7943 165.707 33.8648C165.561 34.0579 165.561 34.0579 165.608 34.2812C165.699 34.5742 165.833 34.7829 166.013 35.0384C166.08 35.1346 166.148 35.2307 166.217 35.3297C166.326 35.4827 166.326 35.4827 166.437 35.6389C166.513 35.7462 166.588 35.8535 166.664 35.9609C167.126 36.6169 167.595 37.2692 168.068 37.9185C168.551 38.5807 169.026 39.2474 169.5 39.9146C169.542 39.9728 169.583 40.0311 169.626 40.0911C170.079 40.7277 170.531 41.3646 170.983 42.0016C171.059 42.1093 171.136 42.2171 171.212 42.3249C171.359 42.5317 171.506 42.7385 171.653 42.9453C172.097 43.5706 172.543 44.194 172.999 44.8123C173.275 45.1888 173.275 45.1888 173.275 45.2931C172.274 45.3504 171.274 45.3937 170.271 45.4202C169.806 45.433 169.341 45.4502 168.877 45.4782C165.954 45.6499 165.954 45.6499 165.208 45.1868C164.549 44.6454 164.203 43.8878 163.882 43.1472C163.666 42.6818 163.374 42.2707 163.073 41.849C162.965 41.6898 162.858 41.5303 162.751 41.3705C162.696 41.2889 162.641 41.2072 162.584 41.1231C160.732 38.3669 160.732 38.3669 159.843 36.9894C159.368 37.3943 158.965 37.7847 158.855 38.3826C158.852 38.5115 158.851 38.6404 158.853 38.7693C158.852 38.8403 158.851 38.9113 158.85 38.9844C158.847 39.2167 158.847 39.4489 158.848 39.6813C158.847 39.8432 158.845 40.0052 158.843 40.1671C158.839 40.5917 158.838 41.0163 158.838 41.4409C158.837 41.9512 158.832 42.4615 158.827 42.9718C158.821 43.7456 158.82 44.5193 158.818 45.2931C156.653 45.2931 154.487 45.2931 152.256 45.2931C152.256 36.4185 152.256 27.5439 152.256 18.4004Z" fill="#41D9F3"/>
<path d="M78.5371 19.5325C81.21 19.5325 83.883 19.5325 86.6369 19.5325C88.5254 23.3097 88.5254 23.3097 89.3027 24.911C89.5033 25.3239 89.7041 25.7367 89.905 26.1495C89.9592 26.2609 90.0134 26.3723 90.0693 26.4871C90.4267 27.2214 90.7863 27.9547 91.147 28.6877C91.191 28.7771 91.235 28.8666 91.2804 28.9587C91.5003 29.4055 91.7203 29.8522 91.9405 30.2988C92.0218 30.4638 92.103 30.6288 92.1843 30.7938C92.2216 30.8694 92.2589 30.945 92.2974 31.0228C92.4698 31.3732 92.638 31.7234 92.7887 32.0824C93.413 30.9589 93.9893 29.8189 94.5509 28.6678C94.6374 28.491 94.724 28.3142 94.8106 28.1374C95.0598 27.6283 95.3085 27.1189 95.5569 26.6095C95.6202 26.4799 95.6834 26.3503 95.7467 26.2207C96.0116 25.6778 96.276 25.1346 96.5402 24.5914C96.9432 23.7631 97.3469 22.9351 97.7511 22.1073C97.8341 21.9374 97.917 21.7675 97.9998 21.5976C98.1159 21.3595 98.2322 21.1214 98.3485 20.8834C98.383 20.8124 98.4176 20.7415 98.4531 20.6684C98.4858 20.6016 98.5185 20.5348 98.5522 20.466C98.5802 20.4084 98.6083 20.3509 98.6373 20.2916C98.7671 20.0362 98.9059 19.7847 99.0429 19.5325C101.716 19.5325 104.389 19.5325 107.143 19.5325C107.143 28.0334 107.143 36.5344 107.143 45.2929C104.842 45.2929 102.541 45.2929 100.171 45.2929C100.137 39.7502 100.103 34.2074 100.068 28.4967C99.4254 29.898 98.7825 31.2992 98.1202 32.7429C97.3384 34.4322 97.3384 34.4322 96.9557 35.2535C96.8013 35.585 96.6472 35.9167 96.4931 36.2483C96.3919 36.4658 96.2906 36.6832 96.1893 36.9007C96.1448 36.9966 96.1003 37.0926 96.0544 37.1914C95.7306 37.8853 95.3885 38.5675 95.0443 39.2538C93.4541 39.2538 91.8638 39.2538 90.2254 39.2538C89.8009 38.4166 89.381 37.5846 88.9903 36.7348C88.9436 36.6338 88.8969 36.5328 88.8487 36.4287C88.7008 36.1084 88.5531 35.788 88.4055 35.4676C88.3117 35.2645 88.2179 35.0614 88.124 34.8583C87.1457 32.7394 86.1745 30.6177 85.2015 28.4967C85.1677 34.0395 85.1338 39.5822 85.099 45.2929C82.9336 45.2929 80.7681 45.2929 78.5371 45.2929C78.5371 36.792 78.5371 28.291 78.5371 19.5325Z" fill="#41D9F3"/>
<path d="M215.311 19.2495C215.423 19.2677 215.535 19.286 215.65 19.3048C215.955 19.3661 216.244 19.4443 216.541 19.5326C216.662 19.5685 216.662 19.5685 216.785 19.6051C220.651 20.7673 220.651 20.7673 221.155 21.2311C221.164 21.4193 221.167 21.6078 221.166 21.7961C221.166 21.917 221.166 22.0379 221.166 22.1625C221.166 22.2955 221.165 22.4284 221.165 22.5613C221.165 22.6966 221.164 22.8319 221.164 22.9671C221.164 23.3238 221.163 23.6804 221.162 24.037C221.161 24.4007 221.16 24.7644 221.16 25.128C221.159 25.8421 221.157 26.5561 221.155 27.2701C220.674 27.2935 220.389 27.3024 220.017 27.011C219.908 26.9281 219.908 26.9281 219.796 26.8435C219.72 26.7838 219.644 26.7242 219.566 26.6627C217.007 24.7457 214 23.5992 210.664 23.8942C208.796 24.1055 206.917 24.8288 205.674 26.1684C203.66 28.5718 203.344 31.5066 203.734 34.4405C203.947 35.8746 204.487 37.265 205.468 38.4047C205.579 38.5477 205.579 38.5477 205.692 38.6936C206.844 39.9123 208.712 40.6682 210.415 40.917C210.495 40.9288 210.574 40.9406 210.656 40.9527C211.924 41.1207 213.213 41.1135 214.49 41.1411C214.49 39.4285 214.49 37.7158 214.49 35.9513C212.697 35.9513 210.904 35.9513 209.056 35.9513C209.056 34.3632 209.056 32.7751 209.056 31.1389C213.083 31.1389 217.109 31.1389 221.257 31.1389C221.257 35.3427 221.257 39.5464 221.257 43.8776C219.178 44.5529 219.178 44.5529 218.181 44.8212C218.115 44.8395 218.049 44.8579 217.981 44.8768C216.697 45.2325 215.404 45.475 214.08 45.6704C213.92 45.6959 213.92 45.6959 213.758 45.7219C212.762 45.8701 211.786 45.8929 210.78 45.8886C210.654 45.8884 210.654 45.8884 210.526 45.8881C209.294 45.8838 208.107 45.8403 206.903 45.576C206.824 45.5599 206.745 45.5437 206.663 45.527C205.483 45.2839 204.401 44.9314 203.315 44.4437C203.213 44.3981 203.111 44.3525 203.006 44.3055C200.056 42.9054 197.981 40.4105 196.958 37.5455C196.732 36.8763 196.589 36.2025 196.481 35.5092C196.454 35.3465 196.425 35.1842 196.393 35.0222C196.239 34.2022 196.203 33.3961 196.208 32.5661C196.208 32.4983 196.209 32.4305 196.209 32.3607C196.229 28.4635 197.455 25.0668 200.49 22.2865C201.57 21.3255 202.776 20.6724 204.135 20.0987C204.239 20.0531 204.344 20.0075 204.451 19.9605C205.236 19.6352 206.041 19.4493 206.881 19.2923C207.026 19.265 207.171 19.2363 207.315 19.2059C209.85 18.6761 212.773 18.8285 215.311 19.2495Z" fill="white"/>
<path d="M57.2113 27.27C57.3353 27.3017 57.4593 27.3335 57.587 27.3662C60.7389 28.2451 63.3699 30.2806 64.9833 32.9061C66.9103 36.2674 66.6653 39.9036 65.7405 43.4941C65.6113 43.9955 65.5007 44.4993 65.3932 45.005C65.2909 45.4851 65.1824 45.9639 65.074 46.4429C65.0524 46.5384 65.0308 46.6339 65.0086 46.7323C64.8887 47.2604 64.7669 47.788 64.6431 48.3153C64.6169 48.4268 64.5907 48.5382 64.5638 48.653C64.5112 48.8768 64.4586 49.1007 64.406 49.3246C64.222 50.1131 64.0519 50.9033 63.8967 51.6971C63.7837 52.2659 63.7837 52.2659 63.6707 52.3699C63.502 52.379 63.3329 52.3814 63.164 52.3812C63.0543 52.3814 62.9446 52.3815 62.8316 52.3816C62.6495 52.3811 62.6495 52.3811 62.4637 52.3806C62.2732 52.3806 62.2732 52.3806 62.0788 52.3806C61.7295 52.3806 61.3802 52.3801 61.0309 52.3795C60.6662 52.3789 60.3016 52.3788 59.9369 52.3787C59.2459 52.3784 58.5549 52.3776 57.8639 52.3767C57.0774 52.3756 56.2909 52.3751 55.5044 52.3746C53.8861 52.3737 52.2678 52.372 50.6495 52.3699C50.6822 52.1882 50.7151 52.0064 50.7479 51.8247C50.7662 51.7235 50.7844 51.6223 50.8033 51.5181C50.8953 51.0142 50.9999 50.5127 51.1044 50.0109C51.1254 49.9085 51.1463 49.806 51.1679 49.7005C51.2689 49.2152 51.3775 48.7345 51.5117 48.256C51.7362 47.45 51.9064 46.6332 52.0849 45.8177C52.1551 45.4974 52.2256 45.1771 52.2963 44.8568C52.3132 44.78 52.3301 44.7032 52.3476 44.6241C52.468 44.0811 52.601 43.5423 52.7459 43.0044C52.9998 41.8417 52.7016 40.6912 52.0552 39.6814C51.3304 38.6945 50.2599 38.1186 49.009 37.8443C46.9607 37.5117 45.2763 38.0203 43.4724 38.8763C43.6262 37.9833 43.8108 37.0969 44.0043 36.2107C44.0198 36.1392 44.0353 36.0678 44.0513 35.9942C44.2897 34.899 44.5418 33.807 44.8052 32.7167C44.9727 32.0237 45.1351 31.3304 45.2839 30.6338C45.2977 30.5694 45.3115 30.5049 45.3257 30.4385C45.391 30.132 45.4555 29.8254 45.5188 29.5185C45.5842 29.2083 45.6539 28.8996 45.7281 28.591C45.748 28.5057 45.768 28.4203 45.7885 28.3324C45.8508 28.115 45.9117 27.9353 46.0356 27.7418C46.309 27.596 46.4637 27.5365 46.7598 27.4764C46.8319 27.4589 46.9039 27.4414 46.9782 27.4234C47.21 27.3684 47.4427 27.3191 47.6761 27.27C47.8298 27.235 47.9835 27.1998 48.1371 27.1646C51.1251 26.4977 54.2515 26.4799 57.2113 27.27Z" fill="#41D9F3"/>
<path d="M264.321 25.8547C266.588 25.8547 268.855 25.8547 271.19 25.8547C271.884 28.4101 271.884 28.4101 272.164 29.582C272.396 30.5406 272.642 31.4947 272.905 32.4462C273.12 33.2262 273.313 34.0102 273.504 34.7954C273.921 36.616 273.921 36.616 274.471 38.4047C274.756 37.6469 275.002 36.8864 275.221 36.1105C275.45 35.3131 275.692 34.5214 275.958 33.7338C276.217 32.9675 276.453 32.1978 276.676 31.422C276.927 30.5471 277.198 29.6801 277.489 28.8156C277.73 28.0981 277.956 27.3773 278.176 26.6541C278.2 26.5765 278.224 26.499 278.248 26.4191C278.269 26.3508 278.289 26.2826 278.311 26.2123C278.367 26.0435 278.367 26.0435 278.47 25.8547C280.398 25.8547 282.327 25.8547 284.314 25.8547C284.437 26.2965 284.559 26.7383 284.686 27.1935C284.951 28.1441 285.224 29.0913 285.522 30.0339C286.024 31.6265 286.473 33.2324 286.922 34.8383C287.134 35.5942 287.36 36.3457 287.6 37.0946C287.635 37.2048 287.635 37.2048 287.671 37.3173C287.691 37.3797 287.711 37.442 287.732 37.5063C287.835 37.8661 287.919 38.2297 288.005 38.5934C288.225 37.6852 288.445 36.777 288.665 35.8687C288.681 35.8011 288.698 35.7335 288.715 35.6638C289.168 33.7918 289.617 31.9193 290.045 30.0422C290.367 28.6404 290.727 27.2514 291.081 25.8547C293.348 25.8547 295.615 25.8547 297.95 25.8547C297.72 26.7019 297.72 26.7019 297.59 27.1057C297.561 27.1948 297.533 27.2838 297.503 27.3755C297.473 27.4692 297.443 27.5629 297.412 27.6594C297.174 28.4042 296.944 29.1503 296.726 29.9004C296.472 30.7729 296.187 31.6353 295.896 32.4977C295.657 33.2047 295.43 33.9138 295.212 34.6262C295.003 35.3055 294.786 35.9824 294.567 36.659C294.301 37.4829 294.038 38.3076 293.783 39.1346C293.535 39.9378 293.281 40.7395 293.027 41.5411C292.716 42.5253 292.412 43.5113 292.118 44.5002C292.091 44.5913 292.064 44.6824 292.036 44.7762C292.012 44.8559 291.988 44.9356 291.964 45.0178C291.901 45.1986 291.901 45.1986 291.799 45.293C291.582 45.3019 291.364 45.304 291.147 45.3037C291.045 45.3037 291.045 45.3037 290.941 45.3037C290.715 45.3037 290.489 45.3029 290.263 45.3022C290.107 45.302 289.951 45.3019 289.795 45.3018C289.383 45.3014 288.971 45.3005 288.56 45.2994C288.14 45.2985 287.72 45.298 287.3 45.2976C286.476 45.2966 285.651 45.2949 284.827 45.293C284.761 45.0987 284.696 44.9044 284.631 44.7101C284.595 44.6019 284.558 44.4937 284.521 44.3822C284.381 43.9586 284.253 43.5326 284.128 43.105C284.103 43.0179 284.077 42.9308 284.05 42.8411C283.907 42.3545 283.766 41.8676 283.624 41.3807C283.563 41.1731 283.503 40.9654 283.442 40.7578C283.412 40.6544 283.382 40.551 283.351 40.4445C283.162 39.798 282.966 39.1538 282.763 38.5108C282.539 37.7975 282.336 37.081 282.143 36.3598C281.843 35.2396 281.504 34.1289 281.136 33.0261C280.873 33.6275 280.697 34.2305 280.533 34.8603C280.358 35.5214 280.179 36.179 279.963 36.83C279.734 37.5229 279.536 38.2221 279.341 38.9236C279.131 39.6804 278.913 40.4328 278.667 41.1802C278.423 41.9282 278.217 42.6856 278.008 43.4422C277.965 43.5977 277.965 43.5977 277.921 43.7563C277.896 43.8479 277.871 43.9395 277.845 44.0338C277.721 44.456 277.581 44.8741 277.445 45.293C275.11 45.293 272.775 45.293 270.37 45.293C270.216 44.7928 270.061 44.2926 269.902 43.7773C269.6 42.7995 269.294 41.8232 268.967 40.8521C268.678 39.9933 268.421 39.1281 268.171 38.2592C267.976 37.5877 267.769 36.9216 267.548 36.2571C267.284 35.4581 267.036 34.655 266.788 33.8518C266.49 32.8877 266.19 31.924 265.884 30.962C265.59 30.0365 265.301 29.1096 265.014 28.1821C264.93 27.9113 264.846 27.6407 264.761 27.37C264.732 27.2783 264.704 27.1866 264.674 27.0922C264.619 26.9151 264.564 26.7381 264.508 26.5611C264.484 26.4822 264.459 26.4034 264.434 26.3221C264.412 26.2522 264.39 26.1823 264.368 26.1103C264.321 25.9491 264.321 25.9491 264.321 25.8547Z" fill="white"/>
<path d="M252.184 25.2649C252.299 25.264 252.413 25.2631 252.532 25.2622C255.339 25.2722 257.998 26.0757 260.057 27.8668C262.398 30.0934 263.042 32.9858 263.017 35.9875C262.961 38.8047 262.02 41.3846 259.884 43.4414C258.325 44.8118 256.367 45.4539 254.273 45.7646C254.167 45.7821 254.062 45.7996 253.953 45.8177C251.016 46.1222 247.694 45.7949 245.302 44.0602C245.147 43.9373 244.993 43.8136 244.84 43.6887C244.77 43.6377 244.7 43.5868 244.628 43.5343C242.71 42.107 241.668 39.6284 241.403 37.4255C241.228 35.7675 241.218 33.9877 241.662 32.3655C241.679 32.3022 241.696 32.2389 241.713 32.1736C242.142 30.643 242.907 29.3186 244.02 28.1193C244.079 28.0557 244.137 27.9921 244.198 27.9265C246.243 25.8908 249.307 25.2817 252.184 25.2649Z" fill="white"/>
<path d="M120.343 25.2591C120.429 25.2593 120.514 25.2595 120.601 25.2597C121.91 25.2647 123.189 25.3021 124.47 25.5716C124.604 25.5998 124.604 25.5998 124.742 25.6284C126.707 26.0576 128.49 26.7348 129.641 28.3435C130.459 29.6073 130.669 30.8658 130.657 32.3203C130.657 32.4628 130.657 32.6052 130.657 32.7476C130.657 33.1302 130.655 33.5128 130.653 33.8954C130.651 34.2968 130.651 34.6981 130.651 35.0995C130.65 35.8577 130.647 36.6159 130.644 37.3742C130.641 38.2381 130.639 39.1021 130.637 39.9661C130.634 41.7417 130.629 43.5173 130.622 45.2929C128.456 45.2929 126.291 45.2929 124.06 45.2929C124.06 44.639 124.06 43.9851 124.06 43.3113C123.895 43.4378 123.73 43.5643 123.56 43.6947C121.396 45.3138 119.263 46.0027 116.473 45.8591C114.993 45.7008 113.813 45.029 112.782 44.0662C112.716 44.0061 112.649 43.946 112.581 43.8841C111.368 42.7094 110.976 41.0983 111.005 39.5249C111.068 37.795 111.591 36.2859 112.988 35.0688C114.474 33.9369 116.369 33.3537 118.25 33.0725C118.328 33.0606 118.407 33.0487 118.488 33.0365C119.321 32.9145 120.156 32.8278 120.994 32.7491C121.25 32.725 121.506 32.6999 121.761 32.6746C121.927 32.6587 122.094 32.6427 122.26 32.6269C122.334 32.6195 122.409 32.6122 122.486 32.6046C123.013 32.5559 123.531 32.5484 124.06 32.5543C124.026 31.7144 123.911 31.0546 123.233 30.4548C121.826 29.4406 119.595 29.5107 117.908 29.6291C116.449 29.8154 114.974 30.3168 113.637 30.8753C113.397 30.9502 113.397 30.9502 112.782 30.9502C112.782 29.3932 112.782 27.8363 112.782 26.2322C114.564 25.7949 114.564 25.7949 115.486 25.6542C115.577 25.6395 115.668 25.6248 115.762 25.6096C117.293 25.3695 118.792 25.2523 120.343 25.2591Z" fill="#41D9F3"/>
<path d="M226.18 25.8547C228.345 25.8547 230.511 25.8547 232.742 25.8547C232.793 27.2093 232.793 27.2093 232.844 28.5912C233.149 28.3421 233.453 28.093 233.767 27.8363C235.847 26.3254 237.592 25.8547 240.329 25.8547C240.329 27.7854 240.329 29.716 240.329 31.7051C239.535 31.7051 239.535 31.7051 239.126 31.6133C236.957 31.188 234.878 31.6851 232.844 32.3656C232.81 36.6316 232.777 40.8977 232.742 45.293C230.576 45.293 228.411 45.293 226.18 45.293C226.18 38.8784 226.18 32.4637 226.18 25.8547Z" fill="white"/>
<path d="M135.544 25.8547C137.709 25.8547 139.874 25.8547 142.105 25.8547C142.156 27.2093 142.156 27.2093 142.208 28.5912C142.512 28.3421 142.817 28.093 143.131 27.8363C145.212 26.3243 146.991 25.8547 149.693 25.8547C149.693 27.7854 149.693 29.716 149.693 31.7051C148.899 31.7051 148.899 31.7051 148.49 31.6133C146.321 31.188 144.241 31.6851 142.208 32.3656C142.174 36.6316 142.14 40.8977 142.105 45.293C139.94 45.293 137.775 45.293 135.544 45.293C135.544 38.8784 135.544 32.4637 135.544 25.8547Z" fill="#41D9F3"/>
<path d="M254.183 30.0773C255.502 31.0273 255.944 32.2754 256.176 33.7728C256.242 34.3567 256.244 34.9427 256.246 35.5291C256.247 35.7248 256.25 35.9204 256.253 36.116C256.267 37.704 255.96 39.4336 254.786 40.6693C253.906 41.3673 253.001 41.5722 251.856 41.545C250.899 41.4728 250.044 41.1559 249.384 40.4967C249.036 40.0608 248.819 39.5783 248.608 39.0769C248.583 39.017 248.558 38.957 248.532 38.8952C248.143 37.9108 248.088 36.9279 248.094 35.8906C248.096 35.6809 248.094 35.4713 248.093 35.2616C248.091 33.5258 248.34 31.7871 249.662 30.4577C250.88 29.3681 252.734 29.3303 254.183 30.0773Z" fill="#24104B"/>
<path d="M124.06 36.2344C124.085 36.7984 124.104 37.3621 124.116 37.9265C124.121 38.1181 124.128 38.3098 124.137 38.5014C124.209 40.0851 124.209 40.0851 123.852 40.5803C123.588 40.7811 123.346 40.9171 123.035 41.0468C122.968 41.0787 122.901 41.1107 122.832 41.1437C122.657 41.2204 122.657 41.2204 122.33 41.3239C122.22 41.3598 122.11 41.3957 121.997 41.4327C121.9 41.461 121.802 41.4894 121.702 41.5186C121.637 41.5375 121.573 41.5565 121.506 41.5761C120.345 41.7757 119.226 41.6261 118.216 41.0644C117.623 40.4679 117.556 39.662 117.566 38.8894C117.641 38.2463 117.947 37.7382 118.491 37.3313C120.048 36.3779 122.244 36.2344 124.06 36.2344Z" fill="#24104B"/>
</g>
<defs>
<clipPath id="clip0_4003_19">
<rect width="300" height="56.8049" fill="white"/>
</clipPath>
</defs>
</svg>
