<?xml version="1.0" encoding="UTF-8"?>
<svg version="1.1" xmlns="http://www.w3.org/2000/svg" width="1688" height="1518">
<path d="M0 0 C557.04 0 1114.08 0 1688 0 C1688 500.94 1688 1001.88 1688 1518 C1130.96 1518 573.92 1518 0 1518 C0 1017.06 0 516.12 0 0 Z " fill="#FEFEFE" transform="translate(0,0)"/>
<path d="M0 0 C1.57242055 0.12412273 3.14484861 0.24815039 4.71728516 0.37207031 C22.37275311 1.78279894 39.89006403 3.93577558 57.41455078 6.48828125 C61.04303185 7.00614155 64.67446102 7.49226944 68.30859375 7.96875 C83.62793373 9.98799696 98.78404233 12.49852432 113.95361328 15.43457031 C118.16269087 16.21580318 122.3872922 16.88862155 126.61694336 17.54833984 C129 18 129 18 131 19 C130.35134901 23.9644279 129.43549261 28.807566 128.3125 33.6875 C124.29137669 51.50018856 120.49316397 69.35746679 116.96728516 87.2746582 C115.10323269 96.66070193 113.04307667 106.00091432 110.97387695 115.3432312 C109.21109225 123.31188308 107.51764379 131.28083013 106.0625 139.3125 C104.20123182 149.55628322 101.81689254 159.67301249 99.46328735 169.81210327 C97.20489323 179.55213188 95.08590879 189.28717178 93.29467773 199.12597656 C92.36341792 204.20934032 91.28576007 209.22917433 90.0625 214.25 C88.42217657 220.98838775 87.02211228 227.7572136 85.6875 234.5625 C83.65851365 244.88062801 81.48949252 255.16344438 79.25 265.4375 C79.09534271 266.15157013 78.94068542 266.86564026 78.78134155 267.60134888 C78.34157291 269.62942637 77.89802073 271.65663558 77.453125 273.68359375 C77.19692383 274.85462646 76.94072266 276.02565918 76.67675781 277.23217773 C76 280 76 280 75 282 C68.87093284 281.35520796 63.04141926 280.16353704 57.0625 278.6875 C55.66801636 278.35093384 55.66801636 278.35093384 54.24536133 278.00756836 C50.15146311 277.01928918 46.06144449 276.0170608 41.9765625 274.9921875 C27.12060175 271.34711672 12.04712035 268.72031442 -3 266 C-3.93086426 265.83081055 -4.86172852 265.66162109 -5.82080078 265.48730469 C-35.91440976 260.06690673 -66.28721843 257.62811448 -96.85180664 257.68432617 C-100.43341308 257.68749638 -104.01419689 257.66384384 -107.59570312 257.63867188 C-139.53993972 257.55235156 -170.81074199 261.63321332 -201.30712891 271.16845703 C-204.82708141 272.25539794 -208.3681382 273.26624592 -211.9128418 274.26928711 C-214.26050843 274.99412463 -214.26050843 274.99412463 -217 277 C-218.3464208 277.4818679 -219.70795047 277.92255915 -221.078125 278.33203125 C-226.22061531 279.99180429 -230.9400279 282.24177528 -235.75 284.6875 C-236.62398437 285.12956787 -237.49796875 285.57163574 -238.3984375 286.02709961 C-250.05992994 291.99651955 -260.65056934 298.95768423 -271 307 C-272.15823531 307.87711988 -273.31711059 308.75339521 -274.4765625 309.62890625 C-315.15181373 340.60450366 -335.63941513 384.8343089 -344.47094727 434.09472656 C-345.36253458 438.99084519 -346.3359234 443.87023085 -347.3125 448.75 C-347.52688721 449.82258057 -347.74127441 450.89516113 -347.9621582 452.00024414 C-349.65753768 460.42283011 -351.44779401 468.82250642 -353.30004883 477.21191406 C-354.41803456 482.27937165 -355.48519491 487.35258162 -356.49291992 492.44311523 C-358.94812735 504.82317659 -361.50422376 517.17613123 -364.5 529.4375 C-367.8068697 543.00350816 -370.52874395 556.70720616 -372.9765625 570.453125 C-374.07520332 576.54099628 -375.37471206 582.58024197 -376.6875 588.625 C-377.22420949 591.11583131 -377.76065702 593.60671908 -378.296875 596.09765625 C-378.5787518 597.4051159 -378.86065309 598.71257028 -379.14257812 600.02001953 C-380.58204334 606.69917913 -382.01430438 613.37985429 -383.4375 620.0625 C-383.5825296 620.74311493 -383.7275592 621.42372986 -383.87698364 622.12496948 C-386.37647245 633.87451864 -388.73925143 645.64896684 -391.06896973 657.43319702 C-392.99467371 667.16126241 -395.04624775 676.84749186 -397.30175781 686.50512695 C-398.63855378 692.2723995 -399.80308219 698.05303713 -400.875 703.875 C-402.5245697 712.81181162 -404.41815847 721.68879373 -406.375 730.5625 C-406.52446075 731.24055695 -406.67392151 731.91861389 -406.82791138 732.61721802 C-407.43392134 735.36528137 -408.04036356 738.11324877 -408.6474762 740.86106873 C-410.2251572 748.00668049 -411.77420017 755.15829945 -413.3125 762.3125 C-413.55468262 763.43148682 -413.79686523 764.55047363 -414.04638672 765.70336914 C-415.31938024 771.63217703 -416.49330538 777.56671457 -417.55541992 783.53686523 C-418.14939403 786.82769708 -418.82299482 790.10035538 -419.5 793.375 C-420.42273947 797.92931312 -421.23730406 802.46026044 -421.875 807.0625 C-422.70365934 812.66100336 -423.89951977 818.11918828 -425.1875 823.625 C-427.45737774 833.3360771 -429.44781729 843.09168156 -431.375 852.875 C-433.66510921 864.488149 -436.06380161 876.0685656 -438.625 887.625 C-441.3740614 900.03973262 -443.95422342 912.47952526 -446.40283203 924.95703125 C-449.24244667 939.42676015 -452.13794149 953.87241679 -455.3828125 968.25683594 C-459.4739196 986.44025343 -463.37935049 1004.63582162 -466.86401367 1022.94555664 C-469.67546196 1037.66665164 -472.81097655 1052.32036901 -476.32421875 1066.890625 C-477.12700356 1070.58436319 -477.78999161 1074.29540449 -478.45776367 1078.015625 C-481.30946254 1093.71088253 -484.69902493 1109.25873273 -488.4609375 1124.7578125 C-490.2295441 1132.11419069 -491.78284871 1139.48122447 -492.96153259 1146.95581055 C-494.557728 1157.0221227 -496.60615738 1166.95864772 -498.85180664 1176.8984375 C-499.44289506 1179.52396403 -500.0195492 1182.15241079 -500.59570312 1184.78125 C-504.30338918 1201.4476777 -509.50628723 1219.39627027 -524.625 1229.25 C-537.68173546 1236.30676845 -551.51539999 1235.42884476 -565.94091797 1235.38818359 C-568.36642187 1235.39225313 -570.79192392 1235.39759714 -573.21742249 1235.40411377 C-579.09733463 1235.41633131 -584.97714112 1235.41460201 -590.85705023 1235.40587585 C-595.63599355 1235.39907906 -600.41490469 1235.39819115 -605.19385147 1235.4014473 C-605.87600748 1235.401907 -606.55816349 1235.40236669 -607.2609909 1235.40284032 C-608.64703711 1235.40379956 -610.03308331 1235.4047722 -611.41912951 1235.4057581 C-624.38563299 1235.41429285 -637.35207261 1235.40450601 -650.31856562 1235.388357 C-661.43799487 1235.3749374 -672.55733022 1235.37729909 -683.67675781 1235.39111328 C-696.60864529 1235.40717178 -709.54047707 1235.41348809 -722.47237313 1235.40427649 C-723.85126312 1235.40332089 -725.23015311 1235.40237777 -726.60904312 1235.4014473 C-727.28739423 1235.40098447 -727.96574534 1235.40052164 -728.66465255 1235.40004479 C-733.43945196 1235.39745706 -738.21421593 1235.40182083 -742.98900986 1235.40888596 C-749.41262974 1235.41818264 -755.83611384 1235.41155483 -762.25971794 1235.39420319 C-764.61798876 1235.39023314 -766.97627451 1235.39138121 -769.33453941 1235.39799118 C-772.55061134 1235.40617541 -775.76611181 1235.39592258 -778.98214722 1235.38095093 C-779.91754896 1235.38764309 -780.8529507 1235.39433526 -781.81669796 1235.40123022 C-788.69624541 1235.33900616 -793.6128283 1233.83373321 -798.5625 1228.8125 C-806.02569575 1220.98605136 -809.50148144 1212.98274424 -809.31640625 1202.125 C-808.48589562 1188.22524043 -804.95860317 1174.37241159 -801.78857422 1160.85864258 C-800.50182706 1155.34351509 -799.37430089 1149.83492509 -798.4375 1144.25 C-797.24529678 1137.16236846 -795.75153154 1130.17645997 -794.1640625 1123.16796875 C-790.73009519 1107.99777166 -787.48512698 1092.78891949 -784.625 1077.5 C-782.66615114 1067.04876556 -780.40412579 1056.6827914 -778.0625 1046.3125 C-775.20213785 1033.64337089 -772.5701189 1020.95802489 -770.15527344 1008.1965332 C-768.4918227 999.43724765 -766.69650938 990.71441885 -764.8125 982 C-764.56145508 980.82606689 -764.31041016 979.65213379 -764.05175781 978.44262695 C-763.06857086 973.85893021 -762.08589199 969.28073228 -760.95703125 964.73046875 C-759.17742646 957.15252724 -758.73032524 949.88065077 -758.6875 942.125 C-758.67904053 940.67903442 -758.67904053 940.67903442 -758.67041016 939.20385742 C-758.85878554 920.7574372 -767.09657658 904.01028407 -780 891 C-795.89583939 876.01064432 -817.91009265 871.56897534 -839.02734375 872.06640625 C-857.78869174 872.97639939 -877.54757199 879.0611678 -893 890 C-893.93585938 890.65484375 -894.87171875 891.3096875 -895.8359375 891.984375 C-912.39439095 903.98818959 -930.86658511 920.80961988 -937 941 C-937.66 941 -938.32 941 -939 941 C-939.11859375 942.01191406 -939.2371875 943.02382812 -939.359375 944.06640625 C-939.98529398 947.90970147 -940.98807001 951.25953316 -942.25 954.9375 C-945.37164771 964.53451077 -947.28354488 974.32633807 -949.24609375 984.21337891 C-950.57665626 990.89635318 -951.93778384 997.57309093 -953.30169678 1004.24932861 C-953.64320928 1005.92122593 -953.98423028 1007.59322371 -954.32476807 1009.26531982 C-956.95973079 1022.19120481 -959.77999368 1035.06700653 -962.69628906 1047.93197632 C-965.24573817 1059.21096811 -967.47978046 1070.49975253 -969.3659668 1081.91088867 C-970.36089582 1087.85059197 -971.63948132 1093.57100012 -973.28833008 1099.36254883 C-974.41861129 1103.55137488 -975.17414799 1107.79427761 -975.9375 1112.0625 C-977.15417613 1118.65511896 -978.44536205 1125.214121 -979.9375 1131.75 C-981.58450609 1138.97639248 -983.06411478 1146.22881706 -984.5 1153.5 C-986.38608129 1163.03978621 -988.40868727 1172.53725456 -990.5546875 1182.02148438 C-991.26036995 1185.15681913 -991.94512533 1188.29647904 -992.625 1191.4375 C-992.84414063 1192.44683594 -993.06328125 1193.45617188 -993.2890625 1194.49609375 C-994.26706279 1199.31623803 -995.12017683 1204.16097256 -996 1209 C-997.65 1217.25 -999.3 1225.5 -1001 1234 C-1100 1234 -1199 1234 -1301 1234 C-1299.87605949 1222.76059491 -1299.87605949 1222.76059491 -1298.984375 1219.0546875 C-1298.78779297 1218.2184082 -1298.59121094 1217.38212891 -1298.38867188 1216.52050781 C-1298.17791016 1215.64749023 -1297.96714844 1214.77447266 -1297.75 1213.875 C-1297.29510696 1211.93010018 -1296.84204481 1209.9847714 -1296.390625 1208.0390625 C-1296.15923828 1207.04293945 -1295.92785156 1206.04681641 -1295.68945312 1205.02050781 C-1294.56837562 1200.10904504 -1293.5264975 1195.18198701 -1292.5 1190.25 C-1292.29407227 1189.2607251 -1292.08814453 1188.2714502 -1291.87597656 1187.25219727 C-1290.33743591 1179.7869148 -1288.9119422 1172.30258025 -1287.5 1164.8125 C-1285.83914343 1156.01080655 -1283.94130913 1147.30890822 -1281.8046875 1138.61157227 C-1279.72652425 1130.0693737 -1278.12805703 1121.45625513 -1276.52685547 1112.81445312 C-1273.96155935 1099.11068406 -1271.18407062 1085.4787686 -1267.87304688 1071.93554688 C-1265.76945798 1063.23940214 -1264.04841884 1054.47702586 -1262.32421875 1045.69921875 C-1260.88842973 1038.39381083 -1259.38595515 1031.10268236 -1257.875 1023.8125 C-1257.63338135 1022.64396484 -1257.3917627 1021.47542969 -1257.14282227 1020.27148438 C-1255.95176029 1014.52698551 -1254.73945059 1008.78810017 -1253.49609375 1003.0546875 C-1252.21413285 997.09141337 -1251.0429744 991.11232564 -1249.90869141 985.11938477 C-1245.51293273 961.91590983 -1240.92051834 939.08978021 -1232.98486328 916.78857422 C-1232.03455615 914.0978434 -1231.11903959 911.39793552 -1230.21484375 908.69140625 C-1226.44115365 897.47522012 -1222.0065385 886.71788096 -1217 876 C-1216.6090918 875.15260254 -1216.21818359 874.30520508 -1215.81542969 873.43212891 C-1210.64414445 862.23315416 -1205.14632892 851.34803956 -1198.95800781 840.67822266 C-1197.6215307 838.33700358 -1196.37752595 835.9494566 -1195.125 833.5625 C-1190.90068267 825.75463257 -1185.89119141 818.40052692 -1181 811 C-1180.32839844 809.98164062 -1179.65679688 808.96328125 -1178.96484375 807.9140625 C-1173.53478996 799.86074216 -1167.86583654 791.95116211 -1161.8359375 784.3359375 C-1159.99788212 781.99730534 -1158.20379719 779.62775606 -1156.40966797 777.25537109 C-1152.29954721 771.83925986 -1148.05773742 766.67019855 -1143.3984375 761.70703125 C-1142.06147472 760.19804883 -1140.74616418 758.66596787 -1139.52636719 757.06079102 C-1133.28486554 748.8780824 -1126.03318575 741.76559596 -1118.73681641 734.53100586 C-1116.49972566 732.3122279 -1114.27079754 730.08549564 -1112.04296875 727.85742188 C-1110.60203375 726.42140198 -1109.16064286 724.98583937 -1107.71875 723.55078125 C-1107.063302 722.89644608 -1106.407854 722.2421109 -1105.73254395 721.56794739 C-1101.30985126 717.18974146 -1096.72564005 713.04829453 -1092 709 C-1091.21816345 708.32670906 -1091.21816345 708.32670906 -1090.42053223 707.63981628 C-1083.87624318 702.0239905 -1077.24019192 696.51862524 -1070.5625 691.0625 C-1069.90056641 690.51899902 -1069.23863281 689.97549805 -1068.55664062 689.41552734 C-1058.20955188 681 -1058.20955188 681 -1055 681 C-1055 680.34 -1055 679.68 -1055 679 C-1052.78139649 677.36938704 -1050.56425444 675.85919047 -1048.25 674.375 C-1046.98421762 673.5497205 -1045.71859834 672.72419081 -1044.453125 671.8984375 C-1043.75799805 671.44823242 -1043.06287109 670.99802734 -1042.34667969 670.53417969 C-1039.64289136 668.76653447 -1036.96293156 666.96506046 -1034.28125 665.1640625 C-1019.38227495 655.22125798 -1004.20366411 645.66361201 -988.00732422 637.98339844 C-983.206372 635.6313873 -978.51700517 633.04791664 -973.81860352 630.49853516 C-969.18254041 628.0206654 -964.51548937 625.93691255 -959.61572266 624.03613281 C-955.88199402 622.55713857 -952.22285701 620.92051589 -948.55102539 619.29516602 C-932.62866087 612.24734426 -932.62866087 612.24734426 -924.59765625 609.81640625 C-922.52799538 609.16594141 -920.48764216 608.42243288 -918.4609375 607.6484375 C-903.72994966 602.06760302 -888.37230832 597.77527595 -872.984375 594.43994141 C-870.89982205 593.97779027 -868.82501364 593.48365956 -866.75 592.98046875 C-866.02820557 592.80612305 -865.30641113 592.63177734 -864.56274414 592.45214844 C-862.60294256 591.97756352 -860.64326252 591.50247676 -858.68359375 591.02734375 C-851.83380957 589.46716828 -844.91373611 588.23860967 -838 587 C-836.31136841 586.69557983 -836.31136841 586.69557983 -834.58862305 586.38500977 C-814.07120789 582.91358635 -793.49608364 582.59059878 -772.74318695 582.56609726 C-770.59758061 582.56255787 -768.45204452 582.55390822 -766.30645752 582.54434204 C-743.11986129 582.46155258 -720.03423113 583.57096239 -697.3125 588.5625 C-696.30896484 588.77068359 -695.30542969 588.97886719 -694.27148438 589.19335938 C-688.81367215 590.33802874 -683.40025284 591.60989933 -678 593 C-677.94392578 592.10861328 -677.94392578 592.10861328 -677.88671875 591.19921875 C-677.82097656 590.37035156 -677.75523437 589.54148437 -677.6875 588.6875 C-677.60048828 587.48673828 -677.60048828 587.48673828 -677.51171875 586.26171875 C-677.0563595 583.35923804 -676.39938703 580.70582995 -675.60546875 577.8828125 C-673.96379918 572.03433388 -672.7646038 566.15112672 -671.625 560.1875 C-670.02896688 552.00714572 -668.32838914 543.86725441 -666.4375 535.75 C-664.84635875 528.89796498 -663.3974886 522.04322708 -662.125 515.125 C-660.4668299 506.12202004 -658.54093365 497.18665981 -656.5625 488.25 C-653.75148502 475.54067526 -651.10300478 462.80747939 -648.59716797 450.03417969 C-647.55703929 444.74933943 -646.49599624 439.46868627 -645.4375 434.1875 C-644.25580097 428.28450967 -643.07500955 422.38135476 -641.90234375 416.4765625 C-640.21896056 408.01001944 -638.49232397 399.55907151 -636.65234375 391.125 C-635.84003664 387.23370847 -635.16217239 383.32618936 -634.52734375 379.40234375 C-634 377 -634 377 -633.05859375 374.66796875 C-631.72765952 371.31362159 -630.94398714 367.87941602 -630.125 364.375 C-628.74558316 358.66221775 -627.10844106 353.20050855 -625 347.70703125 C-623.87758283 344.6686129 -622.93304522 341.6016464 -622 338.5 C-617.04969622 322.26452094 -610.73379833 306.04778432 -602.25 291.31640625 C-601.00065895 289.00122111 -600.08701595 286.71965316 -599.1875 284.25 C-597.21592259 279.06120423 -594.44468293 274.4891668 -591.52416992 269.79199219 C-589.26562899 266.15408724 -587.15520759 262.47242379 -585.12890625 258.69921875 C-582.08054559 253.06593716 -578.76282075 247.64463358 -575.3125 242.25 C-574.39839355 240.81829468 -574.39839355 240.81829468 -573.46582031 239.35766602 C-568.28980195 231.32103845 -562.79722055 223.59612906 -557 216 C-556.16099615 214.88446204 -555.32245053 213.7685793 -554.484375 212.65234375 C-549.0355592 205.43819284 -543.29443262 198.50713332 -537.40869141 191.64697266 C-535.48434044 189.39711622 -533.57673119 187.13332739 -531.66870117 184.86962891 C-515.79525441 166.04876362 -515.79525441 166.04876362 -511 162 C-510.34 162 -509.68 162 -509 162 C-508.65122803 161.16335815 -508.65122803 161.16335815 -508.29541016 160.30981445 C-506.66376361 157.40046504 -504.63827874 155.39651509 -502.2734375 153.04296875 C-501.8069278 152.57691727 -501.34041809 152.11086578 -500.85977173 151.63069153 C-499.8719326 150.64586655 -498.88167105 149.66346619 -497.88916016 148.68334961 C-496.39566953 147.20791957 -494.9101425 145.7248426 -493.42578125 144.24023438 C-488.12042869 138.95449711 -482.70459442 133.85585447 -477 129 C-475.90495478 128.03923466 -474.81115803 127.07704408 -473.71875 126.11328125 C-465.72841706 119.13404032 -457.45990335 112.64011511 -448.89355469 106.38330078 C-447.1867681 105.13643992 -445.48744194 103.87938217 -443.7890625 102.62109375 C-426.38239512 89.92067348 -408.24065192 78.19043555 -389.17041016 68.15527344 C-386.89522303 66.94422895 -384.64390794 65.69577932 -382.39453125 64.4375 C-370.53290737 57.82362169 -358.26672653 52.29317944 -345.7578125 47.0234375 C-342.31811334 45.57241813 -338.92977859 44.05076209 -335.5625 42.4375 C-324.78866714 37.45155146 -313.28042657 33.67581183 -302 30 C-300.92214233 29.64869019 -300.92214233 29.64869019 -299.82250977 29.2902832 C-281.43238986 23.3205924 -263.1371853 17.57250923 -244.1171875 13.9921875 C-239.73210513 13.16230435 -235.38892013 12.19428805 -231.03930664 11.19702148 C-215.4890995 7.65960456 -199.77935468 5.23883917 -184 3 C-182.93571777 2.84789063 -181.87143555 2.69578125 -180.77490234 2.5390625 C-173.20088084 1.48735622 -165.61520671 0.68834293 -158 0 C-156.8979422 -0.10021454 -156.8979422 -0.10021454 -155.77362061 -0.20245361 C-103.95015294 -4.8521283 -51.82652114 -4.19592495 0 0 Z " fill="#3BD0EE" transform="translate(1405,117)"/>
<path d="M0 0 C2.07896853 -0.00808614 4.15778554 -0.02306139 6.23670197 -0.03962708 C32.17094513 -0.21975749 57.98257187 1.83709731 83.25714874 7.96635437 C85.52513615 8.51351904 87.79932347 9.02671457 90.07550812 9.53862 C104.51078972 12.87524226 118.45169549 17.6335653 132.43488312 22.491745 C133.65014679 22.90360046 133.65014679 22.90360046 134.88996124 23.32377625 C145.49126777 26.9184169 155.16471034 31.75815935 164.95978546 37.13871765 C167.44787954 38.49884957 169.94915156 39.83151137 172.45441437 41.15971375 C192.92218254 52.09104743 211.70826652 64.98728422 228.63410187 80.87846375 C231.21205294 83.28383232 233.84291513 85.60919817 236.49738312 87.929245 C241.73869948 92.63299045 246.43933877 97.77779734 251.12091827 103.02494812 C252.36503932 104.41377741 253.62415464 105.78913211 254.88410187 107.16362 C262.46512587 115.45254947 269.09353412 124.22926532 275.43488312 133.491745 C275.95050812 134.23295593 276.46613312 134.97416687 276.99738312 135.73783875 C280.30421237 140.5689096 283.19312952 145.53725374 285.94660187 150.7026825 C286.88865227 152.46809979 287.84759916 154.22469169 288.82941437 155.9683075 C296.5219605 169.65807279 302.87731264 183.76990635 307.81916046 198.66557312 C308.67765088 201.21176992 309.61805945 203.72536669 310.55988312 206.241745 C312.75264079 212.25590609 314.64702559 218.34598476 316.43488312 224.491745 C316.70300812 225.40053406 316.97113312 226.30932312 317.24738312 227.24565125 C328.0082692 266.64618728 327.63071053 310.8613724 322.83185577 351.12651062 C322.48534141 354.0639977 322.17720348 357.00171026 321.88410187 359.94487 C320.17517423 375.67727894 316.25225468 390.99965103 312.59113312 406.366745 C310.07486584 416.948883 307.72098322 427.51114092 305.99347687 438.25346375 C304.64976475 446.59413338 302.90838446 454.80684984 301.01746368 463.03877258 C300.12253687 466.93707629 299.24420206 470.83908868 298.36847687 474.741745 C298.19791779 475.50167252 298.0273587 476.26160004 297.85163116 477.04455566 C296.28366208 484.07985851 294.88957038 491.14257115 293.62653351 498.23905945 C293.02918401 501.56414802 292.3641819 504.73606003 291.42316437 507.98783875 C290.27774817 512.0488598 289.62864073 516.07633072 288.99738312 520.241745 C288.2147716 525.17413302 287.41430836 530.00672094 285.99738312 534.804245 C284.20761696 540.88199256 283.14071255 547.07431905 281.99030304 553.29716492 C280.74923996 559.96484874 279.3592099 566.583888 277.82965851 573.19120789 C276.96567165 576.95692068 276.20224934 580.72148946 275.53253937 584.52690125 C274.22893802 591.8306057 272.6015282 599.06221427 270.99738312 606.304245 C270.39383897 609.03977244 269.79128018 611.77551664 269.18878937 614.51127625 C269.04143341 615.17997238 268.89407745 615.84866852 268.74225616 616.53762817 C266.39433466 627.20383302 264.13398718 637.87761462 262.08332062 648.60502625 C261.43488312 651.491745 261.43488312 651.491745 260.43488312 652.491745 C258.80848197 652.58886492 257.17783542 652.61546084 255.54853725 652.61479282 C254.48411056 652.61678387 253.41968386 652.61877492 252.3230018 652.6208263 C250.54726222 652.61645704 250.54726222 652.61645704 248.73564911 652.61199951 C247.48931121 652.61285394 246.24297332 652.61370836 244.95886761 652.61458868 C241.48363547 652.61683597 238.00843387 652.61280917 234.53320563 652.60781062 C230.79153861 652.60350964 227.04987344 652.60495229 223.30820465 652.60571289 C216.82026445 652.60623835 210.33233427 652.60308926 203.84439659 652.59747505 C194.4638196 652.58936303 185.08324748 652.58674514 175.70266736 652.58548706 C160.48490385 652.58329607 145.26714568 652.57663472 130.04938507 652.56718445 C115.26292701 652.55801154 100.4764704 652.55093012 85.69001007 652.54667664 C84.32385368 652.54628255 84.32385368 652.54628255 82.93009817 652.5458805 C78.36122708 652.54457551 73.79235598 652.54331179 69.22348487 652.5420686 C31.29394721 652.53169453 -6.63558448 652.51407494 -44.56511688 652.491745 C-44.26200055 650.45207031 -43.95580889 648.41285253 -43.64836884 646.37382507 C-43.47819748 645.23818619 -43.30802612 644.1025473 -43.13269806 642.93249512 C-42.25638047 637.62014516 -41.01236159 632.41146859 -39.75261688 627.179245 C-36.13706128 611.81948939 -32.85052566 596.40830346 -29.9462204 580.897995 C-27.21716081 566.34925996 -24.0729384 551.90435248 -20.89626312 537.44792175 C-18.12642507 524.83473245 -15.47429783 512.22264778 -13.11589813 499.52519226 C-11.86273485 492.83958869 -10.31817815 486.30788243 -8.59636688 479.72612 C-6.41930971 471.09442847 -4.88833427 462.29742208 -3.17205048 453.56547546 C-2.26131812 448.95319858 -1.32920033 444.34575633 -0.37761688 439.741745 C-0.22292938 438.97434998 -0.06824188 438.20695496 0.09113312 437.41630554 C0.69674308 434.50575724 1.33409743 431.74195812 2.44660187 428.98002625 C12.45923585 403.77035095 7.84533793 369.89618342 -2.56511688 345.491745 C-6.61869104 336.79463988 -11.67873257 329.05110169 -17.56511688 321.491745 C-18.06398407 320.84979187 -18.56285126 320.20783875 -19.07683563 319.5464325 C-21.10539703 317.02443724 -22.84575365 315.30465382 -25.56511688 313.491745 C-25.56511688 312.831745 -25.56511688 312.171745 -25.56511688 311.491745 C-26.15421844 311.22619812 -26.74332001 310.96065125 -27.35027313 310.6870575 C-29.62324043 309.46037673 -31.14305039 308.14762159 -33.00261688 306.366745 C-56.95933759 285.06205979 -91.05743399 278.04154162 -122.25261688 279.741745 C-125.03060342 279.94674103 -127.79270623 280.2123123 -130.56511688 280.491745 C-131.64277313 280.58197937 -132.72042938 280.67221375 -133.83074188 280.7651825 C-160.0853862 283.67518002 -183.58387225 293.43248589 -206.32952118 306.25834656 C-208.38428607 307.39197899 -210.4580929 308.4591677 -212.56511688 309.491745 C-211.29834928 300.16501673 -209.44347225 291.06137505 -207.33849335 281.89842224 C-204.47791882 269.42765166 -201.80684962 256.94046074 -199.44011688 244.366745 C-197.4517542 233.81761866 -195.21524905 223.36377263 -192.74651337 212.9172821 C-190.06171923 201.4987566 -187.81056003 190.00321666 -185.56511688 178.491745 C-180.79111492 154.12749416 -180.79111492 154.12749416 -178.08440399 143.0188446 C-176.31519332 135.65613147 -174.88558418 128.22730061 -173.42498016 120.79838562 C-172.18345733 114.50749276 -170.86898548 108.24261221 -169.44011688 101.991745 C-167.95929266 95.50847257 -166.74588028 89.00988287 -165.63665009 82.45365906 C-164.95558293 78.4972906 -164.1502189 74.62323436 -163.12761688 70.741745 C-161.6808943 65.24268427 -160.61104738 59.70260587 -159.56511688 54.116745 C-159.39302704 53.21101746 -159.22093719 52.30528992 -159.04363251 51.37211609 C-158.27075918 47.29689902 -157.51485708 43.22146828 -156.81902313 39.13237 C-156.59085907 37.88971375 -156.36269501 36.6470575 -156.12761688 35.366745 C-155.94328094 34.29166687 -155.75894501 33.21658875 -155.56902313 32.1089325 C-154.25255317 28.67689019 -152.77122368 28.18916253 -149.56511688 26.491745 C-129.75943398 18.23498107 -108.60719122 13.30966602 -87.64031219 9.12358093 C-85.01571347 8.58432549 -82.41208473 8.00110971 -79.80730438 7.3745575 C-75.08640988 6.24807131 -70.34624315 5.32477558 -65.56511688 4.491745 C-64.52081512 4.30837585 -63.47651337 4.12500671 -62.4005661 3.93608093 C-41.69824228 0.51798528 -20.93560447 0.06352711 0 0 Z " fill="#422C65" transform="translate(1262.5651168823242,699.5082550048828)"/>
<path d="M0 0 C0.66 0 1.32 0 2 0 C1.34 3.63 0.68 7.26 0 11 C-0.33 11 -0.66 11 -1 11 C-1.02688151 9.35425434 -1.04634123 7.70838587 -1.0625 6.0625 C-1.07410156 5.14597656 -1.08570313 4.22945312 -1.09765625 3.28515625 C-1 1 -1 1 0 0 Z " fill="#31B1E3" transform="translate(648,1060)"/>
</svg>
