<svg width="600" height="515" viewBox="0 0 600 515" fill="none" xmlns="http://www.w3.org/2000/svg">
<mask id="mask0_4111_49" style="mask-type:luminance" maskUnits="userSpaceOnUse" x="293" y="427" width="36" height="36">
<path d="M328.989 427H293.049V463H328.989V427Z" fill="white"/>
</mask>
<g mask="url(#mask0_4111_49)">
<path d="M311.018 432.535L328.59 427.349L323.462 445L328.59 462.601L311.018 457.465L293.396 462.601L298.573 445L293.396 427.349L311.018 432.535Z" fill="white" stroke="white" stroke-miterlimit="10"/>
</g>
<mask id="mask1_4111_49" style="mask-type:luminance" maskUnits="userSpaceOnUse" x="58" y="313" width="100" height="100">
<path d="M157.731 362.728L108.086 313L58.4408 362.728L108.086 412.456L157.731 362.728Z" fill="white"/>
</mask>
<g mask="url(#mask1_4111_49)">
<path d="M125.275 345.509L156.699 362.659L125.275 379.947L108.086 411.354L90.8953 379.947L59.4717 362.659L90.8953 345.509L108.086 313.964L125.275 345.509Z" fill="white" stroke="white" stroke-miterlimit="10"/>
</g>
<path d="M564.177 389.333C562.281 392.777 558.748 395.268 553.661 396.813C548.572 398.359 541.971 398.943 534.023 398.6C518.128 397.913 496.963 393.524 471.989 385.868C422.053 370.558 356.999 342.216 288.674 304.465C220.348 266.715 161.712 226.717 122.145 192.575C102.359 175.501 87.3623 159.909 78.3038 146.81C73.774 140.259 70.7456 134.355 69.3362 129.218C67.9273 124.084 68.1466 119.762 70.043 116.319C71.9394 112.875 75.4718 110.384 80.5588 108.839C85.648 107.293 92.2491 106.709 100.197 107.052C116.092 107.739 137.257 112.128 162.231 119.784C212.167 135.094 277.221 163.436 345.546 201.187C413.872 238.937 472.507 278.934 512.074 313.077C531.861 330.15 546.858 345.742 555.916 358.842C560.446 365.393 563.475 371.297 564.883 376.434C566.293 381.568 566.074 385.889 564.177 389.333Z" stroke="#41DEF3"/>
<path d="M543.98 426.007C542.084 429.451 538.551 431.942 533.465 433.487C528.375 435.033 521.774 435.617 513.827 435.273C497.932 434.587 476.765 430.198 451.793 422.542C401.856 407.232 336.803 378.89 268.477 341.139C200.151 303.388 141.516 263.391 101.949 229.249C82.1626 212.175 67.1655 196.583 58.107 183.483C53.5772 176.933 50.5489 171.029 49.1394 165.892C47.7305 160.758 47.9499 156.436 49.8463 152.992C51.7427 149.549 55.2752 147.057 60.362 145.512C65.4513 143.967 72.0523 143.383 80.0003 143.726C95.8944 144.413 117.061 148.802 142.033 156.458C191.971 171.767 257.024 200.11 325.35 237.86C393.675 275.611 452.31 315.608 491.877 349.75C511.664 366.824 526.661 382.416 535.719 395.516C540.25 402.067 543.278 407.971 544.687 413.107C546.096 418.241 545.876 422.563 543.98 426.007Z" stroke="#41DEF3"/>
<path d="M523.785 462.681C521.889 466.125 518.356 468.616 513.27 470.161C508.18 471.707 501.579 472.291 493.631 471.948C477.737 471.261 456.571 466.872 431.598 459.216C381.661 443.906 316.607 415.564 248.282 377.813C179.956 340.063 121.321 300.066 81.7543 265.923C61.9678 248.85 46.9707 233.258 37.9122 220.158C33.3824 213.607 30.354 207.703 28.9446 202.566C27.5357 197.432 27.755 193.111 29.6515 189.667C31.5478 186.223 35.0802 183.732 40.1671 182.187C45.2565 180.641 51.8575 180.057 59.8055 180.4C75.6995 181.087 96.8659 185.476 121.839 193.132C171.776 208.442 236.829 236.784 305.154 274.535C373.481 312.285 432.116 352.283 471.683 386.425C491.469 403.499 506.466 419.091 515.525 432.19C520.054 438.741 523.083 444.645 524.492 449.782C525.902 454.916 525.682 459.237 523.785 462.681Z" stroke="#41DEF3"/>
<path d="M131.817 120C140.364 120 147.292 113.06 147.292 104.5C147.292 95.9396 140.364 89 131.817 89C123.271 89 116.343 95.9396 116.343 104.5C116.343 113.06 123.271 120 131.817 120Z" fill="#3BD0EE"/>
<path d="M420.835 445C426.349 445 430.819 440.523 430.819 435C430.819 429.477 426.349 425 420.835 425C415.322 425 410.852 429.477 410.852 435C410.852 440.523 415.322 445 420.835 445Z" fill="#3BD0EE"/>
<path d="M81.9008 88C94.8579 88 105.362 77.4787 105.362 64.5C105.362 51.5213 94.8579 41 81.9008 41C68.9437 41 58.4399 51.5213 58.4399 64.5C58.4399 77.4787 68.9437 88 81.9008 88Z" fill="white"/>
<path d="M305.999 383.59C299.706 385.744 292.514 381.475 290.012 374.071L251.078 259.81L273.828 252.015L312.801 366.433C315.303 373.758 312.254 381.436 305.999 383.59Z" fill="#422C65"/>
<path d="M302.598 385C300.761 385 298.885 384.569 297.086 383.668C293.451 381.866 290.558 378.498 289.151 374.345L250.217 260.084C250.061 259.653 250.296 259.144 250.764 258.987L273.515 251.192C273.75 251.113 273.984 251.113 274.179 251.231C274.375 251.348 274.531 251.505 274.609 251.74L313.582 366.159C316.201 373.914 312.917 382.101 306.233 384.412C305.099 384.804 303.848 385 302.598 385ZM252.172 260.358L290.832 373.797C292.083 377.518 294.663 380.574 297.867 382.14C300.448 383.394 303.224 383.629 305.725 382.767C311.511 380.769 314.325 373.562 311.98 366.707L273.28 253.111L252.172 260.358Z" fill="#422C65"/>
<path d="M269.802 153.382L196.194 205.988L167.542 235.798L156.284 255.736L156.245 255.892C154.016 259.339 155.306 267.291 159.489 275.399C163.594 283.39 169.379 288.953 173.444 289.266L173.327 289.344L194.943 291.695L235.402 285.231L321.283 254.443L428.038 272.775L428.781 272.814C401.965 267.8 365.768 231.88 339.459 181.076C313.191 130.31 304.826 80.132 316.358 55.376H316.318L270.388 152.128L269.802 153.382Z" fill="#3BD0EE"/>
<path d="M446.522 270.603C472.906 256.873 467.803 194.629 435.127 131.577C402.45 68.5248 354.572 28.5413 328.189 42.2712C301.805 56.0011 306.907 118.245 339.584 181.297C372.261 244.349 420.139 284.333 446.522 270.603Z" fill="white"/>
<path d="M434.918 274.185C423.425 274.185 409.587 267.761 394.694 255.266C374.407 238.266 354.51 212.06 338.678 181.428C314.716 135.05 304.826 87.4964 313.504 60.2726C316.397 51.1849 321.244 44.8392 327.85 41.4313C340.985 34.6939 359.474 40.4129 379.958 57.5698C400.245 74.57 420.142 100.775 435.973 131.407C459.975 177.786 469.865 225.339 461.147 252.563C458.255 261.651 453.407 267.996 446.801 271.404C443.244 273.284 439.257 274.185 434.918 274.185ZM339.811 40.4129C335.785 40.4129 332.032 41.2355 328.671 42.9982C322.455 46.171 317.921 52.2033 315.186 60.8601C306.625 87.6922 316.475 134.737 340.242 180.723C372.609 243.279 420.064 283.312 446.058 269.955C452.274 266.782 456.809 260.75 459.545 252.093C468.106 225.261 458.255 178.216 434.488 132.23C406.304 77.782 366.745 40.4129 339.811 40.4129Z" fill="#422C65"/>
<path d="M434.918 274.185C423.425 274.185 409.587 267.761 394.694 255.266C374.407 238.265 354.51 212.06 338.678 181.428C314.716 135.05 304.826 87.4963 313.504 60.2725C316.397 51.1848 321.244 44.8391 327.85 41.4312C336.646 36.8874 348.138 38.0234 361.077 44.6824C373.468 51.0673 386.876 62.3877 399.932 77.3902C400.245 77.7427 400.206 78.2911 399.854 78.6045C399.502 78.9179 398.955 78.8787 398.642 78.5262C372.14 48.0511 345.323 34.4196 328.671 42.9981C322.455 46.1709 317.921 52.2033 315.186 60.86C306.625 87.6922 316.475 134.737 340.242 180.723C368.387 235.132 407.985 272.54 434.879 272.54C438.905 272.54 442.658 271.717 446.019 269.955C452.235 266.782 456.77 260.75 459.506 252.093C468.067 225.261 458.216 178.216 434.449 132.23C427.374 118.52 419.399 105.632 410.838 93.9204C410.565 93.5286 410.643 92.9803 411.034 92.7061C411.425 92.4319 411.972 92.5102 412.246 92.9019C420.884 104.692 428.859 117.658 436.012 131.446C459.975 177.785 469.865 225.339 461.147 252.563C458.255 261.65 453.407 267.996 446.801 271.404C443.244 273.284 439.257 274.185 434.918 274.185Z" fill="#422C65"/>
<path d="M386.659 190.339C392.771 187.158 391.595 172.751 384.033 158.159C376.471 143.567 365.386 134.316 359.273 137.497C353.161 140.678 354.337 155.085 361.9 169.677C369.461 184.269 380.547 193.52 386.659 190.339Z" fill="#3BD0EE"/>
<path d="M383.984 191.848C377.26 191.848 367.879 183.152 361.116 170.03C355.487 159.14 353.181 147.937 355.253 141.474C355.996 139.202 357.207 137.596 358.888 136.734C365.534 133.326 376.909 142.61 384.805 157.847C390.434 168.737 392.74 179.94 390.669 186.403C389.926 188.675 388.714 190.281 387.033 191.143C386.094 191.613 385.078 191.848 383.984 191.848ZM361.937 137.714C361.116 137.714 360.334 137.87 359.669 138.223C358.38 138.889 357.442 140.142 356.855 141.983C354.94 148.016 357.169 158.748 362.601 169.246C369.794 183.152 380.622 192.514 386.212 189.615C387.502 188.949 388.44 187.696 389.026 185.855C390.942 179.783 388.675 169.09 383.28 158.592C376.948 146.41 367.879 137.714 361.937 137.714Z" fill="#3BD0EE"/>
<path d="M428.977 259.574C418.892 259.574 406.774 253.934 393.718 243.005C375.97 228.12 358.536 205.166 344.698 178.373C323.707 137.792 315.068 96.153 322.652 72.2978C325.193 64.307 329.454 58.7447 335.278 55.7285C348.647 48.8736 368.309 56.7861 389.261 77.4292C389.613 77.7818 389.613 78.291 389.261 78.6435C388.91 78.9961 388.402 78.9961 388.049 78.6435C367.644 58.5488 348.686 50.7146 336.06 57.2562C330.665 60.0373 326.717 65.2471 324.293 72.8071C316.827 96.2313 325.428 137.361 346.223 177.589C370.811 225.182 405.405 257.851 428.938 257.851C432.456 257.851 435.7 257.107 438.671 255.618C444.066 252.837 448.013 247.627 450.437 240.067C457.904 216.643 449.303 175.513 428.508 135.285C422.214 123.142 415.178 111.743 407.595 101.441C407.321 101.049 407.399 100.501 407.79 100.227C408.181 99.9526 408.728 100.031 409.001 100.423C416.664 110.842 423.739 122.28 430.071 134.501C451.062 175.082 459.702 216.721 452.118 240.576C449.578 248.567 445.317 254.13 439.492 257.146C436.287 258.752 432.769 259.574 428.977 259.574Z" fill="#422C65"/>
<path d="M194.983 292.517C194.944 292.517 194.905 292.517 194.905 292.517L173.288 290.167C173.171 290.167 173.054 290.128 172.937 290.05C168.48 289.344 162.852 283.704 158.746 275.791C154.369 267.448 153.079 259.3 155.463 255.462L155.503 255.344L166.76 235.367C166.799 235.289 166.839 235.249 166.878 235.21L195.531 205.401C195.57 205.362 195.609 205.323 195.648 205.284L269.06 152.794L315.498 54.9845C315.615 54.7886 315.772 54.632 316.006 54.5536C316.241 54.4753 316.476 54.4753 316.671 54.5928C317.1 54.7886 317.296 55.2979 317.1 55.7288C305.335 80.994 314.639 131.211 340.203 180.645C365.807 230.157 401.496 266.821 428.977 271.874C429.406 271.953 429.72 272.344 429.68 272.814C429.641 273.245 429.251 273.559 428.82 273.598L428.077 273.559C428.039 273.559 428 273.559 427.961 273.559L321.4 255.266L235.715 285.976C235.676 285.976 235.598 286.015 235.558 286.015L195.101 292.478C195.062 292.517 195.023 292.517 194.983 292.517ZM173.914 288.522L194.983 290.794L235.246 284.331L321.088 253.581C321.245 253.542 321.361 253.503 321.518 253.542L417.445 269.994C391.528 258.595 361.234 224.947 338.756 181.468C316.437 138.301 306.468 94.4689 311.941 66.775L270.584 153.735C270.505 153.852 270.427 153.97 270.31 154.048L196.782 206.655L168.246 236.307L156.987 256.284C156.987 256.323 156.948 256.363 156.948 256.363C154.916 259.535 156.284 267.37 160.232 275.008C164.102 282.49 169.692 288.13 173.523 288.404C173.679 288.404 173.796 288.444 173.914 288.522Z" fill="#422C65"/>
<path d="M269.917 153.069L316.318 55.3369H316.357C304.825 80.093 313.229 130.271 339.459 181.037C365.766 231.881 401.964 267.8 428.858 272.736L428.115 272.697L321.516 254.404L319.054 253.973C306.662 251.779 290.127 235.641 278.283 212.608C266.125 188.988 263.976 165.447 269.37 154.244L269.917 153.069Z" fill="white"/>
<path d="M428.858 273.598L428.076 273.558C428.038 273.558 427.998 273.558 427.959 273.558L321.36 255.266L318.897 254.835C305.802 252.524 289.189 235.719 277.501 213.039C264.249 187.265 263.586 164.311 268.588 153.891L269.175 152.716L315.575 55.0236C315.692 54.8277 315.848 54.671 316.083 54.5927C316.318 54.5143 316.552 54.5143 316.748 54.6319C317.177 54.8277 317.373 55.3369 317.177 55.7678C305.412 81.0331 314.715 131.25 340.28 180.684C365.884 230.196 401.574 266.86 429.054 271.913C429.483 271.992 429.797 272.383 429.757 272.853C429.64 273.245 429.288 273.598 428.858 273.598ZM311.861 66.7749L270.7 153.46L270.113 154.635C265.149 164.977 266.596 188.087 279.026 212.217C290.479 234.466 306.623 250.918 319.21 253.111L321.673 253.542L417.404 269.994C391.487 258.595 361.193 224.947 338.716 181.467C316.396 138.301 306.428 94.4687 311.861 66.7749Z" fill="#422C65"/>
<path d="M193.81 292.4C193.771 292.4 193.732 292.4 193.732 292.4L173.249 290.206C173.131 290.206 173.015 290.167 172.897 290.089C168.44 289.384 162.812 283.743 158.707 275.831C154.369 267.448 153.078 259.3 155.463 255.462L155.502 255.344L166.76 235.367C166.995 234.936 167.503 234.819 167.932 235.054C168.362 235.289 168.48 235.798 168.245 236.229L156.987 256.284C156.987 256.323 156.948 256.363 156.948 256.363C154.916 259.535 156.283 267.37 160.232 275.008C164.101 282.49 169.691 288.13 173.523 288.404C173.639 288.404 173.796 288.444 173.874 288.522L193.889 290.676C194.357 290.716 194.709 291.146 194.631 291.616C194.592 292.047 194.24 292.4 193.81 292.4Z" fill="#422C65"/>
<path d="M195.178 291.538C188.533 291.068 179.229 281.628 172.467 268.584C165.314 254.756 163.632 240.459 168.01 235.367L156.323 255.736L156.245 255.892C154.016 259.339 155.306 267.291 159.489 275.399C163.594 283.39 169.379 288.953 173.444 289.266L173.327 289.344L195.178 291.538Z" fill="white"/>
<path d="M195.179 292.4C195.139 292.4 195.139 292.4 195.1 292.4C194.944 292.4 194.748 292.36 194.592 292.36L173.249 290.206C173.131 290.206 173.015 290.167 172.897 290.088C168.44 289.383 162.812 283.743 158.707 275.83C154.369 267.448 153.078 259.3 155.463 255.461L155.502 255.344L165.783 237.404C166.173 236.385 166.681 235.484 167.307 234.74C167.581 234.387 168.089 234.348 168.44 234.583C168.793 234.857 168.909 235.327 168.675 235.719L167.229 238.187C164.922 244.415 167.189 256.636 173.131 268.074C179.582 280.57 188.377 289.697 194.67 290.519L195.139 290.559C195.608 290.598 195.96 291.029 195.921 291.499C195.96 292.047 195.608 292.4 195.179 292.4ZM173.874 288.522L188.806 290.049C183.061 286.367 176.727 278.768 171.685 268.975C166.799 259.535 164.375 249.742 164.766 242.692L156.987 256.284C156.987 256.323 156.948 256.362 156.948 256.362C154.916 259.535 156.283 267.369 160.232 275.008C164.101 282.489 169.691 288.13 173.523 288.404C173.639 288.404 173.796 288.443 173.874 288.522Z" fill="#422C65"/>
<path d="M233.955 285.388L235.675 285.035C226.372 286.994 211.673 272.892 201.315 252.876C190.721 232.429 188.728 212.021 196.233 205.988L195.256 206.968L168.088 235.249C163.632 240.263 165.274 254.639 172.467 268.544C179.385 281.941 189.197 291.499 195.882 291.459L233.955 285.388Z" fill="#422C65"/>
<path d="M195.843 292.36C188.729 292.36 178.839 282.764 171.685 268.975C164.415 254.874 162.577 240.146 167.425 234.701L194.084 206.968C194.553 206.341 195.1 205.793 195.687 205.323C196.038 205.048 196.547 205.088 196.859 205.401C197.172 205.753 197.172 206.263 196.859 206.576L195.335 208.182C189.902 215.468 192.599 234.113 202.097 252.484C212.339 272.305 226.646 285.897 235.403 284.252L235.52 284.213C235.989 284.135 236.419 284.409 236.536 284.879C236.614 285.349 236.34 285.78 235.871 285.897C235.832 285.897 235.793 285.897 235.754 285.936L234.152 286.25H234.112L196.038 292.321C195.96 292.321 195.883 292.36 195.843 292.36ZM191.816 211.825L168.715 235.876C164.415 240.733 166.369 254.913 173.249 268.192C179.972 281.197 189.471 290.598 195.843 290.637L229.461 285.27C220.392 282.058 209.212 269.955 200.573 253.307C192.364 237.443 189.198 221.304 191.816 211.825Z" fill="#422C65"/>
<path d="M359.279 137.479C353.143 140.612 354.041 155.145 361.859 169.638C374.954 193.885 385.392 191.025 386.604 190.594C386.643 190.594 386.643 190.634 386.604 190.634L364.126 208.77C357.52 199.486 351.227 189.145 345.441 177.981C339.93 167.288 335.278 156.633 331.604 146.292L359.279 137.479Z" fill="#422C65"/>
<path d="M364.126 209.631C364.087 209.631 364.048 209.631 364.009 209.631C363.774 209.592 363.579 209.475 363.422 209.279C356.66 199.76 350.367 189.341 344.698 178.412C339.264 167.914 334.574 157.221 330.821 146.645C330.743 146.41 330.743 146.174 330.86 145.979C330.978 145.783 331.134 145.626 331.368 145.548L359.044 136.734C359.475 136.617 359.944 136.813 360.1 137.243C360.256 137.674 360.1 138.144 359.709 138.34C358.379 139.006 357.402 140.338 356.816 142.297C354.901 148.446 357.246 159.336 362.679 169.325C375.462 192.984 385.313 190.281 386.369 189.889C386.759 189.733 387.228 189.928 387.424 190.281C387.62 190.634 387.541 191.143 387.228 191.417L364.673 209.436C364.517 209.553 364.322 209.631 364.126 209.631ZM332.737 146.84C336.45 157.064 340.984 167.405 346.223 177.59C351.696 188.166 357.793 198.233 364.322 207.516L383.827 191.77C379.371 191.574 370.966 188.244 361.116 170.03C355.409 159.493 353.063 148.368 355.135 141.67C355.409 140.808 355.722 140.064 356.112 139.359L332.737 146.84Z" fill="#422C65"/>
<path d="M474.932 81.5974C492.802 72.1937 499.714 50.1159 490.37 32.2852C481.025 14.4545 458.964 7.62313 441.094 17.0268C423.224 26.4305 416.312 48.5083 425.656 66.339C435 84.1697 457.061 91.0011 474.932 81.5974Z" fill="white"/>
<path d="M441.368 41.2352C443.088 38.8849 445.629 37.4356 448.522 37.1223C450.711 36.8872 452.743 37.3573 454.659 38.5324C455.636 39.12 456.496 39.8642 457.318 40.7652C457.904 39.7075 458.608 38.7674 459.428 37.984C461.03 36.4172 462.946 35.5162 465.097 35.2812C467.989 34.9678 470.803 35.8296 472.993 37.749C475.142 39.6292 476.511 42.3712 476.862 45.4657C477.215 48.6385 476.354 51.6939 474.166 55.0626C472.211 58.0787 469.24 61.2124 465.8 64.8945C464.627 66.1479 463.298 67.5581 461.93 69.0466C461.579 69.4383 461.07 69.7125 460.522 69.7517C459.975 69.83 459.467 69.6733 458.998 69.36C457.318 68.1848 455.714 67.0881 454.308 66.1479C450.164 63.3276 446.568 60.899 443.988 58.3921C441.095 55.611 439.609 52.7906 439.258 49.6178C438.945 46.5233 439.688 43.5463 441.368 41.2352Z" fill="#41DEF3"/>
<path d="M576.312 83.5926C589.395 70.483 589.395 49.2282 576.312 36.1186C563.229 23.009 542.019 23.009 528.936 36.1186C515.853 49.2281 515.853 70.483 528.936 83.5926C542.019 96.7022 563.229 96.7022 576.312 83.5926Z" fill="#3BD0EE"/>
<path d="M552.618 94.2732C533.698 94.2732 518.257 78.8399 518.257 59.8419C518.257 40.8832 533.659 25.4106 552.618 25.4106C571.576 25.4106 586.978 40.844 586.978 59.8419C586.978 78.8007 571.576 94.2732 552.618 94.2732ZM552.618 27.1342C534.636 27.1342 519.977 41.7841 519.977 59.8419C519.977 77.8606 534.597 92.5497 552.618 92.5497C570.599 92.5497 585.258 77.8998 585.258 59.8419C585.258 41.8233 570.638 27.1342 552.618 27.1342Z" fill="#3BD0EE"/>
<path d="M561.686 63.1713C559.81 63.1713 558.168 64.0723 557.074 65.4824L545.776 61.0561C545.776 60.8994 545.815 60.7819 545.815 60.6252C545.815 60.351 545.776 60.0768 545.737 59.8026L557.308 54.4362C558.363 55.6505 559.927 56.4339 561.686 56.4731C564.892 56.4731 567.549 53.8486 567.549 50.5974C567.549 47.3462 564.93 44.6826 561.686 44.6826C558.48 44.6826 555.823 47.3071 555.823 50.5583C555.823 50.8325 555.862 51.1067 555.901 51.3809L544.33 56.7473C543.275 55.533 541.711 54.7496 539.952 54.7104C536.746 54.7104 534.089 57.3348 534.089 60.586C534.089 63.8372 536.707 66.5009 539.952 66.5009C541.828 66.5009 543.47 65.5999 544.564 64.1898L555.862 68.6161C555.862 68.7728 555.823 68.8903 555.823 69.047C555.823 72.2982 558.441 74.9618 561.686 74.9618C564.892 74.9618 567.549 72.3373 567.549 69.0861C567.51 65.8349 564.892 63.2105 561.686 63.1713Z" fill="#24104B"/>
<path d="M562.13 189.993C577.471 179.322 581.325 158.283 570.739 142.999C560.151 127.715 539.133 123.975 523.792 134.645C508.452 145.315 504.597 166.355 515.183 181.639C525.771 196.923 546.789 200.663 562.13 189.993Z" fill="white"/>
<path d="M534.52 178.373L529.595 151.619C529.361 150.248 530.612 149.112 531.941 149.465L561.063 157.73C562.548 158.161 562.9 160.08 561.688 161.02L537.452 179.509C536.397 180.371 534.794 179.783 534.52 178.373Z" fill="#41DEF3"/>
<path d="M542.631 299.582C561.576 290.34 569.503 267.553 560.337 248.686C551.172 229.819 528.383 222.016 509.438 231.258C490.494 240.499 482.567 263.286 491.733 282.153C500.898 301.02 523.686 308.823 542.631 299.582Z" fill="#3BD0EE"/>
<path d="M525.841 304.347C521.776 304.347 517.632 303.72 513.606 302.349C503.755 299.059 495.78 292.165 491.168 282.842C486.556 273.559 485.852 263.022 489.174 253.151C496.054 232.821 518.179 221.735 538.545 228.512C548.396 231.802 556.371 238.696 560.983 248.019C565.596 257.303 566.299 267.84 562.976 277.711C557.426 294.006 542.141 304.347 525.841 304.347ZM526.232 228.277C510.635 228.277 496.015 238.148 490.738 253.738C487.572 263.178 488.236 273.245 492.654 282.098C497.07 290.99 504.694 297.61 514.114 300.743C533.58 307.206 554.728 296.63 561.296 277.202C564.462 267.761 563.797 257.694 559.38 248.842C554.963 239.95 547.341 233.33 537.92 230.196C534.05 228.865 530.102 228.277 526.232 228.277Z" fill="#422C65"/>
<path d="M545.466 259.261C545.075 268.78 529.009 291.029 525.178 296.239C524.787 296.787 523.967 296.748 523.614 296.16C521.191 292.243 513.178 279.082 508.995 268.427C507.315 264.197 506.258 260.358 506.376 257.655C506.806 246.844 515.914 238.422 526.703 238.853C537.491 239.362 545.896 248.45 545.466 259.261Z" fill="#24104B"/>
<path d="M532.243 264.827C535.739 261.324 535.739 255.644 532.243 252.141C528.747 248.638 523.079 248.638 519.584 252.141C516.088 255.644 516.088 261.324 519.584 264.827C523.079 268.33 528.747 268.33 532.243 264.827Z" fill="#3BD0EE"/>
</svg>
